<svg height="351" viewBox="0 0 612 351" width="612" xmlns="http://www.w3.org/2000/svg"><g fill="none" transform="matrix(0 1 -1 0 613 0)"><g transform="translate(192)"><path d="m126.7 137.2c-.2-.4-.8-.5-1.1-.2-1.5 1.6-.6 2.2-.5 4.4.2 3.1-.5 6.2-1.7 9-2.6 6-7.3 10.7-11.5 15.7-3.5 4.2-6.8 8.8-8 14.2-.6 2.4-.7 4.9-.3 7.4.1.4.1.7.2.9-2.9-4.7-5.7-9.4-8.4-14.1l-4.2-7.5c3.9-1.5 7.7-3.3 11.3-5.4.6-.4 1.3-.8 1.9-1.2 5.1-3.4 9.2-8.1 11.5-13.6 4-9.6 1.2-20.1-3.1-29-.2-.4-.7-.7-1-.5-1.4.7-.8 1-1 2.4-.1.7-.4 1.3-.8 2-.2.3-.4.8-.5 1.3-.3 1.5-.8 2.9-1.3 4.2-2.6 6.2-7.3 11-11.4 16.1-3.2 3.9-6.3 8.2-7.6 13.2-.5 1.8-.7 3.8-.6 5.7l-.1-.1-1.3-2.5-2.6-5-2.6-5c-.9-1.7-1.7-3.4-2.5-5.1-.6-1.1-1.1-2.3-1.7-3.4 2.9-.8 5.8-1.9 8.6-3.3.5-.3 1-.5 1.5-.8 5.9-3.4 10-9.1 12.3-15.2 3.2-8.4 1.7-17.5-1.2-25.7-.2-.4-.5-.8-.8-.8-1.1 0-.8-.2-1.2.4-.2.2-.6.4-1.2.6-.3.1-.7.6-.8 1.1-.3 1.5-.7 3-1.2 4.4-2.5 6.4-7.2 11.4-11.2 16.8-2.9 3.8-5.6 7.8-6.7 12.5-.4 1.7-.6 3.4-.6 5.1-.3-.6-.6-1.3-1-1.9-3.1-6.4-6.1-12.9-9.1-19.3 1.9-.4 3.9-.9 5.8-1.8.4-.2.7-.3 1.1-.5 6.7-3.5 10.8-10.2 13-17 2.3-7.2 1.7-15-.2-22.3-.1-.5-.3-.9-.5-1.1-.8-.6-.7-1.4-1.1-1.6-.3-.4-.7-.6-1.4-.8-.3-.1-.9.4-1 .9-.2 1.6-.6 3.1-1.1 4.6-2.3 6.7-6.9 12.1-10.8 17.9-2.5 3.8-4.8 7.7-5.6 12.2-.3 1.5-.4 3.1-.4 4.7-2.6-5.7-5.1-11.4-7.5-17.1-.6-1.4-1.2-2.9-1.8-4.3.9-.1 1.9-.2 2.8-.6.2-.1.4-.2.6-.3 7.4-3.7 11.8-11.3 13.7-19.1 1.4-6.1 1.2-12.6.2-18.8-.1-.5-.2-1-.3-1.3-.4-1.2-.5-2.5-.9-3.5-.3-.8-.8-1.6-1.5-2.2-.4-.3-1.1.1-1.1.7-.1 1.7-.4 3.3-.9 4.8-2 7-6.6 12.8-10.2 19.2-2.1 3.8-3.8 7.8-4.3 12-.2 1.4-.2 2.7-.1 4.1-.2-.4-.3-.7-.5-1.1-1.4-3.5-2.9-7-4.3-10.5-1.3-3.4-2.7-6.7-4.1-10 8.1-3.9 13.1-12.6 14.1-21.3.6-5.1.6-10.3.1-15.4-.3-3.4-.2-7.9-2.4-10.7-.4-.5-1.2-.1-1.3.5-.2 9.9-6.2 17.2-10 25.8-2.2 5.1-3.3 10.7-2.6 16.1-.6-1.4-1.2-2.7-1.7-4.1.1-3.7-.7-7.3-2.3-10.6-2-4.5-5.2-8.5-8.8-11.9-4.6-4.4-9.7-8.3-14.2-12.5-4.5-4.3-8.5-9-11-15.2-.2-.6-1.2-.5-1.4.1-.6 1.9-.4 3-.1 5 .5 2.9 1.2 5.8 2 8.6 1.6 5.7 3.7 11.4 6.2 16.8 2.4 5.2 5.2 10.4 9.5 14.4 4.6 4.2 10.3 6.8 15.9 9.4.1.1.3.1.4.1.8.1 1.7.2 2.5.3.3 0 .7-.2.7-.5.2-1 .3-2 .4-2.9 1.5 5.4 3.3 10.7 5.2 15.9-.8-.9-1.7-1.7-2.7-2.5-1.1-.9-2.2-1.7-3.3-2.5-2.9-1.9-5.8-3.5-8.8-5.1-2.5-1.3-5-2.6-7.4-4-2.2-1.3-4.3-2.7-6.3-4.4-2.2-1.8-4.1-3.9-5.9-6.3-.5-.7-.9-1.4-1.3-2.1-.3-.5-1.2-.5-1.5.1s-.3 1.2-.3 1.7c0 .9.3 1.8.6 2.9.7 2.7 1.6 5.3 2.6 7.9 1.3 3.4 2.8 6.8 4.4 10 .9 1.7 1.8 3.4 2.8 5.1 2.8 4.6 6 9 10.4 12.1 4.8 3.3 10.5 4.9 15.9 6.5h.4 2.4c.3 0 .7-.2.8-.5 1-2.4 1.4-4.8 1.4-7.2.2.6.5 1.2.7 1.8 1.3 3.5 2.7 7.1 4.1 10.6 1 2.5 2 4.9 3 7.4-.9-.7-1.9-1.4-2.9-2-1.2-.7-2.5-1.4-3.7-1.9-3.2-1.4-6.5-2.4-9.7-3.2-2.7-.7-5.5-1.4-8.1-2.2-2.4-.8-4.8-1.7-7.2-2.9-2.5-1.3-4.9-3-7-5.2-.7-.7-1.1-1.4-1.6-1.9-.4-.4-1.2-.4-1.6.1-.3.4-.4 1.1-.3 1.6.2.8.4 1.6.8 2.6.9 2.4 2 4.8 3.1 7.2 1.5 3.1 3.2 6.1 5.1 8.9 1 1.5 2.1 3 3.2 4.4 3.1 3.9 6.6 7.5 11.2 9.7 5 2.4 10.5 3 15.8 3.5h.3c.7-.1 1.5-.2 2.2-.3.3 0 .7-.3.8-.5 1.8-2.8 2.7-5.7 3.3-8.5 2.6 6.4 5.4 12.7 8.1 19-.6-.3-1.3-.6-2-.9-1.4-.5-2.7-1-4.1-1.3-3.5-.8-7-1.1-10.5-1.2-2.9-.1-5.8-.1-8.7-.3-2.6-.2-5.3-.5-7.9-1.2-2.8-.8-5.6-2.1-8-4-.8-.6-1.3-1.3-1.9-1.7-.4-.3-1.2-.3-1.7.1-.4.3-.4 1-.2 1.4.3.8.6 1.5 1.1 2.4 1.1 2.2 2.3 4.3 3.6 6.3 1.7 2.7 3.6 5.3 5.7 7.7 1.1 1.3 2.3 2.5 3.5 3.7 3.4 3.2 7.2 5.9 11.8 7.2 5 1.4 10.3 1 15.3.4.1 0 .2 0 .3-.1l2.1-.6c.3-.1.6-.3.8-.5 2.2-2.5 3.7-5.1 5.1-7.6 1 2.2 2.1 4.4 3.1 6.7l2.4 5.1 2.5 5.1 1.7 3.4c-.6-.2-1.3-.4-1.9-.5-1.5-.3-2.9-.5-4.4-.6-3.7-.2-7.4.3-11 1-3 .6-6 1.3-9 1.8-2.8.4-5.5.7-8.4.5-3.1-.2-6.2-.9-9-2.5-1-.6-1.6-1.1-2.2-1.5-.5-.2-1.1-.2-1.8.2-.4.3-.4.9-.2 1.3.4.7.8 1.3 1.3 2.1 1.3 1.9 2.6 3.7 4.1 5.5 1.9 2.3 4 4.5 6.3 6.4 1.2 1 2.5 2 3.8 2.9 3.6 2.4 7.6 4.2 12.2 4.6 5 .4 9.8-1 14.4-2.7.1 0 .2-.1.3-.1.6-.3 1.2-.6 1.9-.9.3-.2.6-.4.9-.6 2.8-2.5 5.2-5.1 7.4-7.8l4.1 7.8c2.3 4.2 4.7 8.4 7.2 12.6-.6-.1-1.2-.1-1.8-.2-5.5-.3-10.9 1.4-15.9 3.6-5.8 2.5-11.4 5.5-17.7 6.4-3.2.4-6.7.3-9.7-.9-2.1-.8-2.4-1.8-4.4-.8-.4.2-.5.8-.2 1.1 3.6 4.2 7.8 8.4 12.6 11.3s10.2 4.6 16.2 3.9c5.6-.7 10.6-3.8 15.1-7 3.8-2.7 7.4-5.7 10.8-9 3.7 6 7.7 12 11.8 17.8l4.3-3.2c-5.3-7.2-10.3-14.7-15-22.4.3.3.6.6 1.1 1 .1.1.2.1.2.1.2.1.4.1.6 0 5.5-2.7 10.7-6 15.5-9.8 4.2-3.3 8.5-7.1 10.7-12.1 5.7-11.1.8-22.9-5.3-32.2z" fill="#000" opacity=".1"/><g transform="translate(6)"><path d="m2 1.4c2.5 6.2 6.5 10.9 11 15.2s9.6 8.1 14.2 12.5c3.5 3.4 6.7 7.4 8.8 11.9s2.9 9.4 1.8 14.4c-.1.3-.5.5-.7.5-.8-.1-1.7-.2-2.5-.3-.1 0-.2 0-.4-.1-5.6-2.6-11.3-5.2-15.9-9.4-4.3-3.9-7.1-9.1-9.5-14.4-2.5-5.4-4.6-11-6.2-16.8-.8-2.8-1.5-5.7-2-8.6-.4-2-.5-3.1.1-5 .2-.4 1.1-.5 1.3.1z" fill="#f9e5a7"/><path d="m45.6 87.8c-.8 0-1.6 0-2.4 0-.1 0-.2 0-.4 0-5.5-1.6-11.1-3.2-15.9-6.5-4.5-3.1-7.7-7.5-10.4-12.1-1-1.7-1.9-3.4-2.8-5.1-1.7-3.2-3.2-6.6-4.4-10-1-2.6-1.8-5.2-2.6-7.9-.3-1.1-.5-2-.6-2.9 0-.5 0-1.1.3-1.7.3-.5 1.2-.6 1.5-.1.4.7.8 1.4 1.3 2.1 1.7 2.4 3.7 4.5 5.9 6.3 2 1.6 4.1 3.1 6.3 4.4 2.4 1.4 4.9 2.7 7.4 4 2.9 1.6 5.9 3.2 8.8 5.1 1.1.8 2.2 1.6 3.3 2.5 1.7 1.4 3.2 3 4.6 4.7.8 1 1.3 2 1.8 3.1 0 .1.1.2.1.2.1.2.1.3.1.5.6 4.1.8 8.4-1 12.9-.2.3-.6.5-.9.5z" fill="#d0c38a"/><path d="m55.3 118.1c-.7.1-1.5.2-2.2.3-.1 0-.2 0-.3 0-5.3-.5-10.8-1.1-15.8-3.5-4.6-2.2-8.1-5.8-11.2-9.7-1.1-1.4-2.2-2.9-3.2-4.4-1.9-2.8-3.6-5.8-5.1-8.9-1.1-2.3-2.2-4.7-3.1-7.2-.4-1-.7-1.8-.8-2.6-.1-.5-.1-1.1.3-1.6s1.2-.5 1.6-.1c.5.6.9 1.2 1.6 1.9 2.1 2.2 4.5 3.9 7 5.2 2.3 1.2 4.7 2.1 7.2 2.9 2.7.8 5.4 1.5 8.1 2.2 3.2.9 6.5 1.8 9.7 3.2 1.3.5 2.5 1.2 3.7 1.9 1.9 1.1 3.7 2.5 5.3 4.2 1 1 1.4 1.9 1.9 3.1 0 .1.1.2.1.2v.5c-.7 3.7-1.4 7.8-3.9 11.7-.2.5-.6.7-.9.7z" fill="#a7a16d"/><path d="m66 146.2c-.7.2-1.4.4-2.1.6-.1 0-.2.1-.3.1-5 .5-10.2 1-15.3-.4-4.6-1.3-8.4-4-11.8-7.2-1.2-1.2-2.4-2.4-3.5-3.7-2.1-2.4-4-5-5.7-7.7-1.3-2.1-2.5-4.2-3.6-6.3-.4-.9-.8-1.6-1.1-2.4-.2-.5-.1-1.1.2-1.4.5-.5 1.3-.5 1.7-.1.6.5 1.1 1.1 1.9 1.7 2.4 1.9 5.2 3.2 8 4 2.6.7 5.2 1.1 7.9 1.2 2.9.2 5.8.2 8.7.3 3.5.1 7 .3 10.5 1.2 1.4.3 2.7.7 4.1 1.3 2.1.9 4.2 2 6 3.5 1.2 1 1.5 1.7 2.1 3.1 0 .1.1.2.1.2 0 .2 0 .4-.1.5-1.8 3.6-3.7 7.4-6.8 11-.2.2-.6.4-.9.5z" fill="#7f804f"/><path d="m78.1 175.7c-.6.3-1.2.6-1.9.9-.1 0-.2.1-.3.1-4.6 1.6-9.4 3.1-14.4 2.7-4.5-.4-8.5-2.1-12.2-4.6-1.3-.9-2.6-1.8-3.8-2.9-2.3-1.9-4.4-4.1-6.3-6.4-1.5-1.8-2.8-3.6-4.1-5.5-.5-.7-.9-1.4-1.3-2.1-.2-.4-.2-1 .2-1.3.7-.5 1.3-.5 1.8-.2.6.3 1.2.9 2.2 1.5 2.8 1.6 5.9 2.3 9 2.5 2.8.2 5.6-.1 8.4-.5 3-.5 6-1.2 9-1.8 3.6-.7 7.3-1.2 11-1 1.5.1 2.9.3 4.4.6 2.3.5 4.6 1.4 6.6 2.7 1.4.9 1.7 1.6 2.3 3.1 0 .1.1.2.1.3 0 .2 0 .4-.1.6-2.8 3.7-5.9 7.4-9.7 10.7-.3.2-.6.5-.9.6z" fill="#565e32"/><path d="m80 191.1c5-2.1 10.4-3.9 15.9-3.6 2.5.1 4.9.7 7.1 1.8 1.6.8 1.8 1.4 2.5 3 0 .1.1.2.1.3 0 .2 0 .4-.2.6-4.1 4.3-8.6 8.3-13.5 11.7-4.5 3.2-9.5 6.3-15.1 7-5.9.7-11.3-1-16.2-3.9-4.8-2.9-9.1-7.1-12.6-11.3-.3-.3-.3-.9.2-1.1 1.9-1 2.3 0 4.4.8 3.1 1.2 6.5 1.3 9.7.9 6.3-.7 11.9-3.7 17.7-6.2z" fill="#2d3c15"/><g transform="translate(39 13)"><path d="m14.9.3c2.2 2.7 2.1 7.3 2.4 10.7.5 5.1.5 10.3-.1 15.4-1 8.7-6 17.4-14.1 21.3-.1 0-.1 0-.2.1-.4.1-.8-.1-.9-.5-2.2-6.8-1.3-14.1 1.6-20.6 3.8-8.6 9.8-15.9 10-25.8 0-.7.8-1.1 1.3-.6z" fill="#f9e5a7"/><path d="m31.1 54.4c-1.8 7.7-6.2 15.4-13.7 19.1-.2.1-.4.2-.6.3-1.2.5-2.5.6-3.7.6-.1 0-.1 0-.1-.1 0 0 0 0 0-.1-.5-1-.8-2-.9-3.1-.3-2-.3-3.9 0-5.9.5-4.3 2.2-8.3 4.3-12 3.6-6.4 8.2-12.2 10.2-19.2.4-1.5.8-3.1.9-4.8 0-.6.7-1 1.1-.7.7.6 1.2 1.4 1.5 2.2.4 1 .5 2.3.9 3.5.1.4.2.8.3 1.3 1 6.2 1.2 12.8-.2 18.9z" fill="#d0c38a"/><path d="m45.4 81.2c-2.2 6.9-6.4 13.5-13 17-.4.2-.7.3-1.1.5-2.1.9-4.3 1.5-6.4 1.9-.1 0-.2 0-.3-.1 0 0-.1 0-.1-.1-.7-1.1-1-1.9-1.1-3.2-.2-2.1-.1-4.2.3-6.2.9-4.5 3.1-8.4 5.6-12.2 3.9-5.8 8.6-11.2 10.8-17.9.5-1.5.9-3 1.1-4.6.1-.5.6-1 1-.9.7.2 1.1.5 1.4.8.4.2.3.9 1.1 1.6.2.2.4.6.5 1.1 1.9 7.2 2.6 15.1.2 22.3z" fill="#a7a16d"/><path d="m60.3 107.2c-2.3 6.1-6.4 11.8-12.3 15.2-.5.3-1 .5-1.5.8-2.9 1.5-5.9 2.6-9 3.4-.2 0-.3 0-.4-.1 0 0-.1-.1-.1-.1-.9-1.1-1.3-1.8-1.4-3.3-.2-2.2 0-4.4.5-6.5 1.1-4.7 3.9-8.7 6.7-12.5 4.1-5.4 8.8-10.5 11.2-16.8.5-1.4 1-2.9 1.2-4.4.1-.5.5-1 .8-1.1.6-.2.9-.5 1.2-.6.3-.6 0-.4 1.2-.4.3 0 .6.4.8.8 2.8 8.1 4.3 17.2 1.1 25.6z" fill="#7f804f"/><path d="m76 132.2c-2.3 5.5-6.4 10.2-11.5 13.6-.6.4-1.2.8-1.9 1.2-3.6 2.2-7.4 4-11.3 5.5-.2.1-.4 0-.5 0s-.1-.1-.2-.1c-1.1-1.2-1.6-1.7-1.8-3.3-.3-2.3-.1-4.7.5-6.9 1.3-5 4.3-9.2 7.6-13.2 4.2-5.1 8.9-9.9 11.4-16.1.6-1.4 1-2.8 1.3-4.2.1-.5.4-1 .5-1.3.4-.7.7-1.4.8-2 .2-1.4-.4-1.7 1-2.4.3-.2.8.1 1 .5 4.3 8.6 7.1 19.1 3.1 28.7z" fill="#565e32"/><path d="m86.8 122.6c6 9.3 10.9 21.1 6.2 32-2.2 5-6.5 8.8-10.7 12.1-4.8 3.8-10 7.1-15.5 9.8-.2.1-.5.1-.6 0-.1 0-.2-.1-.2-.1-1.3-1.1-1.9-1.5-2.2-3.3-.4-2.5-.3-5 .3-7.4 1.3-5.4 4.5-10 8-14.2 4.2-5 8.9-9.6 11.5-15.7 1.2-2.8 1.9-5.9 1.7-9-.2-2.2-1-2.9.5-4.4.2-.4.7-.2 1 .2z" fill="#2d3c15"/></g><path d="m37.5 49.8c2 7.3 4.4 14.5 7.1 21.6 1.3 3.6 2.6 7.1 4 10.6 1.3 3.5 2.7 7.1 4.1 10.6 5.6 14.1 11.4 28 17.7 41.8 1.6 3.4 3.2 6.9 4.8 10.3.8 1.7 1.6 3.4 2.4 5.1l2.5 5.1 2.5 5.1 1.3 2.5 1.3 2.5 5.3 10.1c7.3 13.3 15.2 26.3 24 38.8l4.3-3.2c-8.9-12.1-16.8-24.8-24.3-37.9l-5.5-9.8-1.4-2.5-1.3-2.5-2.6-5-2.6-5c-.9-1.7-1.7-3.4-2.5-5.1-1.7-3.4-3.4-6.7-5-10.1-6.6-13.6-12.8-27.3-18.7-41.2-1.5-3.5-3-6.9-4.4-10.4s-2.9-7-4.3-10.5c-2.9-7-5.7-14-8.7-20.9z" fill="#434026"/></g></g><g transform="translate(147 380)"><path d="m189.5 67.7c-1.4-6.3-5.6-11.7-9.7-16.5-4.8-5.5-10.1-10.4-15.8-14.8-.2-.2-.5-.2-.7-.2-.1 0-.2.1-.3.1-.6.4-1.1.6-1.5.9 7.2-7.8 14.7-15.4 22.4-22.6l-4.3-4.6c-6.1 5.9-11.9 11.9-17.6 18.1-3.2-4.5-6.7-8.8-10.5-12.8-4.5-4.7-9.6-9.4-16-11.5-6.7-2.1-13.4-1.4-19.6.9-6.3 2.3-12.1 6.2-17.2 10.3-.4.3-.5 1-.1 1.4 2 1.6 2.7.5 5.3 0 3.8-.7 7.8-.1 11.5 1.1 7.1 2.4 13 7.2 19.2 11.3 5.4 3.6 11.2 6.8 17.7 7.7.7.1 1.4.2 2.1.2-3.8 4.3-7.5 8.7-11.1 13.1l-6.5 8.1c-2-3.6-4.2-7.3-6.9-10.7-.2-.3-.6-.6-.9-.9-.6-.5-1.3-.9-2-1.4-.1-.1-.2-.1-.3-.2-5-2.9-10.3-5.7-16.2-6.3-5.3-.5-10.4.6-15.1 2.6-1.7.7-3.4 1.6-5.1 2.5-3 1.7-6 3.8-8.7 6-2.1 1.7-4.1 3.5-6 5.4-.7.7-1.4 1.4-2 2.1-.4.4-.5 1.1-.1 1.5.7.7 1.4.8 2 .7.8-.2 1.6-.8 2.9-1.2 3.6-1.2 7.4-1.4 11-.9 3.3.4 6.5 1.3 9.6 2.5 3.4 1.2 6.7 2.7 10.1 4.1 4 1.6 8.2 3 12.6 3.7 1.7.2 3.5.4 5.3.3.8 0 1.5-.1 2.3-.2l-2.7 3.5-4.1 5.4c-1.3 1.8-2.6 3.6-4 5.4-1.7 2.4-3.4 4.7-5.1 7-1-3.3-2.2-6.6-4.2-10-.2-.3-.5-.6-.9-.8-.7-.4-1.5-.8-2.3-1.1-.1-.1-.2-.1-.3-.2-5.7-1.8-11.7-3.5-17.8-2.9-5.6.5-10.7 2.8-15.3 5.7-1.7 1.1-3.3 2.2-4.9 3.5-3 2.3-5.8 4.9-8.4 7.7-2 2.1-3.9 4.3-5.6 6.6-.7.9-1.3 1.7-1.8 2.5-.3.5-.4 1.2-.1 1.7.5.7 1.3.8 1.9.5.8-.4 1.5-1 2.6-1.6 3.3-1.7 6.8-2.5 10.2-2.8 3.2-.3 6.3-.1 9.4.3 3.4.4 6.8 1.1 10.2 1.6 4 .6 8.2 1.1 12.4 1 1.7-.1 3.3-.2 5-.6.8-.2 1.6-.4 2.5-.6-4.6 6.7-9.2 13.5-13.7 20.3-.1-3.4-.5-6.9-1.9-10.6-.1-.3-.5-.6-.8-.8-.8-.3-1.7-.6-2.5-.8-.1-.1-.2-.1-.4-.1-6.3-.6-12.8-1.2-19.1.5-5.8 1.6-10.7 4.9-15.2 8.8-1.6 1.4-3.2 2.9-4.7 4.4-2.8 2.9-5.5 6-7.9 9.2-1.9 2.5-3.6 5-5.2 7.6-.7 1.1-1.2 1.9-1.5 2.9-.2.6-.3 1.3 0 1.9.3.7 1.3.9 1.8.5.7-.5 1.4-1.2 2.3-1.9 2.9-2.1 6.1-3.5 9.3-4.5 3-.9 5.9-1.4 9-1.7 3.3-.4 6.6-.5 9.9-.8 4-.3 8-.7 12-1.6 1.6-.4 3.2-.8 4.7-1.4 1.3-.5 2.6-1.1 3.9-1.7-1.7 2.6-3.4 5.3-5.1 7.9-2.4 3.8-4.8 7.6-7.1 11.4-.4.6-.8 1.3-1.2 1.9.4-2.7.5-5.6-.1-8.6-.1-.3-.5-.7-.8-.7-.9-.2-1.8-.4-2.8-.5-.1-.1-.3-.1-.4-.1-6.7.6-13.6 1.2-19.9 4-5.9 2.6-10.6 7-14.8 11.8-1.5 1.7-3 3.5-4.4 5.3-2.7 3.4-5.1 7-7.4 10.6-1.7 2.8-3.3 5.7-4.7 8.6-.6 1.3-1 2.2-1.3 3.2-.1.6-.2 1.3 0 2s1.2.9 1.7.4c.6-.7 1.2-1.4 2-2.1 2.5-2.5 5.3-4.4 8.2-6 2.7-1.5 5.5-2.6 8.3-3.7 3.1-1.1 6.3-2.1 9.5-3.1 3.8-1.2 7.6-2.4 11.3-4 1.5-.6 2.9-1.3 4.3-2.1 1.3-.7 2.5-1.5 3.6-2.3-3.4 5.7-6.6 11.4-9.6 17.3.1-1.1.2-2.3.1-3.4 0-.4-.4-.7-.8-.7-1-.1-2-.2-3-.2-.1 0-.3-.1-.4 0-7.1 1.7-14.3 3.5-20.5 7.4-5.9 3.6-10.3 9-14.2 14.6-4.1 5.7-7.8 11.8-10.9 18.1-1.5 3.1-3 6.3-4.2 9.6-.9 2.2-1.3 3.5-1 5.8.1.7 1.2 1 1.6.4 4.3-6.6 10-11.2 16.2-15.2s12.9-7.3 19.3-11.4c4.8-3.1 9.4-7.2 12.8-11.9 2.5-3.6 4.3-7.5 5-11.9 1-1.4 2-2.9 2.9-4.3-2 6.2-2.1 12.9-.6 19.3 2.5 10.9 7.9 20.7 5.9 32.2-.1.7.7 1.4 1.3.9 3.1-2.7 4.1-8 5.2-11.8 1.7-5.8 2.8-11.9 3.3-17.9.8-10.3-3.1-21.5-11.6-27.9l6.9-10.8c2.4-3.8 4.8-7.5 7.3-11.2.3-.4.5-.8.8-1.2-.4 1.6-.7 3.2-.8 4.8-.3 5.1.7 10.1 2.3 14.9 2.8 8.3 6.8 16 7.6 24.6.2 1.9.2 3.8 0 5.8-.1.7.6 1.3 1.1 1.1 1-.5 1.7-1.3 2.3-2.2.7-1.1 1.1-2.6 1.8-3.9.2-.4.5-.9.7-1.5 2.6-7 4.3-14.5 4-21.9-.4-9.4-3.8-19.3-11.6-25.2-.2-.2-.5-.3-.7-.5-1-.6-2.1-1.1-3.2-1.3 1-1.5 2.1-3.1 3.1-4.6 4.1-6.1 8.3-12.2 12.5-18.2-.4 1.8-.6 3.7-.6 5.6 0 5.4 1.8 10.5 3.8 15.4 3.2 7.6 7.4 14.9 8.6 23.2.3 1.8.4 3.7.2 5.6 0 .6.5 1.3.9 1.2.8-.1 1.4-.3 1.8-.6.5-.1.6-1 1.6-1.6.3-.2.6-.6.9-1.1 3.7-8 6.3-16.9 5.2-25.8-1.1-8.5-4.4-17.1-11.4-22.7-.4-.3-.8-.6-1.2-.8-2-1.4-4.2-2.5-6.4-3.3 4.9-6.9 9.8-13.7 14.8-20.5.5-.7 1-1.4 1.5-2-.4 2-.6 4.1-.5 6.1.3 5.7 2.5 11 5.1 16.1 3.5 7.1 7.9 14.1 9.3 22 .3 1.7.5 3.5.5 5.4 0 .6.4 1.2.7 1.4.6.4 1 .8 1.2 1 .3.8-.1.5 1.3.7.3.1.8-.3 1.1-.8 5.2-8.8 9-19.1 7.1-29.5-1.4-7.6-4.8-15.1-10.9-20.4-.5-.4-1-.9-1.6-1.3-2.9-2.3-6.1-4.2-9.3-5.8.9-1.2 1.8-2.4 2.7-3.6 1.4-1.8 2.7-3.6 4.1-5.3l4.2-5.2 4.2-5.2 2.1-2.6.1-.1c-.5 2.2-.7 4.5-.6 6.7.4 6.1 3 11.7 5.9 17 3.7 6.8 8.1 13.5 9.7 21.2.4 1.7.6 3.5.6 5.2 0 .6.2 1.2.3 1.6.3.9.5 1.8.4 2.6-.1 1.7-.9 1.9.6 3 .3.3.9 0 1.2-.4 6.9-9.4 12.6-20.9 10-33-1.5-6.9-5.2-13.2-10.3-18.3-.6-.6-1.3-1.2-1.9-1.8-3.7-3.3-7.7-6.3-11.9-8.8l6.5-7.8c4.2-4.9 8.5-9.8 12.9-14.6-.2.3-.3.6-.5 1-1 2.8-1.4 5.7-1.3 8.6.3 6.6 3 12.6 6.2 18.2 3.7 6.7 8.2 13.2 9.8 20.7.8 3.6.9 7.3 0 10.9-.7 2.5-1.8 3.1-.4 5.2.3.5 1 .4 1.4.1 8.8-9.8 17.1-22.4 14-36.2z" fill="#000" opacity=".1"/><g transform="translate(5)"><path d="m1.8 230.2c4.3-6.6 10-11.2 16.2-15.2s12.9-7.3 19.3-11.4c4.8-3.1 9.4-7.2 12.8-11.9s5.5-10.2 5.3-16.3c0-.4-.4-.7-.8-.7-1-.1-2-.2-3-.2-.1 0-.3-.1-.4 0-7.1 1.7-14.3 3.5-20.5 7.4-5.9 3.6-10.3 9-14.2 14.6-4.1 5.7-7.8 11.8-10.9 18.1-1.5 3.1-3 6.3-4.2 9.6-.9 2.2-1.3 3.5-1 5.8-.1.6 1 .9 1.4.2z" fill="#f9e5a7"/><path d="m71.6 139.5c-.9-.2-1.8-.4-2.8-.5-.1-.1-.3-.1-.4-.1-6.7.6-13.6 1.2-19.9 4-5.9 2.6-10.6 7-14.8 11.8-1.5 1.7-3 3.5-4.4 5.3-2.7 3.4-5.1 7-7.4 10.6-1.7 2.8-3.3 5.7-4.7 8.6-.6 1.3-1 2.2-1.3 3.2-.1.6-.2 1.3 0 2s1.2.9 1.7.4c.6-.7 1.2-1.4 2-2.1 2.5-2.5 5.3-4.4 8.2-6 2.7-1.5 5.5-2.6 8.3-3.7 3.1-1.1 6.3-2.1 9.5-3.1 3.8-1.2 7.6-2.4 11.3-4 1.5-.6 2.9-1.3 4.3-2.1 2.3-1.3 4.4-2.8 6.4-4.5 1.2-1 2-2 2.8-3.2.1-.1.1-.2.2-.2.1-.2.2-.3.2-.5 1.7-4.6 2.8-9.6 1.7-15.2-.2-.3-.6-.6-.9-.7z" fill="#d0c38a"/><path d="m89.5 106.5c-.8-.3-1.7-.6-2.5-.8-.1-.1-.2-.1-.4-.1-6.3-.6-12.8-1.2-19.1.5-5.8 1.6-10.7 4.9-15.2 8.8-1.6 1.4-3.2 2.9-4.7 4.4-2.8 2.9-5.5 6-7.9 9.2-1.9 2.5-3.6 5-5.2 7.6-.7 1.1-1.2 1.9-1.5 2.9-.2.6-.3 1.3 0 1.9.3.7 1.3.9 1.8.5.7-.5 1.4-1.2 2.3-1.9 2.9-2.1 6.1-3.5 9.3-4.5 3-.9 5.9-1.4 9-1.7 3.3-.4 6.6-.5 9.9-.8 4-.3 8-.7 12-1.6 1.6-.4 3.2-.8 4.7-1.4 2.5-.9 4.9-2.1 7.1-3.7 1.4-1 2.1-1.9 3-3.2.1-.1.1-.2.1-.3.1-.2.1-.4.1-.5.1-4.5.1-9.3-1.9-14.5-.1-.4-.5-.7-.9-.8z" fill="#a7a16d"/><path d="m108.2 76.3c-.7-.4-1.5-.8-2.3-1.1-.1-.1-.2-.1-.3-.2-5.7-1.8-11.7-3.5-17.8-2.9-5.6.5-10.7 2.8-15.3 5.7-1.7 1.1-3.3 2.2-4.9 3.5-3 2.3-5.8 4.9-8.4 7.7-2 2.1-3.9 4.3-5.6 6.6-.7.9-1.3 1.7-1.8 2.5-.3.5-.4 1.2-.1 1.7.5.7 1.3.8 1.9.5.8-.4 1.5-1 2.6-1.6 3.3-1.7 6.8-2.5 10.2-2.8 3.2-.3 6.3-.1 9.4.3 3.4.4 6.8 1.1 10.2 1.6 4 .6 8.2 1.1 12.4 1 1.7-.1 3.3-.2 5-.6 2.7-.5 5.3-1.4 7.7-2.8 1.6-.9 2.2-1.7 3.1-3.2.1-.1.1-.2.1-.3.1-.2.1-.4 0-.6-1.3-4.5-2.6-9.4-5.5-14.2.1-.3-.2-.6-.6-.8z" fill="#7f804f"/><path d="m128.7 44.6c-.6-.5-1.3-.9-2-1.4-.1-.1-.2-.1-.3-.2-5-2.9-10.3-5.7-16.2-6.3-5.3-.5-10.4.6-15.1 2.6-1.7.7-3.4 1.6-5.1 2.5-3 1.7-6 3.8-8.7 6-2.1 1.7-4.1 3.5-6 5.4-.7.7-1.4 1.4-2 2.1-.4.4-.5 1.1-.1 1.5.7.7 1.4.8 2 .7.8-.2 1.6-.8 2.9-1.2 3.6-1.2 7.4-1.4 11-.9 3.3.4 6.5 1.3 9.6 2.5 3.4 1.2 6.7 2.7 10.1 4.1 4 1.6 8.2 3 12.6 3.7 1.7.2 3.5.4 5.3.3 2.8-.1 5.6-.6 8.3-1.7 1.8-.8 2.3-1.5 3.4-3.1.1-.1.1-.2.1-.3.1-.2.1-.4 0-.7-2.5-4.9-5.2-9.9-8.9-14.6-.2-.4-.5-.7-.9-1z" fill="#565e32"/><path d="m134.4 27.2c5.4 3.6 11.2 6.8 17.7 7.7 2.9.4 5.9.3 8.7-.6 2.1-.6 2.4-1.3 3.6-3 .1-.1.1-.2.1-.3.1-.2.1-.5-.1-.8-3.8-6-8.2-11.5-13.1-16.6-4.5-4.7-9.6-9.4-16-11.5-6.7-2.1-13.4-1.4-19.6.9-6.3 2.3-12.1 6.2-17.2 10.3-.4.3-.5 1-.1 1.4 2 1.6 2.7.5 5.3 0 3.8-.7 7.8-.1 11.5 1.1 7.2 2.4 13.1 7.2 19.2 11.4z" fill="#2d3c15"/><g transform="translate(56 34)"><path d="m8.6 193.9c3.1-2.7 4.1-8 5.2-11.8 1.7-5.8 2.8-11.9 3.3-17.9.8-10.3-3.1-21.5-11.6-27.9-.1 0-.1-.1-.2-.1-.4-.2-.9-.1-1.1.4-4.1 7.4-4.6 16.1-2.8 24.3 2.5 10.9 7.9 20.7 5.9 32.2-.1.7.7 1.4 1.3.8z" fill="#f9e5a7"/><path d="m39.5 134.7c-.4-9.4-3.8-19.3-11.6-25.2-.2-.2-.5-.3-.7-.5-1.3-.8-2.8-1.3-4.1-1.5-.1 0-.1 0-.2 0 0 0 0 0-.1.1-.9 1.1-1.3 2.1-1.8 3.4-.7 2.2-1.2 4.5-1.3 6.8-.3 5.1.7 10.1 2.3 14.9 2.8 8.3 6.8 16 7.6 24.6.2 1.9.2 3.8 0 5.8-.1.7.6 1.3 1.1 1.1 1-.5 1.7-1.3 2.3-2.2.7-1.1 1.1-2.6 1.8-3.9.2-.4.5-.9.7-1.5 2.6-6.9 4.3-14.5 4-21.9z" fill="#d0c38a"/><path d="m62.1 106.8c-1.1-8.5-4.4-17.1-11.4-22.7-.4-.3-.8-.6-1.2-.8-2.2-1.5-4.6-2.7-7-3.6-.1 0-.2 0-.3 0 0 0-.1 0-.1.1-1.1 1.1-1.6 2-2 3.5-.7 2.4-1 4.8-1 7.3 0 5.4 1.8 10.5 3.8 15.4 3.2 7.6 7.4 14.9 8.6 23.2.3 1.8.4 3.7.2 5.6 0 .6.5 1.3.9 1.2.8-.1 1.4-.3 1.8-.6.5-.1.6-1 1.6-1.6.3-.2.6-.6.9-1.1 3.7-8.1 6.3-17.1 5.2-25.9z" fill="#a7a16d"/><path d="m85.1 79.8c-1.4-7.6-4.8-15.1-10.9-20.4-.5-.4-1-.9-1.6-1.3-3-2.4-6.3-4.3-9.7-6-.2-.1-.3-.1-.5 0-.1 0-.1.1-.2.1-1.3 1.1-1.9 1.8-2.4 3.5-.7 2.5-1 5.1-.9 7.7.3 5.7 2.5 11 5.1 16.1 3.5 7.1 7.9 14.1 9.3 22 .3 1.7.5 3.5.5 5.4 0 .6.4 1.2.7 1.4.6.4 1 .8 1.2 1 .3.8-.1.5 1.3.7.3.1.8-.3 1.1-.8 5.1-8.7 8.9-18.9 7-29.4z" fill="#7f804f"/><path d="m108.9 54.3c-1.5-6.9-5.2-13.2-10.3-18.3-.6-.6-1.3-1.2-1.9-1.8-3.7-3.3-7.7-6.3-11.9-8.8-.2-.1-.4-.1-.6-.1-.1 0-.2.1-.2.1-1.5 1.1-2.2 1.6-2.8 3.5-.9 2.7-1.1 5.4-1 8.2.4 6.1 3 11.7 5.9 17 3.7 6.8 8.1 13.5 9.7 21.2.4 1.7.6 3.5.6 5.2 0 .6.2 1.2.3 1.6.3.9.5 1.8.4 2.6-.1 1.7-.9 1.9.6 3 .3.3.9 0 1.2-.4 6.9-9.4 12.5-20.9 10-33z" fill="#565e32"/><path d="m119.3 67.8c9.1-9.5 17.4-22 14.2-35.8-1.4-6.3-5.6-11.7-9.7-16.5-4.8-5.5-10.1-10.4-15.8-14.8-.2-.2-.5-.2-.7-.2-.1 0-.2.1-.3.1-1.8 1-2.5 1.3-3.3 3.3-1 2.8-1.4 5.7-1.3 8.6.3 6.6 3 12.6 6.2 18.2 3.7 6.7 8.2 13.2 9.8 20.7.8 3.6.9 7.3 0 10.9-.7 2.5-1.8 3.1-.4 5.2.2.8.9.7 1.3.3z" fill="#2d3c15"/></g><path d="m53.6 181.9c3.9-8.1 8.4-15.8 13-23.5 2.3-3.8 4.6-7.6 7-11.4 2.3-3.8 4.7-7.6 7.1-11.4 9.6-15.1 19.5-30 29.8-44.7 2.6-3.7 5.2-7.3 7.9-10.9 1.3-1.8 2.6-3.6 4-5.4l4.1-5.4 4.1-5.4 2-2.7 2.1-2.6 8.4-10.5c11.5-13.8 23.5-27.2 36.5-39.7l4.3 4.6c-13 12.1-25 25.1-36.6 38.6l-8.6 10.2-2.1 2.6-2.1 2.6-4.2 5.2-4.2 5.2c-1.4 1.7-2.7 3.5-4.1 5.3-2.7 3.6-5.4 7.1-8.1 10.7-10.6 14.3-20.9 28.9-30.9 43.7-2.5 3.7-5 7.4-7.4 11.2-2.4 3.7-4.9 7.5-7.3 11.2-4.8 7.7-9.6 15.2-14.7 22.5z" fill="#434026"/></g></g><g transform="translate(25 63)"><path d="m298.2 147.8c-.5-1.3-1-2.5-2-3.5-5.3-5.2-17.1 4.2-20.5-2.4 2.7-9.2 5.4-18.3 8.1-27.5.7-2.2 1.3-4.6.6-6.8-.6-2.1-2.3-3.6-4-5.1-12.6-11.2-25.2-22.3-37.9-33.5-1.6-1.5-3.3-2.9-5.3-3.9-5.9-2.8-13.8.4-16.2 6.5-1.5 3.9-.8 8.3-.5 12.5s.1 8.9-2.8 12-9.1 3-10.4-1c-.5-1.5-.2-3.1 0-4.6 1.7-10 2.4-20.1 2.2-30.2-.1-3.2-.2-6.5-1.5-9.5-2.2-5.1-7.4-8.3-12.3-10.9-23.7-12.4-50.6-18.8-77.4-18.3 4.2 8.2 6.2 17.5 5.6 26.7-.1 1.8-.3 3.6-1.2 5.1-2.4 4.2-9 4.3-12.8 1.3s-5.6-7.9-7.1-12.5c-3.8-12.5-7.3-26.4-18.1-33.9-10.2-7-23.6-6-35.9-4.7-16.1 1.7-32.2 3.4-48.3 5.2l1.8 1.4c3.9 17.3 3.9 35.2 7 52.7 3.1 17.4 10 35.3 24.2 45.9 13.4 10 30.9 12 47.5 13.6-10.2 1.9-20.4 3.8-30.6 5.7-1.8.3-3.7.7-4.8 2.1-1.3 1.6-1.2 3.8-.9 5.9 2.6 17.4 13.5 33.5 28.7 42.3 15.3 8.8 34.6 10.3 51 3.9 4.1 2.3-.8 8.3-5.2 10-13.3 5.3-26.6 10.6-39.8 16 8.4 4.9 11.8 15 17.2 23.1 13.2 19.9 42.1 27.6 63.4 16.7 2.1-1.1 4.3-2.3 6.7-2.1 4.5.5 6.4 6.6 4.5 10.7s-6 6.5-10 8.7c16.3 15.6 41.6 20.8 62.7 12.9 17.3-6.5 34.3-21.1 51.8-15l1.9-4.2c5-18.6 13.3-36.2 18.9-54.6 5.8-18.4 8.4-38.7 1.7-56.7z" fill="#000" opacity=".1"/><g transform="translate(5)"><path d="m277.9 257.5c5-18.6 13.3-36.2 18.9-54.6s8.1-38.7 1.4-56.8c-.5-1.3-1-2.5-2-3.5-5.3-5.2-17.1 4.2-20.5-2.4 2.7-9.2 5.4-18.3 8.1-27.5.7-2.2 1.3-4.6.6-6.8-.6-2.1-2.3-3.6-4-5.1-12.6-11.2-25.2-22.3-37.9-33.5-1.6-1.5-3.3-2.9-5.3-3.9-5.9-2.8-13.8.4-16.2 6.5-1.5 3.9-.8 8.3-.5 12.5s.1 8.9-2.8 12-9.1 3-10.4-1c-.5-1.5-.2-3.1 0-4.6 1.7-10 2.4-20.1 2.2-30.2-.1-3.2-.2-6.5-1.5-9.5-2.2-5.1-7.4-8.3-12.3-10.9-23.7-12.4-50.6-18.8-77.4-18.3 4.2 8.2 6.2 17.5 5.6 26.7-.1 1.8-.3 3.6-1.2 5.1-2.4 4.2-9 4.3-12.8 1.3s-5.6-7.9-7.1-12.5c-3.8-12.5-7.3-26.4-18.1-33.9-10.2-7-23.6-6-35.9-4.7-16.1 1.7-32.2 3.4-48.3 5.2l1.8 1.4c3.9 17.3 3.9 35.2 7 52.7s10 35.3 24.2 45.9c13.4 10 30.9 12 47.5 13.6-10.2 1.9-20.4 3.8-30.6 5.7-1.8.3-3.7.7-4.8 2.1-1.3 1.6-1.2 3.8-.9 5.9 2.6 17.4 13.5 33.5 28.7 42.3s34.6 10.3 51 3.9c4.1 2.3-.8 8.3-5.2 10-13.3 5.3-26.6 10.6-39.8 16 8.4 4.9 11.8 15 17.2 23.1 13.2 19.9 42.1 27.6 63.4 16.7 2.1-1.1 4.3-2.3 6.7-2.1 4.5.5 6.4 6.6 4.5 10.7s-6 6.5-10 8.7c16.3 15.6 41.6 20.8 62.7 12.9 17.3-6.5 34.3-21.1 51.8-15z" fill="#ada958"/><path d="m4 9.8c17 11.1 24.3 31.8 31.4 50.8s16.5 39.4 35 47.6c5.6 2.5 11.8 3.7 16.7 7.3s8 11 4.4 15.9c-3 4.1-8.7 4.5-13.6 5.6s-10.5 4.5-9.8 9.5c.3 2.1 1.8 3.9 3.2 5.5 12.3 13.3 29.2 22.2 47.1 24.8 5.2.8 11.1 1.3 14.4 5.4 5 6.2.1 15.8-6.7 20s-15.1 5.5-21.6 9.9c12.9 14.5 31.7 23.5 51 24.6 9.4.5 22.2 1.8 23.3 11.2.3 2.8-.7 5.6-.1 8.3 1 4.8 6.4 7.3 11.2 8.1 28.3 4.7 58.3-22.5 83.6-8.9-2.9-14.1 6.4-27.4 12.1-40.7 7.9-18.7 8.8-40.3 2.4-59.5-9.8 2.4-18.8-7.2-21.4-17-2.7-9.8-1.6-20.3-4.7-29.9-3.9-12.3-14.7-22-27.3-24.6-1.1-.2-2.3-.4-3.4-.1-1.7.5-2.8 2.1-3.8 3.6-3.3 5-7.5 10.3-13.5 11.1-7.5 1-14-5.8-16.6-12.9-2.7-7.1-3.1-15-6.3-21.9-7.4-16.1-27-21.8-44.3-25.7-2-.5-4.2-.9-6 .1-2.4 1.4-2.8 4.6-3.6 7.2-2.8 9.9-14.6 16.3-24.4 13-8.7-2.9-14.1-11.3-20.9-17.4-8.6-7.7-19.8-11.9-30.8-15.5-16.9-5.7-34.1-10.7-51.4-15z" fill="#70774e"/><path d="m259.6 174.6c-1.5 5.7-2.5 11.5-3.1 17.3-.6 5.9-.8 11.8-.5 17.7.1 1.5.2 3 .3 4.4.1 1.5.3 3 .4 4.4 0 .3.1.6.1.8-1.9-2.4-3.8-4.8-5.8-7-4.8-5.6-9.8-10.8-14.8-16s-10.1-10.3-15.3-15.4c-5.6-5.5-11.3-11-17-16.4-1-4-1.6-8.2-1.7-12.4-.2-4.4.1-8.9.7-13.3 1.1-8.9 3.3-17.8 5.5-26.6-3.1 8.5-6.3 17.1-8.4 26.1-1 4.5-1.8 9.1-2.1 13.7-.2 2.2-.2 4.4-.1 6.7-2.7-2.6-5.5-5.1-8.3-7.6-10.7-9.7-21.6-19.2-32.6-28.5-5.4-4.6-10.9-9.1-16.4-13.6-.7-.7-1.4-1.4-2-2-1.4-1.5-2.7-3-4-4.5-2.5-3.2-4.8-6.6-6.8-10.1-4.1-7.1-7.3-14.8-10.5-22.5 2.3 8 4.6 16 7.9 23.8.7 1.6 1.4 3.2 2.2 4.8-1.3-1.1-2.6-2.1-4-3.2-11.3-8.9-22.7-17.8-34.2-26.5l-8.6-6.5-8.6-6.5c-5.8-4.3-11.5-8.6-17.3-12.9l-8.7-6.4-8.7-6.4c-5.8-4.2-11.7-8.4-17.6-12.6 5.4 4.8 10.9 9.5 16.4 14.1l8.2 7 8.3 6.9c5.5 4.6 11.1 9.2 16.6 13.8l8.3 6.9 8.4 6.8c11.1 9.2 22.3 18.2 33.4 27.4 9.3 7.6 18.5 15.3 27.6 23-13.4-3.3-27-5.7-40.6-7.3 17.3 3.8 34.2 9.1 50.5 15.8 3.9 3.4 7.9 6.8 11.8 10.3s7.8 7 11.7 10.5c-2.1.1-4.1.4-6.1.8-4.5 1-8.6 2.6-12.6 4.4-8 3.6-15.6 7.9-22.7 12.8 7.6-4.1 15.6-7.5 23.8-10.1 4.1-1.3 8.2-2.4 12.3-2.8s8.1-.2 11.8 1.1c.1 0 .2.1.3.1h.2c9.7 8.9 19.4 18 28.8 27.2 5.2 5 10.3 10 15.3 15.1 4.7 4.7 9.4 9.5 13.8 14.4-2.9-.2-5.9-.1-8.8.2-5.9.6-11.6 2-17 4s-10.6 4.5-15.6 7.2-9.9 5.7-14.7 8.6c5.1-2.5 10.2-5.1 15.4-7.3 5.2-2.3 10.5-4.3 15.9-5.7 5.4-1.5 10.9-2.3 16.4-2.4 4.8-.1 9.5.4 14 1.7 3.1 3.7 6 7.4 8.7 11.4.5.7 1 1.4 1.5 2.2l1.4 2.2 1.4 2.2.7 1.1.6 1.1 1.3 2.3 1.2 2.3.6 1.2.5 1.2 1.1 2.4v.1c.6 1.4 2.3 2 3.7 1.5 1.5-.6 2.2-2.3 1.6-3.7-2.7-6.9-6.2-13.5-10.3-19.7l-1.5-2.3-.6-.9c.2-1.5.3-2.9.2-4.2-.1-1.6-.4-3.2-.7-4.6-.3-1.5-.5-2.8-.8-4.2s-.4-2.8-.7-4.2c-.8-5.7-1.1-11.4-1-17.1s.6-11.5 1.6-17.2 2.4-11.3 4.2-16.9c-2.5 5.3-4.4 10.8-5.8 16.5z" fill="#5b5a40"/></g></g><g transform="translate(0 235)"><path d="m345.1 121.1c-9.7-4.7-19.5-9-29.4-13.1 4-5.8 7.6-11.9 10.7-18.3 3.6-7.5 7-15.6 6.7-24.1-.4-9-4.2-16.6-9.7-23.1s-12.7-11.7-19.9-16c-.6-.3-1.4-.2-1.7.5-1 3.1.6 3.4 2.3 6.3 2.5 4.3 3.6 9.3 3.8 14.3.3 9.5-2.8 18.7-5.1 27.9-2 8-3.2 16.3-1.4 24.5.2.9.4 1.7.7 2.6-6.8-2.6-13.6-5.1-20.5-7.6l-12.6-4.2c3.5-3.9 6.8-8.2 9.8-13 .3-.4.5-.9.6-1.4.3-1 .6-2 .8-3 0-.1.1-.3.1-.5 1.3-7.2 2.3-14.8.4-22.1-1.7-6.6-5.3-12.1-9.8-16.9-1.6-1.7-3.4-3.4-5.2-4.9-3.4-2.9-7.1-5.5-11.1-7.7-3-1.7-6-3.3-9.1-4.7-1.2-.5-2.3-1-3.4-1.4-.7-.2-1.6-.1-1.9.6-.5 1.1-.4 2.1.1 2.7.6.9 1.6 1.6 2.7 2.9 3 3.7 4.9 8.2 6 12.7 1 4.2 1.3 8.4 1.3 12.5 0 4.6-.3 9.2-.4 13.8-.2 5.5 0 11.1 1.2 16.6.5 2.2 1.1 4.3 2 6.4.4.9.8 1.8 1.2 2.7l-5.4-1.7-8.2-2.5c-2.7-.8-5.5-1.6-8.2-2.3-3.6-1-7.1-2-10.7-3 3.5-2.6 7-5.6 10.1-9.5.3-.3.5-.9.6-1.4.1-1.1.2-2.1.4-3.2 0-.2 0-.3 0-.5-.4-7.6-1-15.5-4.4-22.6-3.1-6.5-8-11.5-13.6-15.8-2-1.5-4.1-3-6.3-4.4-4.1-2.5-8.4-4.7-12.8-6.6-3.4-1.4-6.8-2.7-10.3-3.8-1.4-.4-2.6-.8-3.8-1-.7-.1-1.6.1-2 .7-.6.9-.4 2 .2 2.5.8.7 1.9 1.3 3 2.4 3.4 3.2 6 7 7.9 11 1.7 3.7 2.9 7.5 3.8 11.4 1 4.2 1.7 8.6 2.6 12.8 1 5.1 2.2 10.3 4.3 15.3.8 2 1.8 3.9 2.9 5.8.6.9 1.2 1.8 1.8 2.6-10-2.6-20.1-5-30.2-7.4 4-1.6 8-3.6 11.7-6.9.3-.3.6-.9.6-1.3 0-1.1-.1-2.3-.1-3.4 0-.2 0-.3 0-.5-2.1-7.7-4.3-15.8-9.1-22.5-4.4-6.2-10.6-10.6-17.2-14.3-2.4-1.3-4.8-2.5-7.3-3.7-4.7-2.1-9.5-3.9-14.5-5.4-3.8-1.1-7.6-2.1-11.4-2.8-1.6-.3-2.8-.5-4.1-.6-.8 0-1.7.2-2.2.8-.7.7-.5 1.9.3 2.3 1 .6 2.1 1.1 3.3 1.9 3.8 2.6 6.9 5.7 9.5 9.1 2.4 3.1 4.3 6.5 6 9.9 1.9 3.8 3.5 7.7 5.3 11.5 2.1 4.6 4.3 9.3 7.2 13.7 1.1 1.7 2.4 3.4 3.7 5 1.1 1.3 2.4 2.6 3.7 3.8-3.9-.9-7.8-1.7-11.7-2.6-5.6-1.2-11.1-2.4-16.7-3.5-.9-.2-1.9-.4-2.8-.6 3.5-.7 6.9-1.9 10.3-3.9.4-.2.6-.8.5-1.3-.2-1.2-.4-2.4-.6-3.5 0-.2 0-.3-.1-.5-3.7-7.8-7.4-15.8-13.5-22.1-5.7-5.9-13-9.5-20.6-12.5-2.7-1.1-5.5-2.1-8.3-3-5.2-1.7-10.6-3.1-16-4.1-4.1-.8-8.2-1.4-12.4-1.8-1.8-.2-3.1-.3-4.4-.1-.8.1-1.7.3-2.4.9-.7.5-.6 1.9.3 2.2 1.1.4 2.2.8 3.4 1.4 4.1 1.9 7.6 4.4 10.8 7.1 2.9 2.6 5.6 5.4 8 8.3 2.7 3.2 5.2 6.6 7.8 10 3 4 6.2 8 9.7 11.8 1.4 1.5 2.9 2.9 4.5 4.3 1.4 1.2 2.9 2.3 4.4 3.3-8.2-1.5-16.5-2.9-24.9-3.8 1.4-.3 2.8-.8 4.1-1.4.4-.2.7-.8.5-1.2-.3-1.2-.7-2.4-1-3.6 0-.2-.1-.4-.2-.5-5.2-7.7-10.5-15.5-17.8-21.3-6.9-5.4-15.3-8.3-23.7-10.6-8.7-2.4-17.5-4.1-26.4-5-4.4-.5-8.8-.8-13.3-.8-3.1-.1-4.7 0-7.4 1.3-.8.4-.7 1.8.2 2 9.8 2.2 17.8 7 25.2 12.7s14.4 12.3 22.1 18c5.9 4.4 12.7 8.1 19.9 10.1 5.4 1.4 10.9 1.9 16.4.8 2.1.5 4.3 1.1 6.4 1.6-8.3.3-16.3 3.2-23.3 7.8-11.9 7.8-21.3 18.5-35.9 21.2-.9.2-1.3 1.5-.4 2 4.6 2.6 11.3 1.4 16.4 1 7.7-.6 15.4-1.9 22.9-3.9 12.7-3.6 24.4-13.2 28.2-26.2l15.9 3.6c5.6 1.2 11.1 2.5 16.6 3.8.6.1 1.2.3 1.8.4-2.1.2-4.1.6-6.1 1.2-6.2 1.8-11.8 5.3-16.8 9.4-8.6 6.9-16.1 15.2-26 19.9-2.2 1-4.5 1.9-6.9 2.5-.8.2-1.3 1.3-.8 1.8 1.1.9 2.3 1.4 3.7 1.7 1.6.3 3.6.1 5.5.5.6.1 1.3.2 2.1.2 9.4 0 19.2-1.3 27.9-4.9 11.1-4.6 21.3-13.1 24.9-25 .1-.3.2-.7.2-1 .3-1.5.3-3 .2-4.4 2.3.6 4.6 1.1 6.9 1.7 9.1 2.2 18.2 4.5 27.3 6.9-2.4.3-4.7.9-7 1.7-6.4 2.4-11.7 6.7-16.7 11.4-7.7 7.2-14.6 15.5-23.9 20.5-2 1.1-4.2 2-6.5 2.7-.8.2-1.3 1.2-1.1 1.6.4.9.9 1.5 1.5 1.9.4.6 1.4.2 2.6 1.2.3.3 1 .5 1.8.5 11.2 1 23 0 33.1-5.2 9.7-5 18.5-12.8 22.1-23.6.2-.6.3-1.2.5-1.7.8-3.1 1.1-6.1 1.2-9.1 10.4 2.8 20.7 5.7 31 8.7 1 .3 2.1.6 3.1.9-2.6.4-5.1 1.1-7.5 2.1-6.7 2.9-12 7.9-17 13.1-7 7.4-13.4 15.6-22.2 20.8-1.9 1.2-4 2.2-6.2 2.9-.7.3-1.3 1-1.4 1.4-.2.9-.5 1.5-.6 1.9-.9.7-.7.1-.3 1.8.1.4.7.8 1.4.9 12.8 2.3 26.8 2.3 38.4-4.5 8.5-5 15.9-12.4 19.5-22s0 0 0-.1c.3-.8.6-1.6.8-2.4 1.4-4.5 2.3-9.1 2.8-13.6 1.8.6 3.6 1.1 5.5 1.7 2.7.8 5.4 1.6 8.1 2.5l8.1 2.7 8.1 2.7 4 1.3.2.1c-2.9.3-5.7 1.1-8.3 2.3-7.1 3.2-12.6 8.7-17.7 14.5-6.5 7.4-12.5 15.6-21 21-1.9 1.2-3.9 2.2-6 3-.7.3-1.4.8-1.8 1.1-.9.8-1.9 1.3-2.9 1.6-2.1.7-2.6-.2-3.4 2.1-.2.5.4 1.1 1 1.3 14.2 4.2 30.5 5.9 43.8-2.5 7.6-4.8 13.5-12 17.3-20.4s0 0 0-.1c.4-1 .9-2 1.3-3.1 2.3-5.9 4.1-11.9 5.3-18.1l12.2 4.3c7.7 2.9 15.4 5.9 23 9-.4-.1-.9-.1-1.4-.1-3.7 0-7.4.8-10.9 2.3-7.7 3.2-13.7 9.2-19.1 15.4-6.3 7.4-12.1 15.6-20.4 20.9-3.9 2.5-8.3 4.3-13 4.8-3.3.3-4.5-.8-6.5 1.8-.5.6-.1 1.4.5 1.7 15.3 6.7 34 11.1 49 1.3 6.9-4.5 11.5-11.8 15.4-18.9 4.4-8.1 8-16.6 10.7-25.4.1-.4 0-.7-.1-1-.1-.1-.2-.2-.3-.3-.7-.6-1.2-1-1.7-1.4 12.5 5.2 24.9 10.7 36.9 16.8z" fill="#000" opacity=".1"/><g transform="translate(5)"><path d="m1.8 4.8c9.8 2.2 17.8 7 25.2 12.7s14.4 12.3 22.1 18c5.9 4.4 12.7 8.1 19.9 10.1s14.6 2 21.8-.9c.4-.2.7-.8.5-1.2-.3-1.2-.7-2.4-1-3.6 0-.2-.1-.4-.2-.5-5.2-7.7-10.5-15.5-17.8-21.3-6.9-5.4-15.3-8.3-23.7-10.6-8.7-2.4-17.5-4.1-26.4-5-4.4-.5-8.8-.8-13.3-.8-3.1-.1-4.7 0-7.4 1.3-.8.2-.6 1.6.3 1.8z" fill="#f9e5a7"/><path d="m140.9 48.2c-.2-1.2-.4-2.4-.6-3.5 0-.2 0-.3-.1-.5-3.7-7.8-7.4-15.8-13.5-22.1-5.7-5.9-13-9.5-20.6-12.5-2.7-1.1-5.5-2.1-8.3-3-5.2-1.7-10.6-3.1-16-4.1-4.1-.8-8.2-1.4-12.4-1.8-1.8-.2-3.1-.3-4.4-.1-.8.1-1.7.3-2.4.9-.7.5-.6 1.9.3 2.2 1.1.4 2.2.8 3.4 1.4 4.1 1.9 7.6 4.4 10.8 7.1 2.9 2.6 5.6 5.4 8 8.3 2.7 3.2 5.2 6.6 7.8 10 3 4 6.2 8 9.7 11.8 1.4 1.5 2.9 2.9 4.5 4.3 2.5 2.1 5.2 4.1 8.2 5.7 1.7.9 3.2 1.5 5.1 1.9.1 0 .2.1.4.1s.5.1.7.1c6.3-.1 12.7-.9 18.9-4.7.3-.4.5-1 .5-1.5z" fill="#d0c38a"/><path d="m188.3 55.2c0-1.1-.1-2.3-.1-3.4 0-.2 0-.3 0-.5-2.1-7.7-4.3-15.8-9.1-22.5-4.4-6.2-10.6-10.6-17.2-14.3-2.4-1.3-4.8-2.5-7.3-3.7-4.7-2.1-9.5-3.9-14.5-5.4-3.8-1.1-7.6-2.1-11.4-2.8-1.6-.3-2.8-.5-4.1-.6-.8 0-1.7.2-2.2.8-.7.7-.5 1.9.3 2.3 1 .6 2.1 1.1 3.3 1.9 3.8 2.6 6.9 5.7 9.5 9.1 2.4 3.1 4.3 6.5 6 9.9 1.9 3.8 3.5 7.7 5.3 11.5 2.1 4.6 4.3 9.3 7.2 13.7 1.1 1.7 2.4 3.4 3.7 5 2.2 2.6 4.7 4.9 7.5 6.8 1.8 1.2 3.1 1.7 5.2 2.1.1 0 .3 0 .4.1.3 0 .5 0 .7-.1 5.4-1.9 11.2-4 16.4-8.7.2-.2.4-.8.4-1.2z" fill="#a7a16d"/><path d="m232.6 64.2c.1-1.1.2-2.1.4-3.2 0-.2 0-.3 0-.5-.4-7.6-1-15.5-4.4-22.6-3.1-6.5-8-11.5-13.6-15.8-2-1.5-4.1-3-6.3-4.4-4.1-2.5-8.4-4.7-12.8-6.6-3.4-1.4-6.8-2.7-10.3-3.8-1.4-.4-2.6-.8-3.8-1-.7-.1-1.6.1-2 .7-.6.9-.4 2 .2 2.5.8.7 1.9 1.3 3 2.4 3.4 3.2 6 7 7.9 11 1.7 3.7 2.9 7.5 3.8 11.4 1 4.2 1.7 8.6 2.6 12.8 1 5.1 2.2 10.3 4.3 15.3.8 2 1.8 3.9 2.9 5.8 1.8 2.9 4 5.7 6.7 8 1.8 1.5 3 1.9 5.2 2.4h.4c.3 0 .5-.1.7-.2 4.9-3.5 10.1-7.3 14.6-12.8.2-.4.4-.9.5-1.4z" fill="#7f804f"/><path d="m279.4 74.8c.3-1 .6-2 .8-3 0-.1.1-.3.1-.5 1.3-7.2 2.3-14.8.4-22.1-1.7-6.6-5.3-12.1-9.8-16.9-1.6-1.7-3.4-3.4-5.2-4.9-3.4-2.9-7.1-5.5-11.1-7.7-3-1.7-6-3.3-9.1-4.7-1.2-.5-2.3-1-3.4-1.4-.7-.2-1.6-.1-1.9.6-.5 1.1-.4 2.1.1 2.7.6.9 1.6 1.6 2.7 2.9 3 3.7 4.9 8.2 6 12.7 1 4.2 1.3 8.4 1.3 12.5 0 4.6-.3 9.2-.4 13.8-.2 5.5 0 11.1 1.2 16.6.5 2.2 1.1 4.3 2 6.4 1.3 3.3 3.2 6.5 5.7 9.1 1.7 1.9 2.8 2.1 5.2 2.6h.4c.3 0 .6-.1.8-.3 4.8-5.1 9.5-10.6 13.6-17.1.2-.3.5-.8.6-1.3z" fill="#565e32"/><path d="m302.8 73.8c-2 8-3.2 16.3-1.4 24.5.8 3.6 2.3 7.1 4.5 10.2 1.6 2.2 2.6 2.3 5.1 3h.4c.3 0 .6-.1.9-.4 5.4-7.2 10.2-14.9 14.1-23 3.6-7.5 7-15.6 6.7-24.1-.4-9-4.2-16.6-9.7-23.1s-12.7-11.7-19.9-16c-.6-.3-1.4-.2-1.7.5-1 3.1.6 3.4 2.3 6.3 2.5 4.3 3.6 9.3 3.8 14.3.3 9.5-2.9 18.7-5.1 27.8z" fill="#2d3c15"/><g transform="translate(31 47)"><path d="m1.2 31.9c4.6 2.6 11.3 1.4 16.4 1 7.7-.6 15.4-1.9 22.9-3.9 12.7-3.6 24.4-13.2 28.2-26.2 0-.1 0-.2 0-.3 0-.6-.3-1.1-1-1.2-10.6-1.6-21.3 1.5-30.2 7.4-11.9 7.8-21.3 18.5-35.9 21.2-.8.1-1.3 1.5-.4 2z" fill="#f9e5a7"/><path d="m85.5 42.7c11.1-4.6 21.3-13.1 24.9-25 .1-.3.2-.7.2-1 .4-2 .3-3.9 0-5.6 0-.1-.1-.1-.1-.2 0 0-.1 0-.1-.1-1.7-.6-3.1-.7-4.8-.6-3 .1-5.9.6-8.7 1.4-6.2 1.8-11.8 5.3-16.8 9.4-8.6 6.9-16.1 15.2-26 19.9-2.2 1-4.5 1.9-6.9 2.5-.8.2-1.3 1.3-.8 1.8 1.1.9 2.3 1.4 3.7 1.7 1.6.3 3.6.1 5.5.5.6.1 1.3.2 2.1.2 9.3 0 19.1-1.3 27.8-4.9z" fill="#d0c38a"/><path d="m128.9 57.3c9.7-5 18.5-12.8 22.1-23.6.2-.6.3-1.2.5-1.7.9-3.3 1.2-6.7 1.2-9.9 0-.2-.1-.3-.2-.4 0 0-.1-.1-.1-.1-1.8-.8-3.1-1-5.1-.9-3.2.2-6.2.9-9.1 2-6.4 2.4-11.7 6.7-16.7 11.4-7.7 7.2-14.6 15.5-23.9 20.5-2 1.1-4.2 2-6.5 2.7-.8.2-1.3 1.2-1.1 1.6.4.9.9 1.5 1.5 1.9.4.6 1.4.2 2.6 1.2.3.3 1 .5 1.8.5 11 1 22.9 0 33-5.2z" fill="#a7a16d"/><path d="m171.2 73c8.5-5 15.9-12.4 19.5-22s0 0 0-.1c.3-.8.6-1.6.8-2.4 1.5-4.7 2.4-9.5 2.9-14.2 0-.2-.1-.4-.2-.6-.1-.1-.1-.1-.2-.2-1.9-1-3-1.4-5.3-1.3-3.3.2-6.6 1-9.6 2.3-6.7 2.9-12 7.9-17 13.1-7 7.4-13.4 15.6-22.2 20.8-1.9 1.2-4 2.2-6.2 2.9-.7.3-1.3 1-1.4 1.4-.2.9-.5 1.5-.6 1.9-.9.7-.7.1-.3 1.8.1.4.7.8 1.4.9 12.8 2.5 26.8 2.5 38.4-4.3z" fill="#7f804f"/><path d="m212.2 90.1c7.6-4.8 13.5-12 17.3-20.4s0 0 0-.1c.4-1 .9-2 1.3-3.1 2.4-5.9 4.1-12 5.3-18.2.1-.3 0-.6-.2-.8-.1-.1-.1-.2-.2-.2-2-1.3-2.9-1.9-5.4-1.8-3.5.1-7 1-10.2 2.5-7.1 3.2-12.6 8.7-17.7 14.5-6.5 7.4-12.5 15.6-21 21-1.9 1.2-3.9 2.2-6 3-.7.3-1.4.8-1.8 1.1-.9.8-1.9 1.3-2.9 1.6-2.1.7-2.6-.2-3.4 2.1-.2.5.4 1.1 1 1.3 14.3 4.2 30.6 5.9 43.9-2.5z" fill="#565e32"/><path d="m200.6 108.5c15.3 6.7 34 11.1 49 1.3 6.9-4.5 11.5-11.8 15.4-18.9 4.4-8.1 8-16.6 10.7-25.4.1-.4 0-.7-.1-1-.1-.1-.2-.2-.3-.3-2-1.7-2.7-2.4-5.4-2.4-3.7 0-7.4.8-10.9 2.3-7.7 3.2-13.7 9.2-19.1 15.4-6.3 7.4-12.1 15.6-20.4 20.9-3.9 2.5-8.3 4.3-13 4.8-3.3.3-4.5-.8-6.5 1.8-.4.5-.1 1.2.6 1.5z" fill="#2d3c15"/></g><path d="m82.3 45.5c11.4 1.1 22.6 3 33.8 5.2 5.6 1.1 11.2 2.2 16.8 3.3s11.2 2.3 16.7 3.5c22.3 4.8 44.4 10.1 66.5 15.9 5.5 1.5 11 3.1 16.5 4.6 2.7.8 5.5 1.5 8.2 2.3l8.2 2.5 8.2 2.5 4.1 1.2 4.1 1.3 16.3 5.4c21.6 7.6 42.8 16.1 63.5 26.1l-3.6 7.2c-20.1-10.2-41-18.8-62.2-26.8l-16-5.7-4-1.4-4-1.3-8.1-2.7-8.3-2.6c-2.7-.9-5.4-1.7-8.1-2.5-5.4-1.6-10.8-3.4-16.3-4.9-21.8-6.4-43.7-12.3-65.8-17.7-5.5-1.3-11-2.7-16.6-3.9-5.5-1.3-11.1-2.6-16.6-3.8-11.1-2.4-22.2-4.9-33.3-7.7z" fill="#434026"/></g></g><g transform="translate(79 299)"><path d="m261.1 76.8c-7.5-11.3-12.8-23.9-19.9-35.5-7.1-11.5-16.6-22.4-29.2-27.3-.9-.3-1.8-.7-2.7-.6-5.2.4-5.8 10.9-10.8 9.7-3.6-5.7-7.1-11.4-10.7-17.1-.9-1.4-1.8-2.8-3.3-3.5-1.4-.6-3-.5-4.5-.3-11.8 1.4-23.5 2.8-35.3 4.2-1.5.2-3.1.4-4.5 1-4.2 1.8-6.3 7.5-4.2 11.5 1.4 2.6 4 4.3 6.4 6.1s4.7 4.1 5 7.1-2.7 6.2-5.4 5c-1-.4-1.7-1.3-2.4-2.2-4.5-5.5-9.4-10.6-14.8-15.3-1.7-1.5-3.5-2.9-5.7-3.6-3.7-1.2-7.8 0-11.5 1.4-17.6 6.7-33.5 17.9-45.8 32.1 6.3 1.6 12.1 5 16.7 9.6.9.9 1.7 1.8 2.1 3 1.1 3.2-1.9 6.7-5.3 7.3s-6.8-.7-9.9-2.1c-8.4-3.8-17.3-8.5-26.2-6.3-8.4 2-14.2 9.6-19.3 16.7-6.6 9.3-13.2 18.5-19.8 27.8l1.6-.3c10.9 6 20.3 14.4 31 20.9s23.2 11.2 35.4 8.7c11.5-2.4 20.7-10.6 29.4-18.6-3.8 6.3-7.5 12.5-11.3 18.8-.7 1.1-1.3 2.3-1.1 3.5.2 1.4 1.5 2.4 2.7 3.2 10.4 6.8 23.9 8.6 35.7 4.7s21.6-13.4 25.8-25c3.2-1.1 4 4.3 2.9 7.4-3.4 9.5-6.8 18.9-10.2 28.4 6.5-2.1 13.4.8 20.2 1.8 16.6 2.4 34.1-9.2 38.4-25.5.4-1.6.8-3.4 2-4.5 2.4-2.1 6.4-.3 7.7 2.6s.6 6.2-.1 9.3c15.8-1.3 30.4-12.2 36.1-26.9 4.7-12.1 5-27.9 16.3-34.2z" fill="#000" opacity=".1"/><g transform="translate(7)"><path d="m261.1 75.1c-7.5-11.3-12.8-23.9-19.9-35.5-7.1-11.5-16.6-22.4-29.2-27.3-.9-.3-1.8-.7-2.7-.6-5.2.4-5.8 10.9-10.8 9.7-3.6-5.7-7.1-11.4-10.7-17.1-.9-1.4-1.8-2.8-3.3-3.5-1.4-.6-3-.5-4.5-.3-11.8 1.4-23.5 2.8-35.3 4.2-1.5.2-3.1.4-4.5 1-4.2 1.8-6.3 7.5-4.2 11.5 1.4 2.6 4 4.3 6.4 6.1s4.7 4.1 5 7.1-2.7 6.2-5.4 5c-1-.4-1.7-1.3-2.4-2.2-4.5-5.5-9.4-10.6-14.8-15.3-1.7-1.5-3.5-2.9-5.7-3.6-3.7-1.2-7.8 0-11.5 1.4-17.6 6.7-33.5 17.9-45.8 32.1 6.3 1.6 12.1 5 16.7 9.6.9.9 1.7 1.8 2.1 3 1.1 3.2-1.9 6.7-5.3 7.3s-6.8-.7-9.9-2.1c-8.4-3.8-17.3-8.5-26.2-6.3-8.4 2-14.2 9.6-19.3 16.7-6.6 9.3-13.2 18.5-19.8 27.8l1.6-.3c10.9 6 20.3 14.4 31 20.9 10.6 6.5 23.2 11.2 35.4 8.7 11.5-2.4 20.7-10.6 29.4-18.6-3.8 6.3-7.5 12.5-11.3 18.8-.7 1.1-1.3 2.3-1.1 3.5.2 1.4 1.5 2.4 2.7 3.2 10.4 6.8 23.9 8.6 35.7 4.7s21.6-13.4 25.8-25c3.2-1.1 4 4.3 2.9 7.4-3.4 9.5-6.8 18.9-10.2 28.4 6.5-2.1 13.4.8 20.2 1.8 16.6 2.4 34.1-9.2 38.4-25.5.4-1.6.8-3.4 2-4.5 2.4-2.1 6.4-.3 7.7 2.6s.6 6.2-.1 9.3c15.8-1.3 30.4-12.2 36.1-26.9 4.7-12.1 5-27.9 16.3-34.2z" fill="#ada958"/><path d="m2.9 103.4c13.7-3.7 28.1 2 41.4 7.2s28.4 9.7 41.4 3.8c3.9-1.8 7.5-4.5 11.7-5.4s9.5.9 10.4 5.1c.8 3.5-1.7 6.7-3.4 9.8s-2.5 7.7.4 9.6c1.3.8 2.9.9 4.4.9 12.7-.2 25.3-5 35-13.2 2.8-2.4 5.9-5.2 9.6-5.1 5.6.3 8.4 7.3 7.4 12.8s-4.2 10.5-4.9 16c13.6 0 27.2-5.7 36.8-15.3 4.7-4.7 11.3-10.8 16.8-7 1.6 1.1 2.6 3 4.3 3.9 3 1.7 6.8.1 9.5-2.1 15.7-12.7 15.4-41.2 34.4-48.1-8.8-5.1-11.4-16.2-15.8-25.3-6.1-12.9-17-23.4-30.2-29.1-3.3 6.3-12.6 6.5-19 3.3s-11.4-8.6-17.9-11.5c-8.3-3.7-18.5-2.6-25.7 2.8-.6.5-1.3 1-1.6 1.8-.5 1.1-.2 2.5.1 3.7 1.1 4.1 1.9 8.8-.5 12.3-3 4.4-9.6 4.6-14.6 2.7s-9.3-5.4-14.4-6.9c-11.9-3.6-24.1 4-34.2 11.2-1.2.8-2.4 1.8-2.7 3.2-.4 1.9 1.1 3.6 2.1 5.3 3.9 6.1 1.7 15.3-4.6 18.9-5.6 3.2-12.5 2.1-18.9 2.8-8.1.9-15.5 4.9-22.5 8.9-10.9 6.3-21.5 12.9-31.9 20z" fill="#70774e"/><path d="m209 46c2.3 3.4 4.9 6.7 7.7 9.7s5.8 5.9 9.1 8.5c.8.6 1.6 1.3 2.5 1.9.8.6 1.7 1.2 2.5 1.8.2.1.3.2.5.3-2.1-.1-4.3-.2-6.4-.2-5.1-.1-10.3.1-15.3.3-5.1.2-10.1.5-15.2.8-5.5.4-11 .8-16.5 1.3-2.6-1.3-5.1-3-7.4-4.9-2.4-2-4.6-4.2-6.7-6.6-4.2-4.7-7.8-10-11.4-15.3 3 5.6 6.1 11.3 9.8 16.6 1.9 2.6 3.9 5.2 6.2 7.5 1.1 1.1 2.2 2.2 3.4 3.2-2.6.2-5.2.5-7.9.8-10.1 1.1-20.2 2.3-30.2 3.8-4.9.7-9.9 1.5-14.8 2.3-.7 0-1.4.1-2 .1-1.4.1-2.8 0-4.2 0-2.8-.2-5.7-.6-8.5-1.2-5.6-1.2-11.2-3.1-16.7-5 5.3 2.5 10.6 5.1 16.2 7 1.2.4 2.3.8 3.5 1.1-1.2.2-2.4.4-3.5.6-10 1.8-20 3.6-29.9 5.6l-7.5 1.5-7.4 1.5c-5 1-9.9 2-14.9 3.1l-7.4 1.6-7.4 1.6c-4.9 1.1-9.9 2.2-14.8 3.4 5-.6 10.1-1.3 15.1-2l7.5-1.1 7.5-1.1c5-.7 10-1.5 15-2.3l7.5-1.2 7.5-1.2 30-4.8c8.3-1.3 16.7-2.6 25-3.7-8 5.5-15.6 11.5-22.8 17.9 10.1-7.3 20.8-13.7 31.9-19.2 3.6-.5 7.3-1 10.9-1.4s7.3-.8 10.9-1.2c-.9 1.1-1.7 2.3-2.4 3.6-1.6 2.8-2.7 5.7-3.6 8.7-1.8 5.9-3.2 11.9-3.9 17.9 1.4-5.9 3.4-11.7 5.8-17.2 1.2-2.7 2.6-5.4 4.3-7.8s3.7-4.4 6.1-5.7c.1 0 .1-.1.2-.1 0 0 .1 0 .1-.1 9.2-.9 18.5-1.8 27.8-2.4 5-.4 10.1-.7 15.1-1 4.7-.3 9.4-.5 14-.5-1.5 1.5-2.8 3.1-4 4.7-2.4 3.4-4.3 7-5.8 10.8s-2.6 7.7-3.5 11.6-1.6 7.8-2.4 11.8c1.1-3.9 2.1-7.7 3.3-11.5s2.7-7.5 4.4-11c1.8-3.5 3.9-6.8 6.4-9.8 2.2-2.5 4.7-4.8 7.4-6.5 3.4.1 6.7.3 10 .7.6.1 1.2.1 1.8.2l1.8.3 1.8.3.9.2.9.2 1.8.4 1.8.5.9.2.9.3 1.8.5h.1c1 .3 2.1-.2 2.5-1.2.4-1.1-.2-2.2-1.2-2.6-4.9-1.8-10-3.1-15.1-3.8l-1.9-.3-.8-.1c-.7-.8-1.4-1.5-2.1-2.1-.9-.7-1.8-1.3-2.7-1.8s-1.7-1-2.6-1.6c-.9-.5-1.7-1.1-2.5-1.6-3.3-2.2-6.5-4.8-9.5-7.5s-5.8-5.7-8.3-8.9-4.9-6.5-6.9-10.1c1.5 3.9 3.6 7.5 5.9 10.9z" fill="#5b5a40"/></g></g></g></svg>