<svg enable-background="new 0 0 606.5 552.1" viewBox="0 0 606.5 552.1" xmlns="http://www.w3.org/2000/svg"><path d="m599.7 453.5c-.2-.3-.7-.4-1-.6-1.9-.5-3.9-.8-5.9-.9l-.7.7c-1.9-2.1-4-3.9-6.2-5.6-1.1-.8-2.2-1.6-3.3-2.3-2.1-1.4-4.4-2.6-6.6-3.6-1.2-.6-2.4-1.1-3.7-1.6-1.8-.7-3.6-1.4-5.5-1.9-7.6-2.3-15.4-3.6-23.3-4.5-2-.2-4-.4-6-.6-2.6-.3-5.3-.5-7.7.6-43.4-12.3-89-10-133.6-7.6-3.3.2-3 5.3.3 5.1 43.3-2.3 87.5-4.5 129.8 6.9-.1.7 0 1.4.3 2.1.2.5.5.9.9 1.3l.2.2c.6.6 1.4 1 2.1 1.5l1.8.9c.2.1.3.2.5.2 2.2 1 4.4 1.8 6.7 2.7 2.7 1 5.4 2 8 3.3 3 1.5 5.8 3.4 8.6 5.3 1.2.8 2.4 1.6 3.6 2.4.1 0 .1.1.2.1 6.1 3.8 12.9 6.6 19.9 8.3 4.4 1.1 10.1 1.2 12.5-2.7l.6-1.1c1.2 1.3 2.5 2.6 3.8 3.9.3.3.7.6 1.1.5s.6-.6.7-1.1c.8-3.3 1.6-6.7 2.3-10-.2-.7 0-1.4-.4-1.9z" opacity=".1"/><path d="m525.9 437.1c-43.5-13-89.5-10.7-134.2-8.3-3.2.2-2.9 5.2.3 5 44.4-2.4 89.8-4.7 132.9 8.2 3.1 1 4.1-4 1-4.9z" fill="#f9e5a7"/><path d="m571.4 468.3c-6.9-1.7-13.5-4.4-19.6-8.2-.1 0-.1-.1-.2-.1-1.2-.7-2.4-1.5-3.5-2.3-2.8-1.9-5.5-3.8-8.5-5.2-2.5-1.3-5.2-2.2-7.8-3.2-2.2-.8-4.4-1.6-6.6-2.6-.2-.1-.3-.1-.5-.2-.6-.3-1.2-.6-1.7-.9-.7-.4-1.5-.9-2.1-1.4-.1-.1-.1-.1-.2-.2-.4-.4-.7-.8-.9-1.3-1-2.4.7-5.2 3.1-6.3s5.1-.8 7.6-.6c2 .2 4 .4 5.9.6 7.8.9 15.5 2.1 22.9 4.4 1.8.6 3.6 1.2 5.4 1.9 1.2.5 2.4 1 3.6 1.6 2.3 1.1 4.4 2.2 6.5 3.6 1.1.7 2.2 1.5 3.3 2.3 2.2 1.6 4.3 3.5 6.1 5.5l.7-.7c2 0 3.9.3 5.8.8.4.1.8.2 1 .5.4.5.3 1.2.1 1.8-.8 3.3-1.5 6.6-2.3 9.8-.1.4-.3.9-.7 1s-.8-.2-1.1-.5c-1.3-1.2-2.5-2.5-3.8-3.8l-.6 1.1c-1.9 3.8-7.5 3.6-11.9 2.6z" fill="#795583"/><g fill="#e87a64"><path d="m571.2 456.2c1.3-2.8 2.6-5.6 3.8-8.4 1.1.7 2.2 1.5 3.3 2.3-1.1 2.7-2.3 5.3-3.6 7.9-1.1 2.3-4.6.5-3.5-1.8z"/><path d="m564 444.1c.3-.5.6-1 .9-1.4 1.2.5 2.4 1 3.6 1.6-.3.6-.7 1.1-1 1.7-1.3 2-4.8.3-3.5-1.9z"/><path d="m551.7 460c-1.2-.7-2.4-1.5-3.5-2.3.8-4.1 2.2-8 5.2-11.3 1.7-1.9 4.6.8 2.9 2.6-2.9 3.1-4.1 7-4.6 11z"/><path d="m525.2 446.6c0-.6.1-1.1.1-1.7-.2.5-.4 1-.6 1.5-.6-.3-1.2-.6-1.7-.9-.7-.4-1.5-.9-2.1-1.4l.1-.5c-.1.1-.2.2-.3.3-.4-.4-.7-.8-.9-1.3-1-2.4.7-5.2 3.1-6.3s5.1-.8 7.6-.6c2 .2 4 .4 5.9.6-.6 2.4-.5 4.9.2 7.3s-3 3.7-3.7 1.2c-.2-.6-.3-1.3-.5-1.9l-.1.5c-.4 1.9-.6 3.8-.7 5.7-2-.7-4.3-1.5-6.4-2.5z"/></g><path d="m184.6 139.7c1.5-.2 2.8-.7 4-1.8.2-3 .3-6 .3-8.9 0-.4 0-.8 0-1.3 0-1.7 0-3.4-.1-5-.2-5.6-.7-11.3-1.6-16.9-.2-1.5-.5-3-.8-4.5-.7-3.7-1.5-7.4-2.5-11-.9-3.2-2.3-6.9-5.5-7.7l-.5-.8c.5-2.7 1-5.4 1.5-8.1-4.4-.8-9.2.4-12.6 3.2-.3.2-.5.4-.7.8-.7 1.5 1.7 2.5 2.6 3.9 1 1.4.3 3.3-.3 4.9-.8 2.1-1.3 4.2-1.7 6.4-.3 1.5-.5 3-.6 4.6-.4 4.8 0 9.8.8 14.6.2 1.6.5 3.1.9 4.7.5 2.3 1 4.5 1.6 6.8 0 .1.1.3.1.4 1.2 4.5 2.7 9.1 6 12.4.8.8 1.7 1.4 2.7 2 6.9 39.6 15.9 78.8 26.9 117.5 1 3.7 6.9 2.4 5.8-1.3-10.7-37.8-19.5-76.1-26.3-114.9z" opacity=".1"/><path d="m182.6 141c6.9 40.4 16 80.4 27.2 119.8 1 3.6-4.7 4.9-5.7 1.3-11.2-39.4-20.3-79.4-27.2-119.8-.6-3.8 5.1-5.1 5.7-1.3z" fill="#f9e5a7"/><path d="m168.9 131.9c0 .1.1.3.1.4 1.2 4.4 2.6 9 5.9 12.2 3.4 3.3 9.2 4.5 12.8 1.4.2-2.9.3-5.9.3-8.8 0-.4 0-.8 0-1.2 0-1.6 0-3.3-.1-4.9-.2-5.6-.7-11.1-1.5-16.6-.2-1.5-.5-3-.7-4.4-.7-3.6-1.5-7.2-2.4-10.8-.8-3.2-2.3-6.8-5.4-7.6l-.5-.8c.5-2.7 1-5.3 1.5-8-4.3-.8-9 .4-12.4 3.2-.3.2-.5.4-.7.7-.7 1.5 1.7 2.5 2.6 3.8.9 1.4.3 3.3-.3 4.9-.7 2.1-1.3 4.2-1.7 6.3-.3 1.5-.5 3-.6 4.5-.4 4.7 0 9.6.8 14.4.2 1.5.5 3.1.8 4.6.5 2.2 1 4.5 1.5 6.7z" fill="#795583"/><path d="m169.1 132.3c1.2 4.4 2.6 9 5.9 12.2 3.4 3.3 9.2 4.5 12.8 1.4.2-2.9.3-5.9.3-8.8-.2-.5-.7-.8-1.3-.9.4-.1.8-.2 1.3-.3 0-1.6 0-3.3-.1-4.9-6.3.8-12.6 1.4-18.9 1.3z" fill="#e87a64"/><path d="m167.4 125.2c2.2.1 4.5 0 6.7-.5 2.8-.6 1.9-5.1-1-4.4-2.2.5-4.4.6-6.6.3.3 1.5.6 3.1.9 4.6z" fill="#e87a64"/><path d="m165.8 106.2c.8 0 1.5-.3 2-1 .6-1 .4-2.5-.7-3.1l-.7-.4c-.3 1.5-.5 3-.6 4.5z" fill="#e87a64"/><path d="m177.4 115.2c3.1.2 6.1-.2 9-.9-.2-1.5-.5-3-.7-4.4-2.6.7-5.3 1-8 .8-3-.1-3.2 4.4-.3 4.5z" fill="#e87a64"/><path d="m351.7 84.4c-2.6-3.6-6.9-6-11.4-6.3-.2 2.7-.4 5.5-.6 8.2l-.6.6c-3.3 0-5.7 3.2-7.3 6.1-1.9 3.3-3.6 6.6-5.2 10-.6 1.4-1.3 2.8-1.9 4.2-2.2 5.2-4.2 10.5-5.8 15.9-.5 1.6-.9 3.2-1.4 4.8-.1.4-.2.8-.3 1.2-.7 2.9-1.4 5.8-1.9 8.7.6.9 1.4 1.6 2.4 2.2-16.9 37-35.7 73.2-56.4 108.2-1.9 3.3 3.3 6 5.3 2.7 21-35.6 40.1-72.2 57.1-109.8 1.6-.2 3.2-.6 4.6-1.4 4-2.3 6.6-6.4 8.9-10.5.1-.1.1-.3.2-.4 1.1-2 2.2-4.1 3.2-6.1.7-1.4 1.4-2.9 2-4.3 2-4.5 3.6-9.2 4.5-14 .3-1.5.5-3 .6-4.6.2-2.2.2-4.4 0-6.6-.2-1.7-.3-3.7 1-4.9 1.3-1.1 3.9-1.5 3.5-3.1-.1-.2-.3-.5-.5-.8z" opacity=".1"/><path d="m315.8 145.5c-16.9 37.3-35.8 73.7-56.6 109-1.9 3.2 3.3 5.9 5.2 2.7 20.8-35.3 39.7-71.6 56.6-109 1.5-3.5-3.7-6.2-5.2-2.7z" fill="#f9e5a7"/><path d="m334 137c-.1.1-.1.3-.2.4-2.2 4-4.8 8-8.8 10.3-4.1 2.3-10.1 2-12.7-1.9.5-2.9 1.2-5.7 1.9-8.6.1-.4.2-.8.3-1.2.4-1.6.9-3.2 1.3-4.8 1.6-5.3 3.5-10.6 5.7-15.7.6-1.4 1.2-2.7 1.8-4.1 1.6-3.3 3.3-6.6 5.1-9.8 1.6-2.9 3.9-6 7.2-6l.6-.6c.2-2.7.4-5.4.6-8.1 4.4.3 8.6 2.7 11.2 6.2.2.3.4.6.4.9.3 1.6-2.2 2-3.5 3.1s-1.1 3.1-1 4.8c.2 2.2.2 4.3 0 6.5-.1 1.5-.3 3-.6 4.5-.9 4.7-2.4 9.3-4.4 13.7-.6 1.4-1.3 2.9-2 4.3-.7 2.1-1.8 4.1-2.9 6.1z" fill="#795583"/><path d="m333.8 137.4c-2.2 4-4.8 8-8.8 10.3-4.1 2.3-10.1 2-12.7-1.9.5-2.9 1.2-5.7 1.9-8.6.4-.4.8-.6 1.5-.6-.4-.2-.8-.4-1.1-.6.4-1.6.9-3.2 1.3-4.8 5.9 2.5 11.8 4.8 17.9 6.2z" fill="#e87a64"/><path d="m337.2 131c-2.2-.4-4.3-1.2-6.4-2.2-2.6-1.3-.5-5.4 2.1-4 2 1.1 4.1 1.7 6.3 2-.6 1.3-1.3 2.8-2 4.2z" fill="#e87a64"/><path d="m330.1 118.8c-3-.6-5.8-1.7-8.5-3.2.6-1.4 1.2-2.7 1.8-4.1 2.3 1.4 4.9 2.3 7.5 2.8 2.9.7 2 5.1-.8 4.5z" fill="#e87a64"/><path d="m515.9 324.2c-27.6-10.1-52.5-27.9-81.3-33.5-14.6-2.8-31.9-3.6-40.3-15.8-3.8-5.5-7-13.7-13.6-12.9-1.9.2-3.6 1.3-5.1 2.3-43.9 29.1-78.1 76.3-129.4 88.4-8.2 1.9-16.7 2.9-24.2 6.8-10.5 5.4-17.5 15.7-23.7 25.7-20.1 32.7-36.3 67.8-48.2 104.3l.6 2.7c6.8 14 23.5 20 38.9 21.9s31.5 1 45.9 6.8c7.6 3 14.3 7.8 21.3 11.9 30.9 17.9 69 22.9 103.5 13.7 7.3-2 14.6-4.6 20.5-9.4 5.8-4.7 9.9-11.2 14.9-16.8 13.7-15.4 34.9-23.9 55.5-22.3 4.2.3 8.6 1.1 12.6-.3s7.4-5.8 5.9-9.8c-.7-1.8-2.2-3.2-3.3-4.8-5.2-7.6.6-17.7 6.3-24.9 23.5-29.6 49.4-57.2 77.3-82.6 12-10.9 25-22.4 29.3-38-21.4-2.9-43-6-63.4-13.4z" opacity=".1"/><path d="m147 491.7c11.7-35.9 27.7-70.4 47.4-102.6 6.1-9.9 13-20 23.3-25.3 7.3-3.8 15.8-4.8 23.8-6.7 50.4-11.9 84-58.3 127.2-86.9 1.6-1 3.2-2.1 5.1-2.3 6.5-.8 9.6 7.3 13.3 12.6 8.3 12 25.3 12.8 39.6 15.5 28.4 5.5 52.8 23.1 80 33 20 7.3 41.3 10.3 62.5 13.3-4.2 15.4-17 26.7-28.8 37.4-27.5 25-53 52.1-76.1 81.2-5.6 7.1-11.3 17-6.2 24.5 1.1 1.6 2.6 2.9 3.2 4.7 1.5 3.9-1.9 8.2-5.8 9.6-4 1.3-8.3.6-12.4.3-20.3-1.6-41.1 6.8-54.6 22-4.9 5.5-8.9 11.9-14.6 16.5-5.8 4.7-12.9 7.3-20.1 9.2-33.9 9.1-71.4 4.2-101.8-13.4-6.9-4-13.6-8.7-21-11.7-14.2-5.7-30-4.9-45.1-6.7-15.2-1.9-31.5-7.8-38.3-21.6" fill="#7f804f"/><path d="m165.7 487.2c12.5-31.6 28.2-61.9 46.8-90.3 5.2-8 10.8-15.9 18.5-21.6s18-8.5 26.9-5.3c9 3.2 15.3 13.8 12 22.7-3.1 8.3-13.6 15.1-10.6 23.4 10.2-30 29-57.1 53.5-77.2 4.7-3.9 10-7.6 16.1-7.9 10.5-.4 18.8 10.3 19.5 20.8s-3.9 20.6-8.4 30.1c18.2-16.7 33.3-36.9 44.1-59.2 1.3-2.6 2.8-5.6 5.7-6.4 1.7-.5 3.6 0 5.3.5 12.4 3.4 24.9 6.8 37.3 10.3 4.1 1.1 9 3.1 9.7 7.3.4 2.8-1.2 5.4-2.8 7.7-8.8 13.1-17.1 26.6-24.7 40.5-1.2 2.1-2.3 4.6-1.2 6.7 1.4 2.5 5 2.5 7.7 1.5 12-4.6 14.6-20.1 22.2-30.5 7.6-10.5 20.7-16 33.7-17.2 12.9-1.2 25.9 1.3 38.6 3.7 6.1 1.2 13.5 3.7 14.1 9.9.3 2.9-1.1 5.7-2.5 8.2-10.4 19-22.6 39.6-43.2 46.5-8 2.7-16.7 2.9-25.1 3.2-10.5.3-21 .6-31.5.9-1.1 10.8 14 16.4 16.7 27 3.5 14.3-17.6 27.1-12.2 40.8-7.9-3.2-16.7.2-24.9 2.7-8.2 2.4-18.5 3.2-23.8-3.4-2.8-3.4-3.4-8.1-4.9-12.2-5-14.4-19.5-23-32.9-30.4.8 11.1 10.5 19.1 15.5 29 7.9 15.5 3.9 34.1-.2 51-29.2 2.4-58.9-14.9-71.2-41.5 0 17.4 5.2 34.7 14.9 49.2-11.7 5-25.4 1.2-36.6-4.8s-21.4-14.2-33.4-18.6c-22.2-8.1-48.8-2.6-68.4-15.7" fill="#a7a16d"/><path d="m187.6 472.5c13-5.7 23.5-17 28.3-30.4.8-2.2 1.6-4.6 3.5-5.9 4.2-2.8 9.3 1.7 13.7 4.3 11 6.7 25.7 1.1 35.3-7.5 9.6-8.7 16.4-20.2 26.6-28.1 1.8-1.4 4.2-2.7 6.2-1.7 1.4.7 2 2.2 2.8 3.5 6.5 11.9 22.9 15.8 35.7 11.3s22.4-15.3 29.6-26.8c2.4-3.8 4.8-8 8.7-10.2s10-1.5 11.7 2.7c1.7 4.1-1.6 8.8-.6 13.2 1.8 7.9 13.3 6.8 20.8 3.8 28.8-11.5 57.5-23.1 86.3-34.6 4.2 6.8-4.6 14-11.9 17.2-18.9 8.1-37.8 16.1-56.7 24.2-9.3 4-19.1 8.3-25.2 16.5s-6.4 21.4 1.9 27.3c-20.5-14-45.3-21.6-70.1-21.5-6.8 0-13.9.7-19.5 4.5s-9 11.6-5.8 17.6c1 2 2.8 3.9 2.5 6.1-.5 4.4-6.8 4.4-11.1 3.4-15.2-3.7-32.2-3.9-45.6 4.3-4.2 2.6-8.1 6-12.8 7.6-4.9 1.7-10.2 1.2-15.4.7-10.4-1.1-20.7-2.2-31.1-3.6" fill="#d0c38a"/><path d="m601.3 309.5c.3-1.8.7-3.8-.4-5.3-1.5-2.1-4.9-1.5-7.1 0s-3.9 3.7-6.4 4.5c-6.6-5.9-16.1-5.8-24.9-3.2-2.6.8-5.2 1.8-7.6 2.9-.8.4-1.7.8-2.5 1.3-15.9 8.1-29.3 20.4-44 30.8-5.1 3.6-10.4 7-16 9.9-3 1.6-6.2 3-8.5 5.5-.6.6-1.1 1.3-1.5 2-56.6 25.6-118.1 39.6-180.3 40.8-8 .1-9.2 12.6-1.2 12.5 64.5-1.2 128-15.3 186.8-41.9.4.1.8.1 1.1.2h.1c2.5.2 5.1-.1 7.5-.5 5.7-1.1 11.4-2.2 17.1-3.2 4.7-.9 9.3-1.8 14-2.6 3.6-.7 7.3-1.4 10.9-2.2 3.2-.7 6.4-1.5 9.5-2.4 4.8-1.4 9.4-3.2 13.8-5.6 4.9-2.7 9.4-5.9 13.6-9.6 2.6-2.2 5.1-4.6 7.5-7 1.6-1.6 3.3-3.2 4.9-4.8h6c3.4 3.1 9 3.5 12.8.8-4.5-6.7-6.4-15.1-5.2-22.9z" opacity=".1"/><path d="m484.6 370.6c-59.3 27.8-123.8 42.6-189.3 43.8-7.9.1-6.7-12.1 1.2-12.3 63.2-1.2 125.7-15.9 183-42.7 7.1-3.3 12.3 7.9 5.1 11.2z" fill="#f9e5a7"/><path d="m545.1 313.5c-.8.4-1.7.8-2.5 1.2-15.6 8-28.8 20.1-43.2 30.3-5.1 3.6-10.2 6.9-15.7 9.7-3 1.5-6.1 3-8.4 5.4s-3.6 6.1-2.2 9.2c1.3 2.7 4 3.8 7 4.1h.1c2.4.2 5-.1 7.4-.5 5.6-1.1 11.2-2.1 16.8-3.2 4.6-.9 9.2-1.7 13.7-2.6 3.6-.7 7.2-1.3 10.7-2.1 3.2-.7 6.3-1.5 9.4-2.4 4.7-1.4 9.2-3.1 13.5-5.5 4.8-2.6 9.2-5.8 13.4-9.4 2.5-2.2 5-4.5 7.4-6.8 1.6-1.6 3.2-3.2 4.8-4.7h5.9c3.3 3.1 8.9 3.5 12.6.8-4.5-6.4-6.3-14.6-5.1-22.4.3-1.8.7-3.8-.4-5.2-1.5-2.1-4.9-1.5-7 0s-3.9 3.7-6.3 4.4c-6.5-5.8-15.8-5.7-24.5-3.1-2.5.7-5 1.7-7.4 2.8z" fill="#795583"/><path d="m499.4 345c-5.1 3.6-10.2 6.9-15.7 9.7-3 1.5-6.1 3-8.4 5.4s-3.6 6.1-2.2 9.2c1.3 2.7 4 3.8 7 4.1 0-.2-.1-.3-.1-.5.1.2.2.4.3.5 2.4.2 5-.1 7.4-.5 5.6-1.1 11.2-2.1 16.8-3.2-1.1-4.6-2.1-9.3-3-14-.7-3.4-1.6-7.1-2.1-10.7z" fill="#e87a64"/><path d="m559.3 332.1c1.6 5.4 3.6 10.6 5.9 15.6 2.5-2.2 5-4.5 7.4-6.8-1.8-4.2-3.3-8.4-4.7-12.8-1.8-5.9-10.4-1.8-8.6 4z" fill="#e87a64"/><path d="m545.1 313.5c-.8.4-1.7.8-2.5 1.2-.6 6.3-.4 12.7.4 18.9.8 6.1 10.2 4.5 9.4-1.5-.7-5.6-.9-11.2-.3-16.8.1-1.5.2-3.1.5-4.7-2.6.8-5.1 1.8-7.5 2.9z" fill="#e87a64"/><path d="m522.1 331.5c0 11.7 2.2 22.9 6.7 33.5 3.2-.7 6.3-1.5 9.4-2.4-4.3-9.5-6.6-19.6-6.6-30.2 0-6.1-9.5-7-9.5-.9z" fill="#e87a64"/><path d="m524.4 233.2c-.9-6-4.6-11.5-9.7-14.7-1.9 3.2-3.9 6.3-5.8 9.5l-1.2.4c-4-2.1-8.8.3-12.5 2.7-4.3 2.8-8.4 5.7-12.4 8.7-1.6 1.3-3.2 2.5-4.8 3.8-5.9 4.8-11.6 10-16.9 15.5-1.6 1.6-3.1 3.3-4.6 4.9-.4.4-.8.8-1.1 1.3-2.7 3-5.3 6.1-7.8 9.3.2 1.5.7 2.9 1.5 4.1-43.3 33.9-88.4 65.4-135 94.5-4.4 2.7.3 9.3 4.6 6.5 47.3-29.5 93-61.6 136.8-96 2 .8 4.2 1.2 6.4 1.1 6.3-.3 11.9-3.6 17.2-7 .2-.1.3-.2.5-.3 2.6-1.7 5.2-3.5 7.7-5.3 1.7-1.3 3.5-2.6 5.1-3.9 5.2-4.2 10-8.8 14-13.9 1.3-1.7 2.5-3.4 3.6-5.1 1.6-2.5 3-5.1 4.1-7.9.9-2.1 1.9-4.7 4.2-5.2 2.2-.5 5.5.7 6.2-1.5.1-.6 0-1-.1-1.5z" opacity=".1"/><path d="m443.9 282c-43.5 34.2-88.8 66-135.7 95.3-4.3 2.7.3 9.1 4.6 6.4 46.9-29.3 92.2-61.1 135.7-95.3 3.9-3.1-.6-9.5-4.6-6.4z" fill="#f9e5a7"/><path d="m471 283.2c-.2.1-.3.2-.5.3-5.2 3.4-10.8 6.6-16.9 6.9-6.4.3-13.3-3.8-14.1-10.2 2.4-3.1 5-6.2 7.6-9.1.4-.4.7-.8 1.1-1.2 1.5-1.6 3-3.3 4.6-4.9 5.2-5.4 10.8-10.5 16.6-15.2 1.6-1.3 3.2-2.5 4.8-3.8 4-3 8-5.9 12.2-8.6 3.7-2.4 8.4-4.7 12.3-2.7l1.1-.3c1.9-3.1 3.8-6.2 5.7-9.4 5.1 3.1 8.7 8.5 9.6 14.4.1.5.1.9 0 1.3-.7 2.1-3.9 1-6.1 1.5s-3.3 3-4.1 5.1c-1.1 2.7-2.5 5.3-4 7.8-1.1 1.7-2.3 3.4-3.5 5-4 5.1-8.7 9.6-13.8 13.7-1.6 1.3-3.3 2.6-5 3.9-2.5 2.1-5.1 3.8-7.6 5.5z" fill="#795583"/><path d="m470.5 283.5c-5.2 3.4-10.8 6.6-16.9 6.9-6.4.3-13.3-3.8-14.1-10.2 2.4-3.1 5-6.2 7.6-9.1.7-.2 1.4-.2 2.1.2-.3-.5-.7-1-1-1.5 1.5-1.6 3-3.3 4.6-4.9 5.6 6.7 11.2 13.1 17.7 18.6z" fill="#e87a64"/><path d="m478.6 278c-2.4-1.9-4.5-4.1-6.2-6.6-2.3-3.2 2.7-6.8 5-3.5 1.8 2.5 3.9 4.6 6.3 6.3-1.7 1.2-3.4 2.5-5.1 3.8z" fill="#e87a64"/><path d="m477.6 258.9c-3.2-2.6-5.9-5.7-8.2-9.1 1.6-1.3 3.2-2.5 4.8-3.8 2 3.1 4.4 5.8 7.3 8.1 3 2.6-.9 7.3-3.9 4.8z" fill="#e87a64"/><path d="m431.5 176.2c4.4-16.1 9.3-33.3 4.3-49.3-20.3 9.3-40.8 18.6-62.6 23.5-29.5 6.6-61 4.9-89.2 16-14.2 5.6-29.7 14.6-43.8 8.6-6.3-2.7-13.7-8-18.9-3.6-1.5 1.3-2.4 3.1-3.2 4.9-22 49.6-25.5 109.5-63.3 148.5-6 6.2-12.9 11.8-17.2 19.3-6.1 10.5-6.5 23.3-6.3 35.5.7 39.5 6.1 79 16 117.3l2 2c13.7 8.3 31.5 4.4 45.9-2.6 14.4-6.9 27.9-16.6 43.6-19.5 8.2-1.6 16.7-1.2 25.1-1.5 36.8-1.6 72.6-18.4 97.5-45.6 5.2-5.7 10.1-12.1 12.6-19.5 2.4-7.3 2.4-15.2 3.6-22.8 3.4-21 17-40.1 35.8-50.2 3.9-2.1 8.1-3.9 10.8-7.3s3.2-9.1-.3-11.8c-1.6-1.2-3.7-1.5-5.5-2.3-8.7-3.7-9.3-15.7-8.3-25.1 4.1-38.6 11.2-77 21.4-114.5z" opacity=".1"/><path d="m144.4 498.9c-9.8-37.7-15.1-76.5-15.8-115.4-.2-12 .2-24.5 6.2-34.9 4.3-7.4 11-12.9 17-19 37.2-38.3 40.6-97.2 62.2-146 .8-1.8 1.6-3.6 3.1-4.8 5.1-4.3 12.4 1 18.6 3.6 13.9 5.9 29-3 43-8.5 27.7-11 58.6-9.3 87.7-15.8 21.4-4.8 41.6-14 61.6-23.1 4.9 15.7.1 32.6-4.2 48.4-10 36.9-17 74.6-21 112.7-1 9.3-.4 21 8.2 24.7 1.8.8 3.8 1.1 5.4 2.3 3.4 2.6 3 8.2.3 11.6s-6.8 5.1-10.6 7.2c-18.5 9.9-31.9 28.7-35.2 49.3-1.2 7.5-1.2 15.2-3.6 22.4-2.4 7.3-7.2 13.5-12.4 19.1-24.4 26.7-59.7 43.2-95.8 44.8-8.2.4-16.6 0-24.7 1.5-15.5 2.9-28.7 12.4-42.9 19.2s-31.7 10.7-45.2 2.5" fill="#7f804f"/><path d="m158.1 484.7c-6.6-34.4-9.8-69.4-9.5-104.4.1-9.8.5-19.8 4.1-29 3.6-9.1 7.6-15.7 17.2-17.9s20.4 3.5 22.4 13.1c1.9 9 .4 18.9 7.6 24.5-7.8-31.7-6.5-65.6 3.6-96.7 1.9-6 4.4-12.2 9.6-15.7 8.9-6.2 22-1.4 28.5 7.3s8 20 9.4 30.8c6.5-24.6 8.4-50.5 5.4-75.8-.4-3-.6-6.4 1.4-8.7 1.2-1.4 3.1-2 4.9-2.5 12.7-3.9 25.4-7.9 38.1-11.8 4.2-1.3 9.6-2.3 12.5 1 1.9 2.2 1.9 5.4 1.9 8.3-.4 16.3 0 32.6 1 48.8.2 2.4.6 5.3 2.7 6.5 2.6 1.4 5.7-.6 7.5-3 7.9-10.7 1.6-25.6 2.3-38.8.7-13.4 9.1-25.4 19.7-33.6s23.2-13.3 35.6-18.2c5.9-2.3 13.7-4.2 17.7.7 1.9 2.4 2.1 5.6 2.4 8.5 1.5 22.3 2.3 46.9-11.7 64.3-5.5 6.8-12.8 11.8-20.1 16.7-9 6.1-17.9 12.2-26.9 18.3 5 10 21.3 6.5 29.4 14.2 11 10.5-.3 33.3 12 42.2-8.6 1.6-14.4 9.5-20.1 16.1s-14.2 13-22.5 10.2c-4.3-1.5-7.4-5.1-11-7.9-12.4-9.7-29.7-9.2-45.4-8.2 6.8 9.2 19.7 10.8 29.6 16.6 15.5 9 22.3 27.4 28.1 44.4-24 18.3-59.5 19.7-84.8 3.5 9.6 15.1 23.8 27.3 40.2 34.5-7.4 10.9-21.4 15.1-34.5 16.2-13.1 1-26.4-.5-39.3 2.4-23.7 5.3-43.8 24.8-68.1 24.4" fill="#a7a16d"/><path d="m170.4 464.8c8.1-12.2 11-27.8 7.7-42.1-.5-2.3-1.2-4.9-.3-7.1 2.1-4.8 9-3.7 14.3-3.8 13.3-.3 22.9-13.3 26.4-26.1s3.1-26.6 7.5-39.1c.8-2.2 2.1-4.7 4.5-4.9 1.6-.2 3 .8 4.4 1.5 12.2 6.8 28.6 1 37.2-10s11-25.7 10.8-39.7c0-4.7-.3-9.6 1.9-13.7s7.9-6.8 11.7-4.1c3.8 2.6 3.6 8.5 6.8 11.8 5.9 5.9 15.3-1.5 20.1-8.2 18.6-26 37.1-51.9 55.7-77.9 7.4 3.5 3.8 14.7-.8 21.5-11.9 17.5-23.9 35-35.8 52.5-5.9 8.6-12 17.8-12.7 28.3-.7 10.4 6.3 22.2 16.8 22.6-25.5-.8-51.3 6.3-72.8 20.2-5.9 3.8-11.7 8.3-14.4 14.8-2.7 6.4-1.3 15.1 4.7 18.5 2 1.2 4.6 1.8 5.6 3.9 2 4.1-3.5 7.6-7.7 9.1-15.3 5.3-30.2 14.5-37.2 29-2.2 4.6-3.7 9.7-6.9 13.7-3.3 4.2-8.2 6.7-13 9.1-9.6 4.8-19.2 9.6-29 14.1" fill="#d0c38a"/><path d="m282.2 63c-.1-2.6-.2-5.1-.4-7.7-.4-4.9-1.1-9.7-2.2-14.4-.5-2.5-1.2-5.1-1.9-7.6-1.5-5.1-3.5-10.2-6-15l1.8-.9c1.3-3.6 2.1-7.5 2.4-11.3.1-.8.1-1.6-.3-2.3-.6-1-2-1.3-3.2-1.4-6.5-.8-13.1-1.6-19.6-2.4-.9-.1-1.9-.1-2.4.6s-.2 1.6.2 2.4c1.4 3.2 2.9 6.3 4.4 9.5l-2.3.4c-8.6 1.7-12.1 12.1-13.1 20.8-1.6 13.8-1 27.9 1.8 41.5 0 .1.1.3.1.4.6 2.7 1.2 5.4 1.9 8.1 1.5 6.3 3.2 12.7 3.9 19.2.6 5.5.6 11 .6 16.6 0 4.6 0 9.2.4 13.8 0 .3.1.7.1 1 .1 1.3.3 2.5.5 3.8.3 1.6.6 3.3 1.2 4.8.1.1.1.3.2.4.5.9 1 1.8 1.8 2.5 1 1 2.2 1.6 3.5 1.8-7.5 83.9-40.9 162.3-73.9 239-2.5 5.9 6.5 9.8 9 4 33.9-78.9 68.4-159.9 75.1-246.4 3.4-3.6 4.8-8.6 6.1-13.5 1-3.8 1.9-7.5 2.8-11.3 3.6-14.9 6.6-29.9 7.4-45.1.1-3.8.2-7.6.1-11.3z" opacity=".1"/><path d="m261.1 146.2c-5.4 87.2-40.1 168.8-74.2 248-2.5 5.7-11.4 1.8-8.9-3.9 33.8-78.6 68.2-159.1 73.5-245.5.4-6.2 10-4.8 9.6 1.4z" fill="#f9e5a7"/><path d="m235 43.3c-1.6 13.6-1 27.4 1.7 40.8 0 .1.1.3.1.4.6 2.7 1.2 5.3 1.8 7.9 1.5 6.2 3.1 12.5 3.8 18.9.6 5.4.6 10.9.6 16.3 0 4.5 0 9.1.4 13.6 0 .3.1.7.1 1 .1 1.2.3 2.5.5 3.7.2 1.6.6 3.2 1.2 4.7.1.1.1.3.2.4.5.9 1 1.8 1.8 2.5 3.6 3.4 9.9 2.1 13.4-1.4s4.9-8.6 6.1-13.4c1-3.7 1.9-7.4 2.8-11.1 3.5-14.6 6.5-29.4 7.3-44.4.2-3.7.3-7.3.2-11-.1-2.5-.2-5-.4-7.6-.4-4.8-1.1-9.5-2.1-14.2-.5-2.5-1.2-5-1.9-7.4-1.5-5.1-3.5-10-5.9-14.7l1.8-.8c1.3-3.6 2.1-7.3 2.4-11.1.1-.8.1-1.6-.3-2.2-.6-1-1.9-1.3-3.1-1.4-6.4-.8-12.9-1.6-19.3-2.4-.8-.1-1.8-.1-2.4.5-.5.7-.2 1.6.2 2.3 1.4 3.1 2.8 6.2 4.4 9.3l-2.3.4c-8.7 1.7-12.1 11.8-13.1 20.4z" fill="#795583"/><path d="m256.7 51.7c5.9-.6 11.8-1 17.7-1.3-.5-2.5-1.2-5-1.9-7.4-5.6.3-11.2.7-16.7 1.2-4.9.5-3.9 8 .9 7.5z" fill="#e87a64"/><path d="m236.8 84.5c.6 2.7 1.2 5.3 1.8 7.9 8 1.4 16 1.3 23.9-1.9 4.5-1.8 1.7-8.8-2.8-7-7.5 3.2-15.2 2.7-22.9 1z" fill="#e87a64"/><path d="m243.5 141.2c1.1.3 2.1.6 3.2.9-1 .1-2.1.1-3.1.1.1 1.2.3 2.5.5 3.7.2 1.6.6 3.2 1.2 4.7l.9.1c-.3.1-.5.2-.7.3.5.9 1 1.8 1.8 2.5 3.6 3.4 9.9 2.1 13.4-1.4s4.9-8.6 6.1-13.4c1-3.7 1.9-7.4 2.8-11.1-4.7-.6-9.1-2.3-13.1-5.3-3.9-2.9-8.6 3-4.7 5.9 1 .8 2.1 1.5 3.1 2.1l-.9-.1c-3.7-.6-7.3-1.4-10.9-2.5 0 4.5 0 9 .4 13.5z" fill="#e87a64"/><path d="m273.8 72.8c1-.2 2.1-.4 3.1-.6-.1-2.5-.2-5-.4-7.6-1.2.2-2.4.5-3.7.7-4.7.9-3.8 8.4 1 7.5z" fill="#e87a64"/><path d="m225.9 390.5c-2.1-6.7-6.6-12.4-10.2-18.4-23-37.6-15.1-85.6-23.7-128.8-.3-1.6-.7-3.2-1.6-4.4-3.4-4.4-10.2-1.5-15.6-.5-12.2 2.2-22.8-7.6-33.1-14.6-20.4-13.8-45.7-18.1-67.9-28.5-16.4-7.7-31-18.8-45.4-29.7-6.8 11.7-5.9 26.2-5.3 39.8 1.4 31.5.2 63.2-3.5 94.5-.9 7.6-3.5 17-11.1 18.4-1.6.3-3.3.2-4.8.8-3.2 1.5-3.9 6.1-2.3 9.3s4.6 5.4 7.3 7.7c13.1 11.3 20.5 28.8 19.4 46.1-.4 6.2-1.8 12.5-1.2 18.7.6 6.3 3.4 12.2 6.5 17.6 14.8 25.9 40.2 45.6 69.1 53.4 6.6 1.8 13.3 3 19.6 5.7 11.9 5.1 20.9 15.2 31.1 23.2s23.6 14.3 35.9 10.2l2-1.2c14.7-28.6 25.9-58.8 33.5-90 2.3-9.7 4.3-19.9 1.3-29.3z" opacity=".1"/><path d="m187.3 511.5c14.4-28.1 25.5-57.9 33-88.6 2.3-9.4 4.2-19.5 1.3-28.7-2.1-6.6-6.4-12.2-10.1-18-22.6-36.9-14.9-84.2-23.3-126.7-.3-1.5-.7-3.1-1.6-4.4-3.3-4.3-10-1.4-15.4-.5-12 2.2-22.5-7.5-32.6-14.4-20-13.6-44.8-17.8-66.6-28.1-16.1-7.6-30.5-18.5-44.7-29.2-6.7 11.6-5.8 25.8-5.2 39.1 1.4 31 .2 62.1-3.4 93-.9 7.5-3.4 16.7-10.9 18.1-1.6.3-3.2.2-4.7.8-3.2 1.4-3.8 6-2.3 9.1s4.5 5.3 7.1 7.6c12.9 11.2 20.2 28.4 19.1 45.4-.4 6.1-1.8 12.3-1.2 18.4.6 6.2 3.3 12 6.4 17.4 14.6 25.5 39.6 44.8 67.9 52.5 6.5 1.8 13.1 2.9 19.3 5.6 11.7 5.1 20.5 14.9 30.6 22.8s23.2 14.1 35.3 10" fill="#7f804f"/><path d="m178.9 497.8c11.4-26 20.1-53.2 26-80.9 1.7-7.8 3.1-15.8 1.9-23.7s-2.1-23.7-10-17.3c-6.1 5.1-14.9 1.9-18.2 9.1-3.1 6.8-5.9 12.3-12.7 15.4 11.8-23.8 16.8-50.8 14.3-77.2-.5-5.1-9.7-12.7-5.4-20.2 4.4-7.6-16.6 1-23.3 6.7s-9.9 14.4-12.9 22.7c-.8-20.7 2.3-41.5 9.2-61 .8-2.3 1.7-5 .4-7.1-.7-1.3-2.1-2.1-3.4-2.9-9.4-5.4-18.7-10.7-28.1-16.1-3.1-1.8-7.2-3.6-10.1-1.4-1.9 1.4-2.5 3.9-3 6.2-2.6 13-5.8 25.8-9.5 38.5-.6 1.9-1.4 4.1-3.3 4.7-2.3.7-4.4-1.5-5.4-3.7-4.3-9.8 3.3-20.5 5.1-31.1 1.8-10.7-2.7-21.7-9.6-30.1s-16-14.6-25-20.7c-4.3-2.9-10.1-5.8-14.1-2.6-1.9 1.5-2.7 4-3.4 6.4-5.2 17.4-10.2 36.8-2.1 53 3.1 6.4 8.1 11.6 12.9 16.8l18 19.2c-5.7 7-18 1.3-25.8 6-10.6 6.3-5.7 26.4-17 31.3 6.6 2.8 9.7 10.1 13.1 16.3 3.4 6.3 9 12.8 16 12.1 3.7-.4 6.8-2.7 10.1-4.3 11.5-5.5 25.1-2 37.4 1.6-7 6-17.5 5-26.4 7.9-13.8 4.4-22.6 17.8-30.1 30.2 15.7 18.7 43.6 26.2 66.6 17.8-10.3 10.2-23.7 17.4-38 20.2 3.9 9.9 14.2 15.8 24.4 18.9s21 4.3 30.7 8.9c17.9 8.4 30.3 27.4 49.6 31.4" fill="#a7a16d"/><path d="m174.7 476.1c-4.3-11.1-3.8-24 1.4-34.7.8-1.8 1.8-3.6 1.5-5.6-.8-4.2-6.5-4.6-10.6-5.6-10.5-2.6-15.8-14.6-16.3-25.4s2.3-21.6 1-32.3c-.2-1.9-.9-4.1-2.7-4.7-1.2-.4-2.5.1-3.7.4-10.9 3.2-22.8-4.3-27.7-14.5s-4.1-22.3-1.5-33.4c.9-3.7 1.9-7.6.9-11.2-1-3.7-5-6.8-8.5-5.3-3.4 1.4-4.3 6.1-7.5 8.1-5.7 3.6-11.9-3.9-14.5-10.1-10.1-23.9-20.2-47.7-30.2-71.6-6.5 1.5-5.6 11-3.2 17.2 6.3 16 12.7 31.9 19 47.9 3.1 7.9 6.3 16.3 5 24.6-1.3 8.4-8.9 16.4-17.3 14.9 20.4 3.9 39.5 14.1 54 28.9 4 4 7.7 8.7 8.8 14.2 1 5.6-1.6 12.2-7 13.8-1.8.6-3.9.7-5.1 2.1-2.3 2.9 1.4 6.6 4.5 8.6 11.1 6.9 21.3 16.8 24.3 29.6 1 4 1.2 8.3 3 12 1.9 3.9 5.3 6.8 8.7 9.5 6.7 5.5 13.5 11 20.4 16.3" fill="#d0c38a"/></svg>