<svg enable-background="new 0 0 312.8 384.2" viewBox="0 0 312.8 384.2" xmlns="http://www.w3.org/2000/svg"><path d="m196.1 2.6c-.3-.8-1.5-.8-1.8 0-3 8.2-8 14.6-13.8 20.4s-12.2 11.1-18.1 17.1c-4.5 4.6-8.5 10.1-11 16-1.9 4.5-2.9 9.2-2.5 14.1-.7 1.8-1.4 3.6-2.1 5.4.7-7.2-.9-14.5-4.1-21-5.4-11.2-13.6-20.5-14.3-33.5 0-.8-1.1-1.3-1.7-.6-2.7 3.7-2.5 9.6-2.7 14.1-.4 6.7-.1 13.6.8 20.2 1.6 11.4 8.6 22.6 19.5 27.3-1.6 4.5-3.3 8.9-4.9 13.4-1.7 4.7-3.4 9.3-5.1 14-.2.5-.4 1-.6 1.5 0-1.8-.1-3.6-.4-5.4-.9-5.6-3.3-10.8-6.2-15.6-5-8.3-11.3-15.6-14.3-24.8-.6-2-1.1-4.1-1.4-6.3-.1-.7-1-1.3-1.5-.9-.9.8-1.5 1.9-1.9 3-.5 1.3-.5 3.1-1 4.7-.2.5-.3 1.1-.4 1.8-1.1 8.2-1.1 16.8 1.1 24.7 2.7 10.1 8.9 20 18.8 24.4l.9.3c1.3.4 2.6.6 3.8.7-.7 1.9-1.5 3.8-2.2 5.8-3 7.6-6 15.2-9.1 22.8 0-2.1-.3-4.2-.7-6.2-1.4-5.8-4.5-10.9-8-15.8-5.4-7.5-11.7-14.4-15-23-.7-1.9-1.3-3.9-1.6-6-.1-.7-.9-1.3-1.3-1.1-.8.3-1.4.6-1.8 1.1-.5.2-.4 1.2-1.4 2.1-.3.3-.5.8-.7 1.5-2.1 9.6-2.6 19.9.8 29.3 3.2 8.9 9 17.5 17.9 21.8.5.2 1 .4 1.5.6 2.6 1 5.2 1.7 7.7 2-3.6 8.7-7.3 17.3-11.1 25.8-.4.9-.8 1.7-1.2 2.6 0-2.3-.4-4.6-1-6.7-1.7-6.2-5.5-11.3-9.4-16.2-5.6-6.9-12-13.3-15.5-21.6-.8-1.8-1.4-3.7-1.8-5.7-.1-.7-.7-1.3-1.1-1.4-.8-.3-1.2-.6-1.6-.8-.5-.8 0-.6-1.5-.5-.4 0-.8.5-1 1.1-3.4 10.8-5 22.9-.4 33.8 3.4 7.9 8.9 15.2 16.8 19.4.7.3 1.3.7 2 1 3.7 1.7 7.6 3 11.5 4-.7 1.5-1.4 3-2.1 4.6-1 2.2-2 4.5-3.1 6.8l-3.2 6.7-3.2 6.7-1.6 3.3-.1.1c0-2.5-.3-5-1.1-7.4-1.9-6.5-6.1-11.9-10.5-17-5.7-6.5-12.1-12.6-15.8-20.6-.8-1.8-1.5-3.6-1.9-5.5-.2-.6-.5-1.3-.8-1.7-.6-.9-.9-1.8-1.1-2.7-.3-1.9.5-2.2-1.4-3.1-.4-.2-1 .2-1.3.7-5.2 11.9-8.5 25.7-2.8 38.2 3.3 7.1 8.9 13.1 15.7 17.3h.1c.8.5 1.7 1 2.5 1.5 4.8 2.7 9.9 4.9 15 6.6l-5.1 10c-3.4 6.4-6.9 12.7-10.4 18.9.1-.4.2-.8.3-1.2.5-3.2.1-6.5-.7-9.7-1.9-7-6.4-12.9-11.2-18.2-5.7-6.3-12.1-12.2-15.8-20.1-1.7-3.7-2.8-7.7-2.6-11.8.1-2.9 1.2-3.8-.8-5.8-.5-.5-1.2-.2-1.5.3-7.5 12.5-13.4 28.2-6.7 42.3 3.1 6.5 8.9 11.3 14.6 15.5 6.5 4.8 13.5 8.8 20.8 12.2.3.1.6.1.8 0 .1 0 .2-.1.3-.2.6-.5 1-.9 1.4-1.3-5.9 10.3-12.1 20.3-18.7 30l5.8 4c5.2-7.8 10-15.8 14.7-24 4.6 4.1 9.4 7.9 14.6 11.3 6.1 4 12.7 7.9 20.1 8.5 7.8.7 14.8-1.8 21.1-5.8s11.6-9.7 16.1-15.4c.4-.5.3-1.2-.3-1.5-2.6-1.2-3 .2-5.7 1.3-4 1.7-8.5 2.1-12.8 1.6-8.3-.8-15.9-4.6-23.5-7.6-6.7-2.6-13.8-4.7-21-4-.8.1-1.5.2-2.3.3 3-5.6 6-11.2 8.9-16.9l5.1-10.4c3 3.5 6.3 6.8 10.1 10 .3.3.8.5 1.2.7.8.4 1.6.7 2.5 1 .1.1.2.1.4.2 6.1 1.9 12.5 3.7 19.1 2.9 5.9-.7 11.1-3.2 15.8-6.5 1.7-1.2 3.3-2.5 4.9-3.9 2.9-2.6 5.5-5.6 8-8.7 1.8-2.4 3.6-4.8 5.1-7.4.6-1 1.1-1.9 1.6-2.8.3-.5.2-1.3-.3-1.7-.9-.6-1.7-.6-2.4-.2-.8.5-1.5 1.2-2.8 2-3.6 2.2-7.7 3.3-11.7 3.7-3.7.4-7.4.2-11-.3-4-.5-8-1.3-11.9-1.9-4.7-.8-9.6-1.3-14.5-.9-1.9.2-3.9.5-5.8 1-.8.2-1.6.5-2.5.8l2-4.5 3.1-6.8 3-6.9c1.3-3 2.5-5.9 3.8-8.9 1.9 3.3 4.1 6.7 7 9.8.3.3.7.6 1.1.7.9.2 1.8.5 2.7.7.1 0 .3.1.4.1 6.6.5 13.5.9 20-1.2 6-1.9 10.9-5.6 15.2-10 1.6-1.6 3.1-3.2 4.5-5 2.6-3.2 5-6.7 7.2-10.4 1.6-2.8 3.1-5.6 4.5-8.5.5-1.2 1-2.1 1.3-3.2.2-.6.1-1.4-.4-1.8-.7-.6-1.7-.6-2.2-.1-.7.6-1.4 1.5-2.4 2.3-3.1 2.6-6.7 4.4-10.4 5.6-3.4 1.1-6.8 1.6-10.3 2-3.8.4-7.6.5-11.4.8-4.5.3-9.2.8-13.7 2-1.8.5-3.6 1.1-5.3 1.9-.9.4-1.7.8-2.5 1.3 3.4-8.4 6.7-16.8 9.8-25.3.9 3.6 2.2 7.3 4.7 11 .2.3.7.6 1.1.6 1 .1 2 .2 3 .3h.4c6.9-.9 14.1-1.9 20.5-5.3 5.9-3.1 10.4-8 14.3-13.3 1.4-1.9 2.8-3.9 4-5.9 2.4-3.8 4.5-7.8 6.3-11.9 1.4-3.1 2.7-6.3 3.8-9.5.4-1.3.8-2.4 1-3.5.1-.7 0-1.5-.4-2-.5-.6-1.6-.6-2.1 0-.6.8-1.2 1.7-2 2.6-2.6 3-5.7 5.3-8.9 7.2-3 1.7-6.1 3-9.3 4.1-3.5 1.2-7 2.2-10.6 3.3-4.2 1.3-8.5 2.7-12.6 4.7-1.6.8-3.2 1.7-4.8 2.7-1.3.8-2.6 1.8-3.8 2.8 1.2-3.3 2.4-6.6 3.6-9.9 1.7-4.7 3.3-9.4 4.9-14.1.3-.8.5-1.6.8-2.4.2 3.1.8 6.2 2.2 9.3.2.3.7.6 1 .6 1 0 2.1-.1 3.1-.1h.5c7.1-2.3 14.5-4.7 20.6-9.2 5.7-4.3 9.7-10.2 13.1-16.4 1.2-2.2 2.4-4.5 3.5-6.8 2-4.3 3.8-8.8 5.4-13.4 1.2-3.5 2.2-7 3-10.5.4-1.5.6-2.6.6-3.8 0-.7-.1-1.5-.5-2.2s-1.5-.7-1.9 0c-.5.9-1 1.8-1.6 2.8-2.1 3.3-4.6 6.1-7.4 8.6-2.6 2.3-5.3 4.2-8.1 6-3.1 2-6.3 3.8-9.5 5.6-3.8 2.2-7.6 4.4-11.3 7.1-1.4 1-2.8 2.2-4.2 3.4-1.2 1.1-2.3 2.2-3.4 3.4 2.3-7 4.4-14 6.1-21.1.1 1.2.4 2.5.7 3.7.1.4.6.7 1 .6 1.1-.2 2.2-.3 3.3-.5.1 0 .3 0 .5-.1 7.2-3.6 14.6-7.3 20.5-13 5.5-5.4 8.9-12.3 11.8-19.3 3-7.2 5.5-14.7 7.4-22.3.9-3.8 1.7-7.6 2.2-11.4.7-2.7.9-4.2 0-6.6z" opacity=".1"/><path d="m188.4.6c-3 8.2-8 14.6-13.8 20.4s-12.2 11.1-18.1 17.1c-4.5 4.6-8.5 10.1-11 16s-3.4 12.4-1.7 19c.1.4.6.7 1 .6 1.1-.2 2.2-.3 3.3-.5.1 0 .3 0 .5-.1 7.2-3.6 14.6-7.3 20.5-13 5.5-5.4 8.9-12.3 11.8-19.3 3-7.2 5.5-14.7 7.4-22.3.9-3.8 1.7-7.6 2.2-11.4.4-2.6.5-4.1-.3-6.5-.3-.8-1.6-.8-1.8 0z" fill="#f9e5a7"/><path d="m135 116c1 0 2.1-.1 3.1-.1h.5c7.1-2.3 14.5-4.7 20.6-9.2 5.7-4.3 9.7-10.2 13.1-16.4 1.2-2.2 2.4-4.5 3.5-6.8 2-4.3 3.8-8.8 5.4-13.4 1.2-3.5 2.2-7 3-10.5.4-1.5.6-2.6.6-3.8 0-.7-.1-1.5-.5-2.2s-1.5-.7-1.9 0c-.5.9-1 1.8-1.6 2.8-2.1 3.3-4.6 6.1-7.4 8.6-2.6 2.3-5.3 4.2-8.1 6-3.1 2-6.3 3.8-9.5 5.6-3.8 2.2-7.6 4.4-11.3 7.1-1.4 1-2.8 2.2-4.2 3.4-2.1 1.9-4.1 4.1-5.8 6.4-1 1.4-1.6 2.6-2.3 4.2 0 .1-.1.2-.1.3-.1.2-.1.4-.1.6-.7 5.4-.6 11.1 1.9 16.9.2.3.7.5 1.1.5z" fill="#d0c38a"/><path d="m123.6 156.3c1 .1 2 .2 3 .3h.4c6.9-.9 14.1-1.9 20.5-5.3 5.9-3.1 10.4-8 14.3-13.3 1.4-1.9 2.8-3.9 4-5.9 2.4-3.8 4.5-7.8 6.3-11.9 1.4-3.1 2.7-6.3 3.8-9.5.4-1.3.8-2.4 1-3.5.1-.7 0-1.5-.4-2-.5-.6-1.6-.6-2.1 0-.6.8-1.2 1.7-2 2.6-2.6 3-5.7 5.3-8.9 7.2-3 1.7-6.1 3-9.3 4.1-3.5 1.2-7 2.2-10.6 3.3-4.2 1.3-8.5 2.7-12.6 4.7-1.6.8-3.2 1.7-4.8 2.7-2.5 1.6-4.8 3.5-6.8 5.7-1.3 1.4-1.8 2.5-2.4 4.2 0 .1-.1.2-.1.3-.1.2-.1.4 0 .6 1 4.9 2.2 10.1 5.6 15.2.2.2.7.4 1.1.5z" fill="#a7a16d"/><path d="m110.8 193.6c.9.2 1.8.5 2.7.7.1 0 .3.1.4.1 6.6.5 13.5.9 20-1.2 6-1.9 10.9-5.6 15.2-10 1.6-1.6 3.1-3.2 4.5-5 2.6-3.2 5-6.7 7.2-10.4 1.6-2.8 3.1-5.6 4.5-8.5.5-1.2 1-2.1 1.3-3.2.2-.6.1-1.4-.4-1.8-.7-.6-1.7-.6-2.2-.1-.7.6-1.4 1.5-2.4 2.3-3.1 2.6-6.7 4.4-10.4 5.6-3.4 1.1-6.8 1.6-10.3 2-3.8.4-7.6.5-11.4.8-4.5.3-9.2.8-13.7 2-1.8.5-3.6 1.1-5.3 1.9-2.8 1.2-5.4 2.8-7.7 4.9-1.5 1.4-2 2.4-2.6 4.2 0 .1-.1.2-.1.3 0 .2 0 .5.1.7 2.5 4.6 5.1 9.6 9.4 14.1.3.2.8.5 1.2.6z" fill="#7f804f"/><path d="m96.3 232.9c.8.4 1.6.7 2.5 1 .1.1.2.1.4.2 6.1 1.9 12.5 3.7 19.1 2.9 5.9-.7 11.1-3.2 15.8-6.5 1.7-1.2 3.3-2.5 4.9-3.9 2.9-2.6 5.5-5.6 8-8.7 1.8-2.4 3.6-4.8 5.1-7.4.6-1 1.1-1.9 1.6-2.8.3-.5.2-1.3-.3-1.7-.9-.6-1.7-.6-2.4-.2-.8.5-1.5 1.2-2.8 2-3.6 2.2-7.7 3.3-11.7 3.7-3.7.4-7.4.2-11-.3-4-.5-8-1.3-11.9-1.9-4.7-.8-9.6-1.3-14.5-.9-1.9.2-3.9.5-5.8 1-3 .8-6 2.1-8.5 3.9-1.8 1.3-2.1 2.2-2.9 4.2 0 .1-.1.2-.1.3 0 .3 0 .5.2.7 3.9 4.7 8.1 9.5 13.3 13.7.2.3.6.5 1 .7z" fill="#565e32"/><path d="m94.5 253.3c-6.7-2.6-13.8-4.7-21-4-3.2.3-6.4 1.2-9.3 2.7-2.1 1.2-2.3 2-3.2 4.1 0 .1-.1.2-.1.4 0 .3 0 .6.3.8 5.6 5.5 11.7 10.5 18.3 14.8 6.1 4 12.7 7.9 20.1 8.5 7.8.7 14.8-1.8 21.1-5.8 6.2-4 11.6-9.7 16.1-15.4.4-.5.3-1.2-.3-1.5-2.6-1.2-3 .2-5.7 1.3-4 1.7-8.5 2.1-12.8 1.6-8.3-.8-15.9-4.6-23.5-7.5z" fill="#2d3c15"/><path d="m120.8 18.5c-2.7 3.7-2.5 9.6-2.7 14.1-.4 6.7-.1 13.6.8 20.2 1.6 11.4 8.6 22.6 19.5 27.3.1 0 .2.1.2.1.5.1 1-.2 1.1-.7 2.6-9 1.1-18.6-3-27-5.4-11.2-13.6-20.5-14.3-33.5 0-.7-1.1-1.2-1.6-.5z" fill="#f9e5a7"/><path d="m101.9 90.3c2.7 10.1 8.9 20 18.8 24.4l.9.3c1.7.6 3.3.7 4.8.6.1 0 .1 0 .2-.1 0 0 0 0 .1-.1.7-1.4.9-2.6 1.1-4.1.3-2.6.2-5.2-.2-7.7-.9-5.6-3.3-10.8-6.2-15.6-5-8.3-11.3-15.6-14.3-24.8-.6-2-1.1-4.1-1.4-6.3-.1-.7-1-1.3-1.5-.9-.9.8-1.5 1.9-1.9 3-.5 1.3-.5 3.1-1 4.7-.2.5-.3 1.1-.4 1.8-1.2 8.2-1.2 16.8 1 24.8z" fill="#d0c38a"/><path d="m84.3 126.1c3.2 8.9 9 17.5 17.9 21.8.5.2 1 .4 1.5.6 2.8 1.1 5.7 1.8 8.5 2.2.1 0 .3 0 .3-.1 0 0 .1-.1.1-.1.9-1.5 1.2-2.6 1.3-4.3.2-2.8-.1-5.5-.7-8.1-1.4-5.8-4.5-10.9-8-15.8-5.4-7.5-11.7-14.4-15-23-.7-1.9-1.3-3.9-1.6-6-.1-.7-.9-1.3-1.3-1.1-.8.3-1.4.6-1.8 1.1-.5.2-.4 1.2-1.4 2.1-.3.3-.5.8-.7 1.5-2 9.5-2.5 19.9.9 29.2z" fill="#a7a16d"/><path d="m65.9 161c3.4 7.9 8.9 15.2 16.8 19.4.7.3 1.3.7 2 1 3.9 1.8 7.9 3.2 11.9 4.1.2 0 .4 0 .5-.1.1 0 .1-.1.2-.2 1.1-1.5 1.6-2.5 1.7-4.4.2-2.9-.2-5.8-.9-8.6-1.7-6.2-5.5-11.3-9.4-16.2-5.6-6.9-12-13.3-15.5-21.6-.8-1.8-1.4-3.7-1.8-5.7-.1-.7-.7-1.3-1.1-1.4-.8-.3-1.2-.6-1.6-.8-.5-.8 0-.6-1.5-.5-.4 0-.8.5-1 1.1-3.3 11-4.9 23-.3 33.9z" fill="#7f804f"/><path d="m46.4 194.5c3.3 7.1 8.9 13.1 15.7 17.3h.1c.8.5 1.7 1 2.5 1.5 4.8 2.7 9.9 4.9 15.1 6.7.3.1.5 0 .7-.1.1 0 .2-.1.2-.2 1.4-1.6 2-2.3 2.2-4.5.3-3.1-.1-6.2-1-9.1-1.9-6.5-6.1-11.9-10.5-17-5.7-6.5-12.1-12.6-15.8-20.6-.8-1.8-1.5-3.6-1.9-5.5-.2-.6-.5-1.3-.8-1.7-.6-.9-.9-1.8-1.1-2.7-.3-1.9.5-2.2-1.4-3.1-.4-.2-1 .2-1.3.7-5.1 12-8.4 25.8-2.7 38.3z" fill="#565e32"/><path d="m31.9 182.4c-7.5 12.5-13.4 28.2-6.7 42.3 3.1 6.5 8.9 11.3 14.6 15.5 6.5 4.8 13.5 8.8 20.8 12.2.3.1.6.1.8 0 .1 0 .2-.1.3-.2 1.7-1.6 2.4-2.1 2.7-4.4.5-3.2.1-6.5-.7-9.7-1.9-7-6.4-12.9-11.2-18.2-5.7-6.3-12.1-12.2-15.8-20.1-1.7-3.7-2.8-7.7-2.6-11.8.1-2.9 1.2-3.8-.8-5.8-.4-.6-1.1-.3-1.4.2z" fill="#2d3c15"/><path d="m144 65.7c-2.2 9.7-5.2 19.2-8.3 28.6-1.5 4.7-3.2 9.4-4.8 14.1s-3.3 9.4-4.9 14.1c-6.7 18.7-13.7 37.3-21.3 55.7-1.9 4.6-3.9 9.2-5.9 13.7-1 2.3-1.9 4.6-3 6.9l-3.1 6.8-3.1 6.8-1.5 3.4-1.6 3.4-6.5 13.5c-9 17.8-18.8 35.3-29.8 52l-5.8-4c11.1-16.2 21-33.4 30.2-50.8l6.8-13.2 1.7-3.3 1.6-3.3 3.2-6.7 3.2-6.7c1.1-2.2 2.1-4.5 3.1-6.8 2-4.5 4.1-9 6.1-13.5 8-18.1 15.6-36.5 22.7-55 1.8-4.6 3.6-9.3 5.3-13.9s3.5-9.3 5.1-14c3.5-9.3 6.9-18.6 10.6-27.8z" fill="#434026"/><path d="m312.5 274.9c-2.1-1.4-3.5-1.6-6.2-1.9-3.8-.4-7.6-.6-11.5-.7-7.7-.1-15.5.4-23.2 1.5-7.4 1.1-14.9 2.6-21.4 6.5-6.9 4.2-12.3 10.3-17.6 16.3-.1.1-.2.3-.2.4-.4 1-.8 2-1.3 3-.1.3 0 .9.3 1.1 1.1.6 2.3 1.2 3.4 1.6-7.2-.1-14.5.2-21.7.6 1.4-.7 2.8-1.5 4.1-2.4 1.5-1 2.9-2.1 4.3-3.2 3.5-2.8 6.6-6 9.6-9 2.6-2.6 5.1-5.2 7.8-7.7 2.4-2.3 5-4.4 7.8-6.3 3-2 6.3-3.7 10-5 1.1-.4 2.1-.6 3.1-.8.7-.2 1-1.3.5-1.8-.6-.6-1.3-.9-2-1-1.1-.3-2.3-.3-3.8-.4-3.6-.1-7.2 0-10.8.2-4.7.3-9.5.9-14.1 1.8-2.5.5-4.9 1-7.4 1.7-6.8 1.7-13.4 4.1-18.9 8.5-5.9 4.7-10 11.2-14 17.4-.1.1-.1.3-.2.4-.3 1-.6 2-.9 3-.1.4 0 .9.3 1.2 2.7 2.1 5.5 3.5 8.4 4.5-.8.1-1.6.1-2.5.2-4.9.3-9.8.8-14.7 1.2-3.4.3-6.9.6-10.3 1 1.3-.9 2.5-1.9 3.6-2.9 1.4-1.2 2.6-2.5 3.7-3.9 2.9-3.5 5.3-7.2 7.6-10.9 1.9-3.1 3.8-6.3 5.8-9.3 1.9-2.8 3.9-5.4 6.2-7.8 2.6-2.6 5.6-5 9.1-6.8 1.1-.6 2.1-.9 3-1.3.7-.3 1-1.3.5-2-.4-.6-1.2-.8-1.8-.9-1.1-.1-2.2-.1-3.6 0-3.4.2-6.7.6-10.1 1.2-4.4.7-8.7 1.8-13 3.1-2.3.7-4.5 1.5-6.7 2.4-6 2.4-11.8 5.5-16.2 10.4-4.8 5.3-7.6 11.9-10.2 18.3-.1.1-.1.3-.1.4-.2 1-.3 1.9-.5 2.9-.1.4.1.9.3 1.2 2.9 3.2 6.1 5.4 9.3 7.2-8.9.9-17.8 2-26.6 3.1.6-.7 1.3-1.4 1.8-2.1 1.2-1.5 2.2-3 3.1-4.6 2.3-4 3.9-8.4 5.3-12.6 1.2-3.6 2.3-7.2 3.6-10.7 1.2-3.2 2.6-6.3 4.5-9.3 2-3.2 4.6-6.2 7.9-8.5 1.1-.8 2.1-1.2 2.8-1.7.6-.4.9-1.3.4-2.1-.3-.6-1.1-.8-1.7-.8-1.1.1-2.1.2-3.3.5-3.1.6-6.2 1.3-9.2 2.2-4 1.2-8 2.6-11.7 4.3-2 .9-4 1.9-5.9 3-5.2 3.1-10 6.8-13.3 12-3.7 5.7-5 12.4-6.2 18.9v.4 2.8c0 .4.1.9.4 1.3 2.3 3.6 4.9 6.5 7.6 9.2-3.1.5-6.3 1-9.4 1.4-2.4.4-4.9.7-7.3 1.1l-7.3 1.3-4.8.8c.5-.7.9-1.4 1.3-2.2 1-1.7 1.7-3.5 2.4-5.3 1.6-4.6 2.3-9.4 2.8-14.1.4-4 .6-7.9 1.1-11.9.5-3.6 1.2-7.1 2.4-10.6 1.4-3.7 3.5-7.4 6.5-10.2 1.1-1 2-1.5 2.7-2.2.5-.5.7-1.3.4-2.3-.2-.6-.9-.8-1.5-.7-1 .2-2 .5-3 .9-2.8.9-5.6 1.9-8.3 3.1-3.6 1.5-7.1 3.3-10.3 5.4-1.7 1.1-3.4 2.4-5 3.7-4.3 3.6-8 8-10.2 13.4-2.4 6.1-2.4 12.6-2 19v.4c.1.9.2 1.8.4 2.6.1.4.2.9.4 1.3 2 4.4 4.5 8.4 7 12.1l-11.2 2.2c-6.1 1.3-12.3 2.8-18.4 4.3.3-.7.6-1.4.9-2.1 2.5-6.8 2.2-14.1 1.4-21.1-.9-8.1-2.6-16.2-1.4-24.4.7-4.2 2.1-8.4 4.7-11.8 1.8-2.3 3.2-2.4 2.7-5.1-.1-.6-.8-.9-1.4-.6-6.6 2.9-13.3 6.6-18.7 11.6-5.4 4.9-9.5 11.1-10.8 18.7-1.2 7.2.8 14.5 3.1 21.3 2 5.8 4.4 11.4 7.2 16.8-8.9 2.4-17.8 5.1-26.6 8.1l2.3 6.5c11-3.9 22.1-7.3 33.4-10.4-.5.3-1 .6-1.6 1-.1.1-.2.2-.3.2-.2.2-.3.5-.2.8 1.4 7.8 3.5 15.5 6.5 22.9 2.6 6.5 5.7 13.2 11.1 17.8 11.8 10 28.3 8.2 42.1 4.2.6-.2 1-.8.6-1.4-1.4-2.4-2.5-1.6-5.3-2.2-3.9-.9-7.5-2.9-10.6-5.5-6.6-5.4-10.6-13.1-15.3-20.1-3.9-5.9-8.4-11.7-14.7-15.2-2.8-1.6-5.9-2.8-9.1-3.1-.5-.1-.9-.1-1.3-.1 6.9-1.9 13.8-3.6 20.7-5.3l10.9-2.4c.4 5.4 1.2 10.7 2.6 16 .2.9.5 1.9.8 2.8v.1c2.3 7.6 6.6 14.4 12.6 19.3 10.5 8.6 24.6 8.9 37.2 6.9.6-.1 1.1-.6 1-1-.4-2-1-1.3-2.7-2.1-.8-.4-1.5-.9-2.3-1.7-.3-.3-.8-.8-1.4-1.1-1.7-.9-3.3-2-4.8-3.2-6.7-5.5-11-13.1-15.8-20.2-3.7-5.5-7.8-10.8-13.6-14.3-2.1-1.3-4.4-2.3-6.9-2.9h.1l3.6-.7 7.2-1.4 7.2-1.4c2.4-.5 4.8-.8 7.2-1.3 1.6-.3 3.2-.6 4.9-.8-.1 3.9.2 8 .9 12 .1.7.3 1.5.4 2.2v.1c2.1 8.6 7.6 15.7 14.4 20.9 9.2 7.1 21.2 8.6 32.4 8 .6 0 1.2-.3 1.3-.7.5-1.4.6-.9-.1-1.6-.1-.4-.3-.9-.3-1.7 0-.4-.5-1.1-1.1-1.4-1.8-.9-3.5-2-5-3.2-7-5.4-11.6-13.1-16.8-20.2-3.7-5-7.7-9.9-13.1-13-1.9-1.1-4-2-6.2-2.6.9-.2 1.8-.3 2.8-.5 9.1-1.5 18.3-2.9 27.4-4.1-.3 2.5-.3 5.2 0 7.9.1.5.1 1 .2 1.5 1.9 9.6 8.6 17.2 16.4 22.5 8.1 5.6 18.1 7.6 27.8 8 .6 0 1.2-.1 1.6-.3 1.1-.7 2-.3 2.4-.8.5-.2 1-.7 1.5-1.4.2-.4-.1-1.2-.8-1.5-1.9-.8-3.7-1.9-5.3-3.1-7.5-5.3-12.4-13.1-18.3-20.1-3.7-4.5-7.8-8.8-13.1-11.5-1.8-.9-3.7-1.7-5.8-2.2 8-1.1 16-2.1 24.1-3 2-.2 4-.5 6.1-.7-.3 1.2-.4 2.4-.3 3.8 0 .3.1.6.1.9 1.8 10.6 9.7 18.9 18.7 24.1 7 4 15.3 6.2 23.4 7.2.6.1 1.3.1 1.8.1 1.7-.1 3.4.3 4.7.2 1.2-.1 2.3-.4 3.3-1.1.5-.4.2-1.4-.5-1.6-2-.8-3.9-1.8-5.7-2.9-8-5.1-13.5-13-20.1-19.8-3.9-4-8.3-7.6-13.4-9.8-1.6-.7-3.3-1.3-5.1-1.7.5-.1 1-.1 1.6-.2 4.9-.5 9.7-1 14.6-1.4 4.7-.4 9.3-.9 14-1.3 1.8 11.5 10.8 21 21.3 25.4 6.1 2.6 12.6 4.5 19.1 5.8 4.3.9 10 2.6 14.2.9.8-.3.6-1.5-.2-1.8-12.2-3.9-19.1-14.1-28.4-22-5.5-4.7-12-8-19.1-9.2 1.9-.2 3.8-.4 5.7-.7 4.6 1.5 9.4 1.8 14.1 1.1 6.3-.9 12.6-3.4 18.1-6.5 7.2-4.1 13.9-9 20.9-13 7-4.1 14.3-7.3 22.9-8.1 1.6-.4 1.9-1.5 1.3-2z" opacity=".1"/><path d="m306 274.6c-8.6.8-15.9 4.1-22.9 8.1-7 4.1-13.6 8.9-20.9 13-5.5 3.1-11.7 5.6-18.1 6.5-6.3.9-12.7.2-18.6-3.1-.3-.2-.5-.8-.3-1.1.4-1 .8-2 1.3-3 0-.1.1-.3.2-.4 5.3-6 10.6-12.1 17.6-16.3 6.5-3.9 14-5.5 21.4-6.5 7.7-1.1 15.4-1.6 23.2-1.5 3.8.1 7.7.3 11.5.7 2.6.3 4 .5 6.2 1.9.5.5.2 1.6-.6 1.7z" fill="#f9e5a7"/><path d="m182.4 296.9.9-3c0-.1.1-.3.2-.4 4-6.2 8.1-12.7 14-17.4 5.5-4.4 12.2-6.7 18.9-8.5 2.4-.6 4.9-1.2 7.4-1.7 4.6-.9 9.4-1.5 14.1-1.8 3.6-.2 7.2-.3 10.8-.2 1.5 0 2.7.1 3.8.4.7.2 1.4.5 2 1s.3 1.7-.5 1.8c-1 .2-2 .5-3.1.8-3.7 1.2-7 2.9-10 5-2.8 1.9-5.3 4-7.8 6.3-2.7 2.5-5.2 5.1-7.8 7.7-3 3.1-6.2 6.2-9.6 9-1.3 1.1-2.8 2.2-4.3 3.2-2.4 1.6-4.9 2.9-7.6 4-1.6.6-2.9.9-4.6 1.1-.1 0-.2 0-.3 0-.2 0-.4 0-.6 0-5.3-.7-10.8-2.2-15.6-6-.3-.4-.4-1-.3-1.3z" fill="#d0c38a"/><path d="m141.1 297.7c.1-1 .3-1.9.5-2.9 0-.1 0-.3.1-.4 2.6-6.4 5.3-13 10.2-18.3 4.5-4.9 10.2-7.9 16.2-10.4 2.2-.9 4.4-1.7 6.7-2.4 4.2-1.3 8.6-2.3 13-3.1 3.3-.6 6.7-1 10.1-1.2 1.4-.1 2.5-.2 3.6 0 .7.1 1.4.3 1.8.9.5.7.2 1.7-.5 2-.9.4-1.9.7-3 1.3-3.5 1.8-6.5 4.1-9.1 6.8-2.4 2.4-4.4 5.1-6.2 7.8-2 3-3.9 6.2-5.8 9.3-2.3 3.7-4.7 7.5-7.6 10.9-1.1 1.4-2.4 2.7-3.7 3.9-2.1 1.9-4.5 3.7-7.2 5-1.7.9-2.8 1.1-4.6 1.3-.1 0-.2 0-.3 0-.2 0-.4-.1-.6-.1-4.4-2.2-9.1-4.7-13.1-9.2-.5-.3-.6-.8-.5-1.2z" fill="#a7a16d"/><path d="m102.2 300.7c0-.9 0-1.9 0-2.8 0-.1 0-.3 0-.4 1.2-6.4 2.5-13.1 6.2-18.9 3.3-5.2 8.1-9 13.3-12 1.9-1.1 3.8-2.1 5.9-3 3.7-1.7 7.7-3.1 11.7-4.3 3-.9 6.1-1.6 9.2-2.2 1.2-.2 2.3-.4 3.3-.5.6 0 1.4.2 1.7.8.4.8.1 1.7-.4 2.1-.8.5-1.7.9-2.8 1.7-3.3 2.3-5.9 5.3-7.9 8.5-1.9 3-3.3 6.1-4.5 9.3-1.3 3.5-2.4 7.1-3.6 10.7-1.4 4.3-3 8.6-5.3 12.6-.9 1.6-1.9 3.1-3.1 4.6-1.8 2.3-4.1 4.4-6.6 6.1-1.7 1.1-2.7 1.3-4.7 1.5-.1 0-.2 0-.3 0-.2 0-.4-.1-.6-.3-3.8-3.5-7.9-7.3-11.1-12.5-.3-.1-.4-.6-.4-1z" fill="#7f804f"/><path d="m61 304.7c-.1-.9-.3-1.7-.4-2.6 0-.1 0-.3 0-.4-.3-6.3-.4-12.9 2-19 2.2-5.5 5.8-9.8 10.2-13.4 1.6-1.3 3.2-2.5 5-3.7 3.2-2.1 6.7-3.9 10.3-5.4 2.7-1.2 5.5-2.2 8.3-3.1 1.1-.3 2.1-.6 3-.9.6-.1 1.3.1 1.5.7.3 1 .1 1.8-.4 2.3-.6.7-1.6 1.2-2.7 2.2-3 2.9-5.1 6.5-6.5 10.2-1.3 3.5-2 7-2.4 10.6-.5 3.9-.7 7.9-1.1 11.9-.5 4.7-1.2 9.5-2.8 14.1-.6 1.8-1.4 3.6-2.4 5.3-1.5 2.7-3.4 5.2-5.8 7.2-1.7 1.4-2.6 1.5-4.7 1.7-.1 0-.2 0-.3 0-.2 0-.5-.1-.6-.4-3.5-4.9-7-10.1-9.8-16.1-.2-.3-.3-.7-.4-1.2z" fill="#565e32"/><path d="m41.1 301.4c.8 7.1 1 14.3-1.4 21.1-1.1 3-2.7 5.9-4.9 8.2-1.6 1.7-2.5 1.7-4.7 2-.1 0-.3 0-.4 0-.3 0-.5-.2-.7-.5-3.9-6.7-7.1-13.8-9.6-21.2-2.3-6.8-4.4-14.1-3.1-21.3 1.3-7.6 5.4-13.7 10.8-18.7s12.1-8.7 18.7-11.6c.5-.2 1.3 0 1.4.6.5 2.8-.9 2.9-2.7 5.1-2.6 3.4-4.1 7.6-4.7 11.8-1.3 8.3.4 16.5 1.3 24.5z" fill="#2d3c15"/><path d="m272.1 334.7c-4.2 1.7-9.8-.1-14.2-.9-6.5-1.3-13-3.2-19.1-5.8-10.5-4.4-19.4-13.9-21.3-25.4 0-.1 0-.2 0-.2 0-.5.4-.9 1-.9 9.3-.3 18 3.6 25 9.6 9.3 8 16.2 18.1 28.4 22 .7.1 1 1.3.2 1.6z" fill="#f9e5a7"/><path d="m198.8 334.9c-9-5.1-16.9-13.5-18.7-24.1 0-.3-.1-.6-.1-.9-.1-1.7.1-3.4.6-4.8 0-.1.1-.1.1-.2h.1c1.5-.3 2.7-.2 4.2 0 2.5.4 5 1.1 7.3 2.1 5.1 2.2 9.5 5.8 13.4 9.8 6.7 6.8 12.1 14.7 20.1 19.8 1.8 1.1 3.6 2.1 5.7 2.9.7.3 1 1.3.5 1.6-1 .7-2.2 1-3.3 1.1-1.4.1-3.1-.3-4.7-.2-.5 0-1.1 0-1.8-.1-8.2-.7-16.4-2.9-23.4-7z" fill="#d0c38a"/><path d="m160.1 342.8c-7.7-5.3-14.5-12.9-16.4-22.5-.1-.5-.2-1-.2-1.5-.4-3-.3-5.9 0-8.6 0-.1.1-.2.2-.3 0 0 .1-.1.1-.1 1.6-.5 2.7-.5 4.4-.2 2.7.5 5.2 1.4 7.6 2.7 5.3 2.8 9.3 7 13.1 11.5 5.8 7 10.8 14.8 18.3 20.1 1.6 1.2 3.4 2.2 5.3 3.1.6.3 1 1.1.8 1.5-.5.7-1 1.2-1.5 1.4-.4.5-1.3.1-2.4.8-.3.2-.9.3-1.6.3-9.6-.5-19.6-2.6-27.7-8.2z" fill="#a7a16d"/><path d="m122.2 351.7c-6.7-5.2-12.3-12.3-14.4-20.9s0 0 0-.1c-.2-.7-.3-1.4-.4-2.2-.8-4.2-1-8.3-.9-12.4 0-.2.1-.4.2-.5.1 0 .1-.1.2-.1 1.8-.7 2.7-.9 4.6-.5 2.8.5 5.5 1.6 8 3 5.5 3.2 9.4 8 13.1 13 5.2 7.1 9.8 14.8 16.8 20.2 1.5 1.2 3.2 2.3 5 3.2.6.3 1 1 1.1 1.4.1.8.2 1.3.3 1.7.7.7.5.2.1 1.6-.1.3-.7.6-1.3.7-11.2.5-23.2-1-32.4-8.1z" fill="#7f804f"/><path d="m85.3 362c-6-4.9-10.3-11.7-12.6-19.3s0 0 0-.1c-.3-.9-.5-1.8-.8-2.8-1.4-5.3-2.2-10.7-2.6-16.1 0-.3.1-.5.3-.6.1-.1.1-.1.2-.2 1.9-.9 2.7-1.3 4.8-1 3 .5 5.9 1.6 8.5 3.2 5.8 3.5 9.9 8.8 13.6 14.3 4.8 7 9 14.7 15.8 20.2 1.5 1.2 3.1 2.3 4.8 3.2.6.3 1.1.8 1.4 1.1.7.8 1.5 1.3 2.3 1.7 1.7.8 2.3.1 2.7 2.1.1.5-.4.9-1 1-12.8 2.2-26.9 1.9-37.4-6.7z" fill="#565e32"/><path d="m93.3 379c-13.8 4.1-30.3 5.8-42.1-4.2-5.5-4.6-8.6-11.3-11.1-17.8-2.9-7.4-5.1-15.1-6.5-22.9-.1-.3 0-.6.2-.8.1-.1.2-.2.3-.2 1.9-1.2 2.6-1.8 4.9-1.5 3.2.4 6.3 1.5 9.1 3.1 6.2 3.6 10.8 9.3 14.7 15.2 4.6 7 8.7 14.6 15.3 20.1 3.1 2.5 6.7 4.6 10.6 5.5 2.8.6 3.9-.2 5.3 2.2.2.5-.2 1.1-.7 1.3z" fill="#2d3c15"/><path d="m232.8 300.8c-9.8-.3-19.7.2-29.5.8-4.9.3-9.8.7-14.7 1s-9.8.8-14.7 1.2c-19.6 1.7-39.1 3.8-58.6 6.5-4.9.7-9.7 1.5-14.6 2.2-2.4.4-4.9.7-7.3 1.1l-7.3 1.3-7.3 1.3-3.6.6-3.6.7-14.5 2.9c-19.3 4.2-38.4 9.1-57.2 15.5l2.3 6.5c18.3-6.5 37.1-11.7 56.1-16.2l14.3-3.2 3.6-.8 3.6-.7 7.2-1.4 7.2-1.4c2.4-.5 4.8-.8 7.2-1.3 4.8-.8 9.6-1.7 14.5-2.5 19.3-3.2 38.7-5.8 58.2-8.1 4.9-.6 9.7-1.1 14.6-1.6s9.7-1 14.6-1.4c9.9-.9 19.7-1.7 29.5-3z" fill="#434026"/><path d="m224.2 205.1c-8.9 2.6-17.2-.8-26-1.9-5.2-.6-10.5 0-15.2 2.1 1.1-.9 2.1-1.8 3.2-2.7 3.4-.9 6.4-2.7 9-5 3.5-3.1 6.2-7.1 8.3-11.2 2.7-5.4 4.8-11 7.4-16.2 2.6-5.3 5.7-10.2 10.6-14.1.5-.4.2-1.2-.4-1.2-1.8 0-2.8.4-4.5 1.3-2.5 1.3-4.9 2.7-7.2 4.2-4.7 3-9.2 6.5-13.4 10.2-4.1 3.6-8 7.6-10.3 12.5-2.5 5.3-3.3 11.2-4.1 16.9v.4c.1.8.3 1.6.4 2.3.1.3.4.6.6.5 1-.1 1.9-.2 2.8-.4-4.4 2.9-8.7 6-13 9.1.6-1 1.1-2.1 1.5-3.1.5-1.2.9-2.4 1.3-3.6.9-3.1 1.6-6.2 2.2-9.3.5-2.6 1-5.2 1.6-7.8.6-2.3 1.2-4.6 2.2-6.9 1-2.4 2.3-4.8 4.1-7 .5-.6 1-1.2 1.5-1.7.4-.4.1-1.2-.5-1.3s-1.1 0-1.6.2c-.8.3-1.5.7-2.5 1.3-2.2 1.4-4.4 2.9-6.4 4.5-2.7 2.1-5.3 4.4-7.8 6.8-1.3 1.3-2.6 2.6-3.8 4-3.4 3.8-6.5 7.8-8 12.7-1.7 5.2-1.5 10.8-1.4 16.1 0 .1 0 .2.1.3.2.7.4 1.4.7 2.1.1.3.4.5.7.6 2.5.2 4.7-.1 6.9-.7-.5.4-1 .7-1.4 1.1-2.8 2.2-5.6 4.4-8.4 6.6-2 1.6-3.9 3.1-5.8 4.7.4-1 .8-2.1 1-3.2.3-1.3.5-2.6.7-3.9.4-3.3.3-6.5.2-9.6-.1-2.7-.2-5.3-.2-7.9 0-2.4.2-4.8.6-7.2.5-2.6 1.4-5.2 2.8-7.7.4-.8.9-1.4 1.3-2 .3-.5 0-1.2-.5-1.4s-1 0-1.5.2c-.7.4-1.4.9-2.2 1.5-1.9 1.5-3.8 3.1-5.6 4.8-2.4 2.2-4.6 4.6-6.6 7.1-1.1 1.3-2.1 2.7-3.1 4.1-2.7 3.9-4.9 8-5.7 12.8-.8 5.1.2 10.2 1.2 15.1 0 .1.1.2.1.3.3.6.6 1.3.9 1.9.1.3.4.5.7.6 3 .8 5.9.8 8.5.6-5 4.1-9.9 8.3-14.9 12.6.1-.7.2-1.3.3-2 .1-1.4.1-2.7 0-4-.2-3.4-1-6.6-1.8-9.8-.7-2.6-1.5-5.3-2.1-7.9-.6-2.4-1-4.9-1.1-7.4-.1-2.8.3-5.6 1.3-8.3.4-.9.8-1.6 1-2.2.2-.5 0-1.1-.6-1.5-.4-.2-1-.1-1.3.2-.6.5-1.2 1-1.8 1.6-1.6 1.6-3.2 3.3-4.7 5-2 2.3-3.8 4.7-5.3 7.3-.8 1.4-1.6 2.8-2.3 4.2-1.9 3.9-3.3 8.1-3.2 12.6.1 4.9 2 9.5 3.8 13.9 0 .1.1.2.2.3.4.6.7 1.1 1.1 1.7.2.3.5.5.7.6 2.8 1.3 5.6 2 8.3 2.5-1.7 1.5-3.4 3.1-5.1 4.6-1.3 1.2-2.7 2.4-4 3.6l-3.9 3.7-2.6 2.4c0-.6 0-1.2-.1-1.8-.1-1.4-.4-2.8-.7-4.1-.9-3.4-2.4-6.6-4-9.6-1.4-2.5-2.8-5-4.1-7.6-1.2-2.4-2.2-4.8-2.8-7.4-.7-2.8-.9-5.8-.2-8.8.2-1.1.6-1.7.7-2.4.1-.5-.1-1.1-.7-1.5-.4-.3-.9-.1-1.2.2-.5.5-1 1.1-1.5 1.7-1.3 1.6-2.6 3.4-3.8 5.2-1.6 2.4-2.9 4.9-4 7.4-.6 1.4-1.1 2.8-1.5 4.2-1.2 3.9-1.6 8-.7 12.2 1 4.6 3.6 8.6 6.4 12.3.1.1.1.2.2.2.4.5.8 1 1.3 1.4.2.2.5.5.8.6 3 1.9 6.1 3.3 9.1 4.5l-5.9 5.9c-3.2 3.3-6.3 6.6-9.4 10-.1-.6-.2-1.1-.3-1.6-1.2-5.1-4.3-9.4-7.6-13.3-3.8-4.5-8.1-8.7-10.6-14.2-1.3-2.8-2.1-5.9-1.9-9 .2-2.1 1-2.7-.4-4.2-.3-.3-.9-.2-1.1.2-2.8 4.4-5.4 9.3-6.7 14.5s-1.3 10.5 1 15.6c2.2 4.9 6.3 8.5 10.4 11.6 3.5 2.7 7.2 5.1 11.1 7.2-4.4 5-8.7 10.2-12.8 15.5l4 3c5-6.8 10.4-13.3 16-19.7-.2.3-.4.7-.6 1.3 0 .1-.1.2-.1.3 0 .2 0 .4.2.6 4 4.2 8.4 7.9 13.1 11.2 4.2 2.9 8.7 5.7 13.9 6.3 11.2 1.3 20.4-6.4 27.1-14.4.3-.3.3-.9-.2-1.1-1.8-.9-2.2 0-4.1.8-2.7 1.1-5.7 1.3-8.6 1-6.1-.6-11.7-3.6-17.3-6-4.7-2-9.8-3.7-15-3.3-2.3.2-4.6.7-6.7 1.8-.3.2-.6.3-.8.5 3.4-3.9 6.9-7.7 10.4-11.5l5.6-5.8c2.4 3.1 5 6 8 8.6.5.5 1 .9 1.6 1.4 4.5 3.7 9.8 6 15.4 6.6 9.8 1 18.4-4.5 25.2-10.8.3-.3.4-.8.2-1-1.1-1.1-1.1-.4-2.5-.2-.6.1-1.3.1-2.1-.1-.3-.1-.8-.2-1.3-.1-1.4.1-2.8.1-4.2 0-6.2-.6-11.9-3.5-17.6-5.9-4.4-1.8-9.1-3.4-14-3.2-1.8.1-3.6.4-5.3 1l.1-.1 1.9-1.9 3.8-3.7 3.8-3.7c1.3-1.2 2.6-2.4 3.9-3.7.9-.8 1.7-1.6 2.6-2.5 1.5 2.4 3.3 4.7 5.4 6.8.4.4.8.8 1.1 1.1 4.7 4.4 10.9 6.5 17.1 6.9 8.4.6 16.2-3.3 22.8-8.2.4-.3.6-.7.5-.9-.3-1 0-.8-.7-.9-.2-.2-.5-.4-.9-.9-.2-.2-.7-.5-1.2-.4-1.4.2-2.9.2-4.3.1-6.4-.5-12.3-3.3-18.2-5.5-4.2-1.5-8.6-2.9-13.2-2.6-1.6.1-3.2.4-4.8.9.5-.5 1-.9 1.5-1.4 4.9-4.6 9.9-9.1 14.9-13.5.8 1.6 1.9 3.3 3.2 4.8.2.3.5.6.8.8 5 5.1 12.1 6.9 18.9 7 7.1.1 14-2.7 20-6.3.4-.2.7-.5.8-.8.4-.9 1.1-1 1.1-1.4.2-.4.3-.8.3-1.5 0-.3-.6-.7-1.1-.6-1.5.3-3 .3-4.4.3-6.6-.2-12.8-2.9-19.1-4.8-4.1-1.2-8.3-2.2-12.5-1.7-1.5.2-2.9.5-4.4 1 4.4-3.9 8.9-7.7 13.3-11.5 1.1-1 2.3-1.9 3.4-2.9.3.8.7 1.6 1.3 2.4.1.2.3.3.4.5 5.3 5.7 13.5 7.5 20.9 7 5.9-.4 11.7-2.4 17-5 .4-.2.8-.4 1.1-.7 1-.7 2.2-1.2 2.9-1.8.7-.5 1.2-1.2 1.6-2 .2-.4-.4-.9-.9-.8-1.5.3-3.1.5-4.6.5-6.9.1-13.4-2.4-20.1-3.9-4-.9-8-1.3-12-.6-1.3.2-2.5.6-3.7 1 .3-.2.6-.5.9-.7 2.7-2.3 5.5-4.5 8.3-6.7 2.6-2.1 5.3-4.3 7.9-6.4 5.7 6.2 15 8.3 23.1 6.8 4.7-.9 9.4-2.3 13.9-4.2 3-1.2 7.1-2.4 8.9-5.1.6-.6-.1-1.2-.6-1z" opacity=".1"/><path d="m215.4 154.1c-4.9 3.9-8 8.9-10.6 14.1-2.6 5.3-4.7 10.9-7.4 16.2-2.1 4.1-4.8 8.1-8.3 11.2s-7.6 5.2-12.5 5.6c-.3 0-.6-.3-.6-.5-.1-.8-.3-1.6-.4-2.3 0-.1-.1-.2 0-.4.8-5.7 1.6-11.6 4.1-16.9 2.4-5 6.3-8.9 10.3-12.5 4.2-3.7 8.7-7.2 13.4-10.2 2.3-1.5 4.7-2.9 7.2-4.2 1.7-.9 2.6-1.3 4.5-1.3.4 0 .7.8.3 1.2z" fill="#f9e5a7"/><path d="m149.6 217.2c-.2-.7-.4-1.4-.7-2.1-.1-.1-.1-.2-.1-.3-.1-5.4-.2-10.9 1.4-16.1 1.6-4.9 4.6-9 8-12.7 1.2-1.4 2.5-2.7 3.8-4 2.5-2.4 5.1-4.7 7.8-6.8 2.1-1.6 4.2-3.1 6.4-4.5.9-.6 1.6-1 2.5-1.3.5-.2 1-.3 1.6-.2s.8.9.5 1.3c-.5.5-1 1.1-1.5 1.7-1.7 2.2-3.1 4.6-4.1 7-.9 2.3-1.6 4.6-2.2 6.9-.6 2.6-1.1 5.1-1.6 7.8-.6 3.1-1.2 6.2-2.2 9.3-.4 1.2-.8 2.4-1.3 3.6-.8 1.9-1.8 3.7-3 5.4-.7 1-1.4 1.7-2.3 2.5-.1.1-.1.1-.2.1-.1.1-.3.2-.4.2-3.5 1.7-7.4 3-11.9 2.6-.1.2-.4-.1-.5-.4z" fill="#d0c38a"/><path d="m125 234.3c-.3-.6-.6-1.3-.9-1.9-.1-.1-.1-.2-.1-.3-1-4.9-2-10-1.2-15.1.7-4.7 3-8.9 5.7-12.8 1-1.4 2-2.8 3.1-4.1 2-2.5 4.2-4.8 6.6-7.1 1.8-1.7 3.7-3.3 5.6-4.8.8-.6 1.4-1.1 2.2-1.5.4-.2 1-.4 1.5-.2.6.2.8.9.5 1.4-.4.6-.8 1.2-1.3 2-1.4 2.5-2.3 5.1-2.8 7.7-.4 2.4-.6 4.8-.6 7.2 0 2.6.1 5.3.2 7.9.1 3.2.2 6.4-.2 9.6-.1 1.3-.4 2.6-.7 3.9-.5 2-1.3 4-2.3 5.9-.7 1.2-1.3 1.8-2.3 2.6-.1.1-.1.1-.2.1-.1.1-.3.1-.4.2-3.6.4-7.4.9-11.6-.3-.4.1-.7-.1-.8-.4z" fill="#a7a16d"/><path d="m102.7 251.7c-.4-.6-.7-1.1-1.1-1.7-.1-.1-.1-.2-.2-.3-1.9-4.4-3.8-8.9-3.8-13.9-.1-4.5 1.3-8.7 3.2-12.6.7-1.4 1.5-2.8 2.3-4.2 1.6-2.5 3.4-5 5.3-7.3 1.5-1.8 3.1-3.4 4.7-5 .7-.6 1.2-1.2 1.8-1.6.4-.3.9-.4 1.3-.2.6.3.8 1 .6 1.5-.3.6-.7 1.3-1 2.2-1 2.7-1.4 5.6-1.3 8.3.1 2.5.5 5 1.1 7.4.6 2.7 1.4 5.3 2.1 7.9.9 3.1 1.6 6.4 1.8 9.8.1 1.3.1 2.7 0 4-.2 2.1-.7 4.3-1.5 6.3-.6 1.4-1.1 1.9-2.2 2.8-.1.1-.1.1-.2.1-.1.1-.3.1-.5.1-3.7-.6-7.7-1.3-11.7-3.1-.2 0-.5-.2-.7-.5z" fill="#7f804f"/><path d="m79.5 270.7c-.4-.5-.9-.9-1.3-1.4-.1-.1-.1-.1-.2-.2-2.7-3.7-5.4-7.6-6.4-12.3-.9-4.2-.4-8.3.7-12.2.4-1.4.9-2.8 1.5-4.2 1.1-2.6 2.5-5 4-7.4 1.2-1.8 2.4-3.5 3.8-5.2.5-.6 1-1.2 1.5-1.7.3-.3.9-.5 1.2-.2.6.5.8 1 .7 1.5-.1.7-.5 1.3-.7 2.4-.7 2.9-.5 6 .2 8.8.6 2.6 1.6 5 2.8 7.4 1.3 2.6 2.7 5.1 4.1 7.6 1.6 3 3.1 6.2 4 9.6.3 1.3.6 2.7.7 4.1.2 2.2 0 4.5-.6 6.7-.5 1.5-1 1.9-2.2 2.9-.1.1-.1.1-.2.1-.2.1-.3.1-.5 0-4.1-1.5-8.3-3.3-12.4-5.8-.2-.1-.5-.3-.7-.5z" fill="#565e32"/><path d="m66.1 276.7c3.3 3.9 6.4 8.2 7.6 13.3.6 2.3.7 4.6.3 6.9-.3 1.7-.8 2-2 3.1-.1.1-.1.1-.2.1-.2.1-.4.1-.6 0-5-2.5-9.8-5.5-14.3-8.9-4.1-3.2-8.3-6.8-10.4-11.6-2.3-5.1-2.3-10.5-1-15.6s3.8-10.1 6.7-14.5c.2-.4.8-.5 1.1-.2 1.4 1.5.6 2.1.4 4.2-.2 3.1.6 6.2 1.9 9 2.4 5.4 6.7 9.7 10.5 14.2z" fill="#2d3c15"/><path d="m219 204.1c-1.9 2.7-6 3.9-8.9 5.1-4.5 1.8-9.2 3.3-13.9 4.2-8.1 1.5-17.3-.6-23.1-6.8s-.1-.1-.1-.1c-.2-.3-.1-.7.2-.9 5.5-3.9 12.3-5.1 19-4.3 8.8 1.1 17.1 4.5 26 1.9.5-.3 1.2.3.8.9z" fill="#f9e5a7"/><path d="m174.8 233.6c-7.5.5-15.6-1.4-20.9-7-.1-.2-.3-.3-.4-.5-.8-1-1.3-2.1-1.6-3.1 0-.1 0-.1 0-.1s0 0 0-.1c.8-.8 1.5-1.2 2.5-1.7 1.7-.8 3.5-1.3 5.3-1.7 4-.7 8.1-.3 12 .6 6.8 1.5 13.2 4 20.1 3.9 1.5 0 3-.2 4.6-.5.5-.1 1.1.4.9.8-.3.8-.9 1.4-1.6 2-.8.6-2 1.1-2.9 1.8-.3.2-.7.5-1.1.7-5.2 2.5-11 4.5-16.9 4.9z" fill="#d0c38a"/><path d="m154.6 253.9c-6.8-.1-13.9-2-18.9-7-.3-.3-.5-.6-.8-.8-1.4-1.6-2.5-3.4-3.4-5.2 0-.1 0-.2 0-.3 0 0 0-.1.1-.1.8-.9 1.4-1.4 2.6-1.9 1.8-.8 3.7-1.2 5.7-1.4 4.3-.4 8.5.5 12.5 1.7 6.3 1.9 12.5 4.6 19.1 4.8 1.5 0 2.9 0 4.4-.3.5-.1 1.1.3 1.1.6 0 .6-.1 1.1-.3 1.5 0 .4-.7.5-1.1 1.4-.1.3-.4.6-.8.8-6.2 3.6-13.1 6.3-20.2 6.2z" fill="#a7a16d"/><path d="m135.3 274.5c-6.1-.4-12.4-2.5-17.1-6.9-.4-.4-.8-.8-1.1-1.1-2.1-2.2-4-4.6-5.6-7.1-.1-.1-.1-.3 0-.4 0-.1 0-.1.1-.2.8-1.1 1.3-1.6 2.6-2.2 1.9-.8 4-1.2 6-1.4 4.6-.3 8.9 1.1 13.2 2.6 6 2.2 11.8 5 18.2 5.5 1.4.1 2.8.1 4.3-.1.5-.1 1 .2 1.2.4.4.5.7.7.9.9.7.1.4-.1.7.9.1.2-.2.7-.5.9-6.7 4.9-14.5 8.8-22.9 8.2z" fill="#7f804f"/><path d="m117.1 295.5c-5.6-.6-10.9-3-15.4-6.6-.5-.4-1.1-.9-1.6-1.4-3-2.7-5.6-5.6-8-8.7-.1-.2-.1-.3-.1-.5 0-.1 0-.1.1-.2.7-1.3 1.1-1.9 2.5-2.5 2-.9 4.2-1.4 6.4-1.5 4.9-.2 9.5 1.4 14 3.2 5.7 2.3 11.4 5.3 17.6 5.9 1.4.1 2.8.2 4.2 0 .5 0 1 .1 1.3.1.7.2 1.4.2 2.1.1 1.3-.2 1.4-.8 2.5.2.2.2.1.7-.2 1-7 6.4-15.6 11.9-25.4 10.9z" fill="#565e32"/><path d="m128.8 302.6c-6.7 8-15.9 15.7-27.1 14.4-5.1-.6-9.7-3.4-13.9-6.3-4.7-3.3-9.1-7.1-13.1-11.2-.2-.2-.2-.4-.2-.6 0-.1 0-.2.1-.3.7-1.5.8-2.1 2.4-2.9 2.1-1.1 4.4-1.6 6.7-1.8 5.2-.3 10.2 1.3 15 3.3 5.6 2.4 11.1 5.4 17.3 6 2.9.3 5.9.1 8.6-1 1.9-.8 2.3-1.7 4.1-.8.3.3.3.8.1 1.2z" fill="#2d3c15"/><path d="m181.6 199.4c-6.1 3.8-11.8 8-17.5 12.3-2.8 2.1-5.7 4.3-8.5 6.5s-5.6 4.4-8.4 6.6c-11.1 8.9-22.1 18-32.8 27.5-2.7 2.4-5.3 4.8-7.9 7.2-1.3 1.2-2.7 2.4-4 3.6l-3.9 3.7-3.9 3.7-1.9 1.8-1.9 1.9-7.6 7.6c-9.8 10.2-19.4 20.8-28.2 32.2l4 3c8.4-11.3 17.7-22 27.4-32.3l7.4-7.7 1.8-1.9 1.9-1.9 3.8-3.7 3.8-3.7c1.3-1.2 2.6-2.4 3.9-3.7 2.6-2.4 5.1-4.9 7.7-7.3 10.4-9.7 21.1-19.1 31.9-28.2 2.7-2.3 5.4-4.6 8.2-6.8 2.7-2.3 5.5-4.5 8.3-6.7 5.5-4.6 11-9.1 16.4-13.7z" fill="#434026"/></svg>