<svg enable-background="new 0 0 383.9 226.5" viewBox="0 0 383.9 226.5" xmlns="http://www.w3.org/2000/svg"><path d="m383.9 119.5c-2.7.3-5.4.6-8 .9l-.7-.5c-.6-3.2-4-4.9-7.1-6-3.5-1.2-7-2.3-10.5-3.2-1.4-.4-2.9-.7-4.3-1.1-5.4-1.3-10.9-2.2-16.4-2.8-1.6-.2-3.3-.3-4.9-.5-.4 0-.8-.1-1.2-.1-2.9-.2-5.8-.3-8.8-.3-.8.8-1.3 1.7-1.7 2.6-38.7-9.8-76.8-21.5-114.3-35.3-3.5-1.3-5.2 4.3-1.7 5.6 38 14 76.7 25.9 115.9 35.7.4 1.5 1.2 3 2.2 4.2 2.9 3.5 7.4 5.3 11.7 6.7.1 0 .3.1.4.1 2.1.7 4.3 1.4 6.5 2l4.5 1.2c4.7 1.1 9.5 1.8 14.2 1.8 1.5 0 3-.1 4.5-.2 2.1-.2 4.3-.6 6.4-1.2 1.6-.4 3.5-1 4.9.1 1.3 1 2.1 3.5 3.6 2.9.3-.1.6-.4.8-.6 2.9-3 4.4-7.6 4-12z" opacity=".1"/><path d="m317.7 103.5c-38-9.5-75.6-21.1-112.4-34.6-3.4-1.2-5 4.1-1.6 5.4 36.8 13.5 74.3 25 112.3 34.5 3.5.9 5.2-4.5 1.7-5.3z" fill="#f9e5a7"/><path d="m328.8 119.2c-.1 0-.3-.1-.4-.1-4.2-1.4-8.4-3.1-11.2-6.5-2.9-3.4-3.7-9.1-.4-12.3 2.8 0 5.6.1 8.4.3.4 0 .8.1 1.2.1 1.6.1 3.1.3 4.7.4 5.3.6 10.5 1.5 15.7 2.7 1.4.3 2.8.7 4.2 1 3.4.9 6.8 1.9 10.1 3.1 3 1 6.3 2.7 6.9 5.7l.7.5c2.6-.3 5.2-.6 7.7-.9.5 4.2-1 8.6-3.9 11.6-.2.2-.5.5-.8.6-1.5.6-2.2-1.8-3.5-2.8s-3.1-.5-4.7-.1c-2 .6-4.1.9-6.1 1.1-1.4.2-2.9.2-4.3.2-4.6 0-9.2-.7-13.7-1.8-1.5-.3-2.9-.7-4.4-1.1-2.1-.4-4.2-1-6.2-1.7z" fill="#795583"/><path d="m328.4 119c-4.2-1.4-8.4-3.1-11.2-6.5-2.9-3.4-3.7-9.1-.4-12.3 2.8 0 5.6.1 8.4.3.4.3.7.7.8 1.3.1-.4.3-.8.4-1.2 1.6.1 3.1.3 4.7.4-1.3 6.1-2.4 12-2.7 18z" fill="#e87a64"/><path d="m335 121.1c0-2.1.4-4.3 1-6.4.8-2.7 5-1.4 4.1 1.3-.6 2.1-.9 4.2-.8 6.3-1.4-.4-2.8-.7-4.3-1.2z" fill="#e87a64"/><path d="m345.2 112.3c.1-3 .6-5.8 1.5-8.5 1.4.3 2.8.7 4.2 1-.9 2.4-1.3 5-1.4 7.6 0 2.8-4.3 2.7-4.3-.1z" fill="#e87a64"/><path d="m130.9 5.2c-13.3 45-35.9 86.9-65.9 123-.6.2-1.2.4-1.7.7-2.3 1.2-3.9 3.2-5.7 5.1-3.2 3.5-6.7 6.6-10.4 9.7-10.5 8.6-22.1 15.9-31.2 25.8-.5.5-1 1-1.4 1.6-1.3 1.5-2.6 3.2-3.7 4.9-3.7 5.9-5.7 12.8-2.7 18.7-1.1 1.7-3 2.5-4.6 3.8-1.5 1.3-2.6 3.6-1.4 5.2.9 1.1 2.4 1.2 3.8 1.3 6 .7 11.6 3.7 15.5 8.3 2.7-2.2 3.6-6.4 2-9.5l1.2-4.4c1.5-.9 3-1.7 4.5-2.6 2.2-1.3 4.4-2.7 6.6-4.1 3.5-2.3 6.8-4.9 9.7-8 2.6-2.7 4.8-5.7 6.8-8.9 1.3-2.1 2.5-4.2 3.7-6.4 1.3-2.5 2.5-5 3.8-7.5 1.6-3.2 3.1-6.4 4.7-9.6 1.9-3.9 3.8-7.9 5.8-11.8.8-1.6 1.5-3.5 1.9-5.4v-.1c.1-.3.1-.6.1-.9 31.1-37.4 54.2-80.8 67.9-127.4 1.7-5.7-7.6-7.3-9.3-1.5z" opacity=".1"/><path d="m74 131c31.4-36.7 54.5-79.7 68.2-126 1.7-5.6-7.3-7.1-8.9-1.6-13.3 44.8-36 86.3-66.3 121.8-3.8 4.4 3.2 10.3 7 5.8z" fill="#f9e5a7"/><path d="m21.5 162.8c.4-.5.9-1 1.4-1.5 8.7-9.6 19.9-16.6 30-24.8 3.5-2.9 6.9-5.9 10-9.3 1.7-1.8 3.3-3.7 5.5-4.9s5.1-1.4 7 .2c1.7 1.4 1.9 3.6 1.6 5.8v.1c-.3 1.8-1 3.6-1.8 5.1-1.9 3.8-3.7 7.6-5.6 11.3-1.5 3.1-3 6.2-4.5 9.3-1.2 2.4-2.4 4.8-3.6 7.2-1.1 2.1-2.3 4.2-3.5 6.2-1.9 3-4 5.9-6.5 8.5-2.8 2.9-6 5.4-9.3 7.7-2.1 1.4-4.2 2.7-6.3 3.9-1.4.8-2.9 1.7-4.3 2.5l-1.2 4.2c1.5 3 .7 7-1.9 9.1-3.7-4.4-9.2-7.4-14.9-8-1.3-.1-2.8-.3-3.7-1.3-1.2-1.5-.1-3.8 1.3-5 1.5-1.2 3.4-2 4.4-3.6-2.9-5.7-.9-12.4 2.6-18 .8-1.6 2-3.2 3.3-4.7z" fill="#795583"/><g fill="#e87a64"><path d="m52.8 136.5c3.5-2.9 6.9-5.9 10-9.3 1.7-1.8 3.3-3.7 5.5-4.9s5.1-1.4 7 .2c1.7 1.4 1.9 3.6 1.6 5.8-.1-.1-.2-.1-.3-.2.1.1.2.2.3.3-.3 1.8-1 3.6-1.8 5.1-1.9 3.8-3.7 7.6-5.6 11.3-3.1-1.7-6.2-3.3-9.3-4.9-2.4-1-4.9-2.3-7.4-3.4z"/><path d="m31.9 176.5c3.5 2.2 6.8 4.6 10 7.2-2.1 1.4-4.2 2.7-6.3 3.9-2.6-2.1-5.3-4-8.2-5.8-3.8-2.3.8-7.7 4.5-5.3z"/><path d="m21.5 162.8c.4-.5.9-1 1.4-1.5 4.6.8 9.1 2.2 13.4 4 4.2 1.7 1.2 8.1-2.9 6.4-3.9-1.6-7.8-2.8-11.9-3.5-1.1-.2-2.2-.4-3.4-.6.9-1.7 2.1-3.3 3.4-4.8z"/><path d="m38.8 150c8.3 2.3 15.8 6.1 22.5 11.4-1.1 2.1-2.3 4.2-3.5 6.2-5.9-4.9-12.7-8.5-20.2-10.6-4.4-1.3-3.2-8.2 1.2-7z"/></g><path d="m200.2 217.3.1-.9c2.6-1.9 2.6-5.8 2.2-9-.4-3.7-1-7.3-1.7-10.9-.3-1.5-.6-2.9-1-4.4-1.3-5.4-2.8-10.7-4.7-15.9-.5-1.5-1.1-3.1-1.7-4.6-.1-.4-.3-.8-.5-1.1-1.1-2.7-2.3-5.4-3.6-8-1-.4-2.1-.5-3.1-.3-8.3-39-14.5-78.5-18.7-118.2-.4-3.7-6.1-2.8-5.7.9 4.2 40.2 10.5 80.2 19 119.8-1.2 1.1-2.1 2.4-2.8 3.8-1.8 4.2-1.5 8.9-.9 13.5 0 .1 0 .3.1.4.3 2.2.6 4.5 1 6.7.3 1.5.6 3.1.9 4.6 1.1 4.7 2.5 9.3 4.6 13.6.7 1.4 1.4 2.7 2.2 4 1.1 1.8 2.4 3.6 3.9 5.2 1.1 1.3 2.4 2.8 2.1 4.4-.4 1.6-2.2 3.4-1 4.5.2.2.6.3.9.4 4.2 1.3 9 .7 12.7-1.7-1.4-2.2-2.9-4.5-4.3-6.8z" opacity=".1"/><path d="m187 156.8c-8.2-38.3-14.4-77.1-18.5-116.1-.4-3.6-5.9-2.7-5.5.9 4.1 39 10.2 77.8 18.5 116.1.7 3.5 6.3 2.6 5.5-.9z" fill="#f9e5a7"/><path d="m177.8 173.7c0-.1 0-.3-.1-.4-.6-4.4-.9-8.9.9-12.9 1.8-4.1 6.6-7.3 10.8-5.8 1.2 2.5 2.4 5.1 3.4 7.7.2.4.3.7.4 1.1.6 1.5 1.2 2.9 1.7 4.4 1.8 5 3.3 10.1 4.5 15.3.3 1.4.6 2.8.9 4.2.7 3.5 1.2 7 1.7 10.5.4 3.1.4 6.8-2.1 8.7l-.1.8c1.4 2.2 2.8 4.4 4.2 6.6-3.6 2.3-8.2 2.9-12.2 1.6-.3-.1-.6-.2-.9-.4-1.2-1.1.6-2.8.9-4.3.3-1.6-.9-3-2-4.2-1.4-1.6-2.6-3.2-3.7-5-.8-1.2-1.5-2.5-2.1-3.8-2-4.1-3.4-8.5-4.4-13.1-.3-1.5-.6-2.9-.9-4.4-.3-2.3-.6-4.5-.9-6.6z" fill="#795583"/><path d="m177.7 173.3c-.6-4.4-.9-8.9.9-12.9 1.8-4.1 6.6-7.3 10.8-5.8 1.2 2.5 2.4 5.1 3.4 7.7-.1.5-.3 1-.8 1.3.4-.1.8-.1 1.2-.2.6 1.5 1.2 2.9 1.7 4.4-5.8 1.5-11.6 3.1-17.2 5.5z" fill="#e87a64"/><path d="m178.8 180.2c1.9-.9 4-1.6 6.2-1.9 2.8-.4 3.5 3.8.7 4.3-2.2.3-4.2 1-6 2.1-.4-1.6-.7-3.1-.9-4.5z" fill="#e87a64"/><path d="m191.2 185.5c2.7-1.2 5.5-2 8.3-2.4.3 1.4.6 2.8.9 4.2-2.6.3-5.1 1-7.4 2.1-2.5 1.2-4.3-2.8-1.8-3.9z" fill="#e87a64"/><path d="m295.7 119.3c-1.8-12.5 0-25.6-3.7-37.7-1.9-6.1-5.1-12.8-2.1-18.5 1.3-2.5 3.8-5.4 2.1-7.8-.5-.7-1.2-1.1-1.9-1.5-19.9-10.8-44.8-14.2-59.7-31.3-2.4-2.7-4.5-5.8-7.5-7.8-4.2-2.9-9.5-3.5-14.6-3.8-16.5-1-33.1-.1-49.4 2.8l-.9.8c-3.9 5.4-2.9 13-.5 19.2s6 12.2 6.7 18.8c.4 3.5-.1 7-.2 10.5-.5 15.4 5.3 30.9 15.8 42.1 2.2 2.4 4.7 4.6 7.7 5.9s6.2 1.5 9.4 2.3c8.6 2.1 16.2 8.4 19.7 16.6.7 1.7 1.3 3.5 2.7 4.7 1.3 1.2 3.7 1.6 4.9.3.6-.6.8-1.5 1.1-2.2 1.8-3.5 6.8-3.4 10.7-2.6 16 2.9 31.7 7.2 47 12.7 6.6 2.4 13.6 5 20.4 3.4-3.1-8.8-6.4-17.6-7.7-26.9z" opacity=".1"/><path d="m160.2 11.7c15.7-2.7 31.6-3.6 47.5-2.7 4.9.3 10 .9 14 3.6 2.9 2 4.9 4.9 7.2 7.5 14.4 16.4 38.3 19.7 57.4 30.1.7.4 1.4.8 1.9 1.4 1.6 2.2-.8 5-2.1 7.4-2.8 5.5.3 11.9 2.1 17.8 3.6 11.6 1.9 24.2 3.6 36.2 1.3 8.9 4.3 17.4 7.4 25.8-6.5 1.5-13.3-1-19.6-3.3-14.7-5.3-29.8-9.4-45.2-12.2-3.7-.7-8.5-.8-10.3 2.5-.4.7-.6 1.5-1.1 2.1-1.2 1.3-3.4.9-4.7-.3s-1.9-2.9-2.6-4.6c-3.4-7.8-10.6-13.9-18.9-15.9-3-.7-6.2-1-9-2.2-2.9-1.2-5.3-3.4-7.4-5.6-10.1-10.8-15.7-25.7-15.1-40.5.1-3.4.5-6.7.2-10.1-.7-6.4-4.1-12.1-6.4-18.1s-3.3-13.3.4-18.5" fill="#7f804f"/><path d="m165.6 17.7c14.2-1.6 28.5-1.7 42.8-.5 4 .4 8 .9 11.7 2.6 3.6 1.7 6.2 3.6 6.7 7.6.6 4-2.1 8.2-6.1 8.7-3.7.5-7.7-.5-10.2 2.3 13.2-2.1 26.9-.5 39.2 4.6 2.4 1 4.8 2.2 6.1 4.4 2.2 3.8-.1 9-3.9 11.4s-8.4 2.6-12.8 2.8c9.8 3.5 20.3 5.1 30.7 4.7 1.2 0 2.6-.1 3.5.8.5.6.7 1.3.9 2.1 1.2 5.3 2.4 10.6 3.6 15.9.4 1.8.6 4-.8 5.1-.9.7-2.3.6-3.4.5-6.6-.7-13.3-1.1-19.9-1.2-1 0-2.2.1-2.7.9-.7 1 .1 2.4 1 3.1 4.1 3.5 10.4 1.5 15.7 2.2 5.4.7 10 4.5 13 9.1s4.6 9.9 6.2 15.1c.8 2.5 1.3 5.7-.9 7.2-1 .7-2.3.7-3.6.7-9.1-.1-19.2-.6-25.8-6.9-2.6-2.5-4.4-5.6-6.2-8.7-2.2-3.8-4.4-7.7-6.6-11.5-4.2 1.7-3.3 8.5-6.7 11.5-4.6 4.1-13.5-1.2-17.6 3.5-.4-3.6-3.4-6.2-5.9-8.7s-4.8-6.2-3.4-9.5c.7-1.7 2.3-2.9 3.6-4.2 4.4-4.7 4.7-11.8 4.8-18.2-4 2.5-5 7.7-7.7 11.5-4.2 6-11.9 8.2-19 10-6.7-10.3-6.1-24.8 1.3-34.6-6.5 3.4-11.9 8.8-15.3 15.2-4.2-3.3-5.5-9.2-5.5-14.5s1-10.7.3-16.1c-1.4-9.8-8.7-18.6-7.7-28.5" fill="#a7a16d"/><path d="m173.3 23.4c4.7 3.7 11 5.4 16.9 4.5 1-.1 2-.3 2.9.1 1.9 1 1.2 3.8 1.1 5.9-.3 5.4 4.7 9.8 9.8 11.6s10.7 2.1 15.7 4.3c.9.4 1.8 1 1.9 2 0 .6-.4 1.2-.8 1.7-3.2 4.8-1.3 11.6 2.9 15.5s10.1 5.3 15.8 5.7c1.9.1 3.9.2 5.5 1.2s2.5 3.4 1.3 4.9c-1.2 1.4-3.6 1.2-5 2.4-2.6 2.2.1 6.3 2.7 8.5 10 8.4 19.9 16.8 29.9 25.2-1.7 2.9-6.1 1.1-8.7-1-6.7-5.4-13.5-10.9-20.2-16.3-3.3-2.7-6.9-5.5-11.1-6.1s-9.2 1.8-9.7 6.1c1.2-10.4-.9-21.1-5.9-30.3-1.3-2.5-3-5-5.5-6.3s-6.1-1-7.7 1.3c-.5.8-.9 1.8-1.8 2.1-1.7.7-3-1.7-3.4-3.4-1.7-6.4-4.9-12.7-10.6-16.1-1.8-1.1-3.8-1.8-5.3-3.2-1.6-1.5-2.5-3.6-3.3-5.6-1.7-4.1-3.3-8.1-4.8-12.2" fill="#d0c38a"/><path d="m181.2 24c-3.2-5.9-10.5-8.1-17.2-8.6s-13.6.2-19.9-2c-3.3-1.2-6.3-3.1-9.4-4.7-13.6-7.1-30.1-8.5-44.7-3.9-3.1 1-6.2 2.3-8.6 4.4s-4 5-6.1 7.5c-5.6 6.9-14.5 11-23.4 10.7-1.8-.1-3.7-.3-5.4.4s-3.1 2.6-2.4 4.3c.3.8 1 1.3 1.5 2 2.4 3.2.1 7.6-2.2 10.8-9.5 13.2-20.1 25.6-31.6 37-4.9 5.1-10.3 10.3-11.8 17.1 9.3.9 18.7 1.8 27.6 4.5 12.1 3.8 23.1 11 35.6 12.8 6.3.9 13.8.9 17.6 6 1.7 2.3 3.3 5.7 6.1 5.3.8-.1 1.5-.6 2.2-1.1 18.3-13.4 32.1-34.3 53.9-40.6 3.5-1 7.1-1.6 10.3-3.4 4.4-2.5 7.2-7.1 9.7-11.5 8-14.5 14.3-29.9 18.6-45.8z" opacity=".1"/><path d="m181.9 22.6c-4.2 15.3-10.2 30.1-17.9 44-2.4 4.3-5.1 8.6-9.3 11.1-3 1.7-6.5 2.3-9.9 3.3-21 6-34.2 26.1-51.8 39-.6.5-1.3.9-2.1 1.1-2.7.5-4.2-2.9-5.8-5-3.7-4.9-10.9-4.9-17-5.8-12-1.8-22.6-8.7-34.2-12.3-8.6-2.7-17.6-3.5-26.5-4.4 1.6-6.6 6.7-11.6 11.5-16.3 11.1-11 21.2-22.9 30.4-35.6 2.2-3.1 4.4-7.4 2.1-10.4-.5-.6-1.1-1.2-1.5-1.9-.7-1.6.6-3.5 2.3-4.1 1.6-.6 3.5-.4 5.2-.4 8.5.3 17.1-3.6 22.5-10.3 1.9-2.4 3.5-5.2 5.8-7.2 2.3-2.1 5.3-3.3 8.3-4.3 14-4.5 29.9-3.1 43 3.7 3 1.6 5.9 3.4 9 4.5 6.1 2.1 12.7 1.5 19.1 1.9 6.4.5 13.4 2.7 16.5 8.3" fill="#7f804f"/><path d="m174.2 24.8c-4.6 13.5-10.7 26.5-17.9 38.8-2 3.4-4.2 6.9-7.3 9.4s-5.9 4-9.7 2.8-6.5-5.4-5.2-9.2c1.2-3.6 3.7-6.8 2.3-10.2-3.7 12.8-11.1 24.5-21 33.5-1.9 1.7-4 3.4-6.6 3.6-4.4.4-8.1-4-8.6-8.4s1.2-8.7 2.9-12.8c-7.3 7.4-13.3 16.2-17.4 25.7-.5 1.1-1.1 2.4-2.3 2.8-.7.2-1.5.1-2.2-.1-5.3-1.2-10.6-2.4-15.9-3.6-1.8-.4-3.9-1.1-4.2-2.9-.2-1.2.4-2.3 1-3.3 3.4-5.7 6.6-11.5 9.6-17.5.4-.9.9-2 .4-2.8-.6-1-2.2-1-3.3-.5-4.9 2.2-5.8 8.7-8.7 13.3-3 4.6-8.4 7.1-13.8 7.9s-10.9 0-16.3-.8c-2.6-.4-5.7-1.3-6.1-3.9-.2-1.2.4-2.4.9-3.5 4-8.2 8.7-17.1 17.2-20.4 3.3-1.3 6.9-1.6 10.5-1.8 4.4-.3 8.8-.7 13.2-1 .3-4.6-6.2-6.6-7.5-11-1.8-5.9 6.9-11.7 4.3-17.4 3.4 1.2 7-.4 10.4-1.6s7.7-1.7 10.1 1c1.2 1.4 1.6 3.3 2.3 5 2.4 6 8.6 9.3 14.4 12.1-.6-4.6-4.8-7.8-7.1-11.9-3.6-6.2-2.3-14.1-.9-21.2 12.2-1.6 25.1 5.1 30.7 16-.3-7.3-2.9-14.5-7.2-20.4 4.8-2.3 10.6-1 15.5 1.3 4.8 2.3 9.3 5.5 14.4 7.2 9.5 3 20.5.1 29 5.2" fill="#a7a16d"/><path d="m165.8 29.4c-5.4 2.7-9.5 7.6-11.3 13.3-.3.9-.6 2-1.3 2.6-1.7 1.3-3.9-.5-5.8-1.5-4.8-2.6-10.8 0-14.7 3.9s-6.5 8.8-10.6 12.3c-.7.6-1.7 1.2-2.6.8-.6-.3-.9-.9-1.2-1.4-2.9-4.9-9.9-6.2-15.2-4-5.3 2.1-9.1 6.9-11.9 11.8-.9 1.7-1.9 3.5-3.5 4.5s-4.2.8-5-.9.5-3.7 0-5.5c-.9-3.3-5.7-2.6-8.8-1.2-11.9 5.4-23.7 10.8-35.6 16.2-1.9-2.8 1.7-6 4.7-7.4 7.8-3.8 15.6-7.5 23.4-11.3 3.8-1.9 7.9-3.9 10.2-7.4s2.3-9.1-1.3-11.4c8.9 5.5 19.4 8.2 29.9 7.7 2.8-.1 5.8-.6 8.1-2.3s3.5-5.1 2.1-7.5c-.5-.8-1.2-1.6-1.2-2.5.1-1.9 2.8-2 4.6-1.6 6.5 1.2 13.6 1 19.1-2.7 1.7-1.2 3.3-2.7 5.2-3.4 2-.8 4.3-.7 6.4-.6 4.4.2 8.8.5 13.1.9" fill="#d0c38a"/><path d="m204.6 47.2c-5.9-15.4-13.7-30.2-23-43.8l-1-.4c-6.6-1.3-13 2.8-17.7 7.5-4.7 4.8-8.6 10.5-14.4 13.9-3 1.8-6.4 2.8-9.6 4.2-14.2 5.9-25.9 17.6-31.8 31.8-1.2 3-2.2 6.2-2.2 9.4.1 3.2 1.2 6.3 1.8 9.5 1.7 8.7-1 18.2-6.9 24.8-1.2 1.4-2.6 2.7-3.2 4.4s0 4 1.8 4.6c.8.2 1.7.1 2.5.1 4 .2 5.9 4.8 6.9 8.7 3.9 15.8 6.6 31.8 8 48 .6 7 1.1 14.4 5.3 20 6.7-6.5 13.4-13.1 21.2-18.2 10.7-6.8 23.3-10.6 32.7-19 4.8-4.2 9.6-10 16-9.6 2.8.1 6.5 1.2 7.9-1.3.4-.7.5-1.6.5-2.4 1.6-22.6-5.6-46.6 3.7-67.3 1.5-3.3 3.4-6.5 4-10 1-5-.6-10.1-2.5-14.9z" opacity=".1"/><path d="m182 1.8c9 13.1 16.4 27.2 22.1 42.1 1.7 4.6 3.4 9.4 2.5 14.2-.6 3.4-2.4 6.5-3.9 9.6-8.9 19.9-2 43-3.5 64.7-.1.8-.1 1.6-.5 2.3-1.4 2.4-4.9 1.4-7.6 1.2-6.1-.3-10.7 5.2-15.3 9.3-9.1 8.1-21.2 11.7-31.5 18.3-7.6 4.8-14 11.2-20.4 17.4-4.1-5.3-4.6-12.5-5.1-19.2-1.3-15.6-3.9-31-7.6-46.2-.9-3.7-2.8-8.1-6.6-8.3-.8 0-1.6.1-2.4-.1-1.7-.5-2.3-2.7-1.7-4.4s1.9-2.9 3.1-4.2c5.7-6.4 8.2-15.4 6.6-23.8-.6-3-1.7-6-1.8-9.1s.9-6.2 2.1-9.1c5.6-13.7 16.9-24.9 30.5-30.6 3.1-1.3 6.4-2.3 9.3-4 5.5-3.3 9.3-8.8 13.8-13.3s10.7-8.5 17-7.3" fill="#7f804f"/><path d="m178.8 9.1c7.3 12.3 13.4 25.2 18.2 38.7 1.3 3.8 2.6 7.7 2.5 11.7s-.7 7.1-4.1 9.3-8.3 1.5-10.4-1.9c-2-3.2-2.8-7.2-6.3-8.3 7.4 11.1 11.6 24.3 12.1 37.6.1 2.6 0 5.3-1.5 7.4-2.5 3.6-8.2 3.6-11.9 1.2s-5.9-6.6-7.9-10.5c.9 10.4 3.8 20.6 8.5 29.9.6 1.1 1.1 2.4.7 3.5-.3.7-.9 1.2-1.5 1.7-4.3 3.3-8.6 6.6-13 9.8-1.4 1.1-3.3 2.2-4.9 1.4-1-.6-1.5-1.8-1.9-2.9-2.1-6.3-4.5-12.5-7.2-18.6-.4-.9-1-2-1.9-2.1-1.2-.2-2.1 1-2.5 2.2-1.5 5.2 3 10 4.5 15.2 1.6 5.2 0 11-2.9 15.6s-7 8.3-11.1 11.9c-1.9 1.7-4.7 3.5-6.9 2.2-1-.6-1.6-1.8-2.1-3-3.7-8.3-7.4-17.7-4.5-26.3 1.2-3.4 3.3-6.3 5.4-9.2 2.6-3.6 5.2-7.2 7.8-10.8-3.3-3.1-9.1.5-13.3-1.3-5.7-2.5-4.5-12.8-10.5-14.5 3.1-1.8 4.2-5.6 5.5-9 1.3-3.3 3.6-7 7.2-7.1 1.9 0 3.6.9 5.3 1.5 6.1 2 12.7-.6 18.6-3.2-3.9-2.6-9.1-1.4-13.7-2.2-7.2-1.3-12.4-7.4-17-13.1 6.7-10.4 20.1-15.9 32.1-13.2-5.8-4.5-12.9-7.1-20.2-7.6 1.3-5.2 6.1-8.8 11-11s10.2-3.5 14.7-6.4c8.4-5.3 13.3-15.6 22.7-18.8" fill="#a7a16d"/><path d="m176.8 18.5c-1.4 5.8-.3 12.2 2.9 17.2.5.8 1.1 1.7 1.1 2.7-.1 2.1-2.9 2.7-4.9 3.5-5.1 2-7 8.3-6.5 13.7s2.5 10.6 2.6 16.1c0 1-.2 2.1-1 2.5-.6.3-1.3.1-1.9 0-5.6-.9-11.1 3.6-12.9 9s-.6 11.4 1.4 16.7c.7 1.8 1.4 3.6 1.2 5.5s-2.1 3.7-3.9 3.2-2.5-2.8-4.2-3.6c-3.1-1.4-5.7 2.7-6.6 6-3.5 12.5-7 25.1-10.5 37.6-3.3-.3-3.5-5.1-2.7-8.4 2.1-8.4 4.3-16.8 6.4-25.1 1.1-4.1 2.1-8.5.9-12.6s-5.5-7.6-9.6-6.3c9.9-3.3 18.8-9.6 25.1-17.9 1.7-2.3 3.3-4.8 3.5-7.7.2-2.8-1.6-6-4.4-6.5-.9-.2-2-.1-2.7-.7-1.3-1.3.3-3.4 1.7-4.6 5.1-4.2 9.6-9.8 10.2-16.3.2-2.1.1-4.2.7-6.2.7-2.1 2.2-3.7 3.7-5.3 3-3.2 6.1-6.3 9.1-9.5" fill="#d0c38a"/></svg>