<svg enable-background="new 0 0 571.5 468.2" viewBox="0 0 571.5 468.2" xmlns="http://www.w3.org/2000/svg"><path d="m308.3 419.8c.2-.5 0-1-.1-1.4-.7-2.3-1.7-4.6-2.9-6.6l-1.2-.3c.9-3.3 1.5-6.6 1.7-10 .1-1.6.2-3.3.2-4.9 0-3-.2-6.1-.5-9.1-.2-1.6-.4-3.2-.7-4.8-.4-2.3-.9-4.6-1.5-6.9-2.5-9.3-6.2-18.1-10.4-26.7-1-2.2-2.1-4.4-3.2-6.6-1.4-2.8-2.9-5.7-5.5-7.5-15.2-52.2-46.8-97.5-77.8-141.5-2.3-3.3-7.3.3-5 3.6 30.1 42.8 60.8 86.6 76.2 137.1-.8.3-1.4.9-1.9 1.6-.4.5-.6 1.1-.8 1.8 0 .1 0 .2-.1.3-.2 1-.2 2.1-.1 3.1 0 .8.1 1.6.2 2.4 0 .2 0 .4.1.6.3 2.9.9 5.7 1.5 8.5.7 3.4 1.5 6.8 1.8 10.2.4 4.1.2 8.2.1 12.3-.1 1.7-.1 3.5-.1 5.2v.3c0 8.7 1.5 17.4 4.3 25.7 1.8 5.2 5.2 11.1 10.7 11.1l1.5-.1c-.6 2.1-1.1 4.2-1.5 6.4-.1.5-.2 1.1.2 1.5s1 .2 1.5 0c3.9-1.3 7.8-2.7 11.7-4 .6-.2 1.4-.6 1.6-1.3z" opacity=".1"/><path d="m284.4 330.7c-14.8-53.7-47.1-100.1-78.8-145.1-2.3-3.3-7.3.3-5 3.6 31.4 44.6 63.4 90.3 78.1 143.6.9 3.9 6.7 1.7 5.7-2.1z" fill="#f9e5a7"/><path d="m281.6 398.4c-2.8-8.3-4.2-17-4.3-25.7 0-.1 0-.2 0-.3 0-1.7.1-3.5.1-5.2.1-4.1.3-8.2-.1-12.3-.3-3.4-1.1-6.8-1.8-10.2-.6-2.8-1.2-5.7-1.5-8.5 0-.2-.1-.4-.1-.6-.1-.8-.2-1.6-.2-2.4-.1-1-.1-2.1.1-3.1 0-.1 0-.2.1-.3.2-.6.4-1.2.8-1.8 1.8-2.6 5.9-2.6 8.5-.9 2.6 1.8 4.2 4.7 5.6 7.6 1.1 2.2 2.2 4.4 3.2 6.6 4.1 8.7 7.9 17.5 10.4 26.7.6 2.3 1.1 4.5 1.5 6.9.3 1.6.5 3.2.7 4.8.4 3 .6 6.1.5 9.1 0 1.6-.1 3.3-.2 4.9-.3 3.4-.8 6.7-1.7 10l1.2.3c1.3 2.1 2.2 4.3 2.9 6.6.1.5.3 1 .1 1.4-.2.7-1 1.1-1.8 1.3-3.9 1.3-7.8 2.7-11.7 4-.5.2-1.1.3-1.5 0s-.3-1-.2-1.5c.5-2.1 1-4.3 1.5-6.4l-1.5.1c-5.4 0-8.9-5.9-10.6-11.1z" fill="#795583"/><g fill="#e87a64"><path d="m294 390.3c3.8-.4 7.5-.9 11.2-1.5 0 1.6-.1 3.3-.2 4.9-3.5.6-7.1 1-10.6 1.4-3 .3-3.4-4.5-.4-4.8z"/><path d="m301.9 374.9h2c.3 1.6.5 3.2.7 4.8-.8 0-1.6 0-2.4 0-2.9 0-3.4-4.8-.3-4.8z"/><path d="m277.3 372.4c0-1.7.1-3.5.1-5.2 4.8-1.9 9.8-2.9 15.2-2 3 .5 2.2 5.3-.8 4.7-5.1-.9-9.9.4-14.5 2.5z"/><path d="m274 336.1c.6-.3 1.2-.7 1.9-1-.7.1-1.3.2-1.9.3-.1-.8-.2-1.6-.2-2.4-.1-1-.1-2.1.1-3.1l.6-.2c-.2 0-.3 0-.5-.1.2-.6.4-1.2.8-1.8 1.8-2.6 5.9-2.6 8.5-.9 2.6 1.8 4.2 4.7 5.6 7.6 1.1 2.2 2.2 4.4 3.2 6.6-2.8 1-5.4 2.7-7.5 5-2 2.3-5.7-.7-3.7-3 .5-.6 1.1-1.2 1.7-1.7l-.6.2c-2.2.9-4.4 1.8-6.5 3-.5-2.8-1.1-5.6-1.5-8.5z"/></g><path d="m432.7 15.3c-.4-.6-1-1-1.7-1.4-5.8-3.1-13.4-2.4-18.5 1.6-1.8 1.4-4.1 3.3-6 2.1.7-1.7 1.8-3.3 3.3-4.4-1.2-2.6-4.6-3.2-7.4-3.3-16-.9-32-.6-47.9.9-3.8.4-7.8.9-11.1 2.9-4.8 2.9-8.7 9-14.1 7.7.4-1.9 1.4-3.7 2.9-5-2.9-1.8-6.7-1.2-10-.6-19.7 3.8-39.8 7.9-59.8 5.9-7.3-.8-14.6-2.3-22-2.3s-15.1 1.8-20.4 6.9c1.8-2.3 3-5.2 3.5-8.1-15.3 4.8-29.7 11.8-42.8 20.8-.9.6-1.9 1.3-2.4 2.3-.8 1.6-.1 3.5.5 5.1 1.7 4.5 3.5 9 6.6 12.7 3 3.7 7.6 6.5 12.4 6.2l2.1-1.9c24 12 50.7 18.8 77.5 19.7.9 0 1.8 0 2.6-.4 2.4-1.2 1.7-4.8.7-7.2 1.9-.9 4.2.5 5.5 2.2s2.2 3.7 3.9 5 3.8 1.7 5.9 2c21 2.9 42.8.2 62.5-7.8 1.1-.4 2.3-1 2.8-2 1-1.8-.3-4.1-1.9-5.6-1.6-1.4-3.5-2.7-4.1-4.8 1.9-1.1 4 1 5.7 2.4 3.2 2.7 7.8 3.3 12 2.4 4.1-.8 7.9-3 11.5-5.2 18.4-11.3 34.4-26.4 47-43.9 1.1-1.3 2.2-3.3 1.2-4.9z" opacity=".1"/><path d="m196.7 54.1c24 12 50.7 18.8 77.5 19.7.9 0 1.8 0 2.6-.4 2.4-1.2 1.7-4.8.7-7.2 1.9-.9 4.2.5 5.5 2.2s2.2 3.7 3.9 5 3.8 1.7 5.9 2c21 2.9 42.8.2 62.5-7.8 1.1-.4 2.3-1 2.8-2 1-1.8-.3-4.1-1.9-5.6-1.6-1.4-3.5-2.7-4.1-4.8 1.9-1.1 4 1 5.7 2.4 3.2 2.7 7.8 3.3 12 2.4 4.1-.8 7.9-3 11.5-5.2 18.4-11.3 34.4-26.4 47-43.9 1.1-1.5 2.1-3.5 1.2-5-.4-.6-1-1-1.7-1.4-5.8-3.1-13.4-2.4-18.5 1.6-1.8 1.4-4.1 3.3-6 2.1.7-1.7 1.8-3.3 3.3-4.4-1.2-2.6-4.6-3.2-7.4-3.3-16-.9-32-.6-47.9.9-3.8.4-7.8.9-11.1 2.9-4.8 2.9-8.7 9-14.1 7.7.4-1.9 1.4-3.7 2.9-5-2.9-1.8-6.7-1.2-10-.6-19.7 3.8-39.8 7.9-59.8 5.9-7.3-.8-14.6-2.3-22-2.3s-15.1 1.8-20.4 6.9c1.8-2.3 3-5.2 3.5-8.1-15.1 4.8-29.6 11.8-42.7 20.8-.9.6-1.9 1.3-2.4 2.3-.8 1.6-.1 3.5.5 5.1 1.7 4.5 3.5 9 6.6 12.7 3 3.7 7.6 6.5 12.4 6.2z" fill="#565e32"/><path d="m179.8 36c2.5 1.8 3.5 5 4.6 7.9 1 2.9 2.5 6 5.4 7.1s6.9-1.5 5.9-4.4c20.1 12.9 43.7 20.1 67.6 20.5 2.3 0 4.7 0 7-.7 1.8-.6 3.3-1.6 5.1-2.2 3.6-1.3 7.8-.7 11 1.5 2.5 1.7 4.3 4.4 7.2 5.3 1.9.6 3.9.4 5.9.2 6.4-.7 12.7-1.4 19.1-2.2 3-.3 6.2-.8 8.4-2.9 2.1-2.1 2.1-6.5-.7-7.6 4 .5 8.1 1 12.1 1.5 1.1.1 2.4.2 3.3-.5 1.2-1 1-2.8 1.3-4.4.8-3.7 5.1-5.6 8.8-5.5s7.3 1.7 11 2.3c9.7 1.7 19.6-2.9 27.4-9-8.8-1.7-18.1-3.6-24.9-9.5 5.3 1.4 10.7 2.7 16 4.1 2.7.7 5.6 1.4 8.3.7 2.4-.6 4.4-2.3 6.4-3.9 6.4-5.3 12.8-10.6 19.1-15.9 2.6-2.2 5.3-6.2 2.8-8.5-.8-.7-1.9-.9-2.9-.9-7.9-.2-15 8.7-22.3 5.9 1.5-2.7 3.3-5.2 5.5-7.4-17.2-6.9-38.6-1.4-50.4 12.9.3-2.3.7-4.6 1-6.9-8.1 3.8-16.6 6.6-25.3 8.4-2.5.5-5.3.8-7.2-.7-2-1.6-1.3-5.7 1.2-5.6-3.5-1-7 .8-10.4 2.3-17.2 7.4-36.7 5.6-55.3 4.3-3.6-.2-7.3-.5-10.9.4-2.7.6-5.3 1.9-7.8 3.1-5.3 2.6-10.7 5.2-16 7.9 4.7-4.3 9.9-8 15.5-11-6.2.1-12.5.2-18.4-1.7-1.4-.5-2.8-1-4.3-1.1s-2.9.4-4.3.8c-9.4 2.8-19.5 6-25.7 13.6z" fill="#7f804f"/><path d="m393.5 24.1c-2.2.7-4.5 1.4-6.7 2l-6.7 1.9c-2.2.6-4.5 1.2-6.8 1.8s-4.5 1.2-6.8 1.7l-6.8 1.7c-2.3.5-4.6 1-6.8 1.5l-3.4.8c-1.1.2-2.3.5-3.4.7l-6.9 1.4-6.9 1.3c-1.1.2-2.3.4-3.4.6l-3.5.6c-9.2 1.6-18.5 2.8-27.8 3.9l-7 .8c-2.3.2-4.7.4-7 .7l-3.5.3-3 .2c6.7 3.3 13.2 7 19.4 11.1-8.9-4.1-18.1-7.5-27.5-10-.1 0-.2-.1-.3-.1-.2-.1-.4-.2-.6-.4-4.2.2-8.3.5-12.5.6-2.3.1-4.7.2-7 .2-2.3.1-4.7.1-7.1.1-4.7 0-9.5-.3-14.2-.9-4.7-.7-9.3-1.7-13.9-2.7s-9-2-13.6-2.8c-4.5-.8-9.1-1.5-13.7-2.1-1.2-.2-2.1-1.2-1.9-2.5.1-1.2 1.2-2.1 2.5-1.9 4.7.6 9.3 1.2 14 2.1 4.6.8 9.2 1.8 13.8 2.9 4.5 1 9 2 13.5 2.7 1.1.2 2.2.3 3.4.4.2-.1.4-.2.7-.3 18.6-3.1 36.7-10.5 52.4-21.5-11.7 9.6-25.3 17.3-39.8 22.3h3.9c2.3 0 4.6-.1 7-.2 2.3-.1 4.6-.1 7-.2l7-.3 7-.4 3.5-.2 3.5-.3c2.3-.2 4.6-.3 6.9-.5l6.9-.6c9.2-.9 18.5-2 27.7-3.4l3.5-.5c1.2-.2 2.3-.4 3.4-.5l6.9-1.1 6.9-1.2c1.1-.2 2.3-.4 3.4-.6l3.4-.7c18.3-3.4 36.4-7.7 54.4-12.7-4.6 1.4-9 2.9-13.5 4.3z" fill="#565e32"/><path d="m233.2 316.3c-.3-6.3-.8-12.6-2.9-18.3s-6.1-10.6-11.2-12c-2.7-.7-6.4-1.3-6.6-4.6 2.5-1.3 5.3-.1 7.9.5s6 .1 7.1-2.8c.6-1.6.4-3.5 0-5.2-5.9-30.6-18.8-58.9-37.1-81.1-1.8-2.2-3.8-4.4-6.3-5.2-2.6-.8-5.3 0-8 0-2.7-.1-5.7-1.5-6.3-4.5 3.3-1 7.5-3.5 7-7.4-.2-1.3-.8-2.4-1.5-3.4-20.4-31-46.7-56.5-76.6-74.1l.5-4.2c-3.2-5.9-9.4-8.8-15.4-9s-12.1 1.7-17.9 3.7c-2.2.7-4.6 1.7-5.7 4-.7 1.5-.7 3.2-.7 4.9.2 23.6 3.3 47.1 9.3 69.4 2.7-3.2 4.7-7.2 5.9-11.4-1.4 10.9 2.3 21.7 7.6 30.4s12.2 15.9 18.3 23.9c16.6 21.8 26.9 49.3 37.2 76.1 1.8 4.6 3.9 9.6 7.9 11.4.2-2.9 1.3-5.8 3.1-8 5.3 5.2 1.8 15.4 2.3 23.7.3 5.7 2.7 10.9 5.1 15.8 9.9 20.3 21.2 39.6 33.7 57.6 2.2 3.2 5.3 6.8 8.8 5.8.1-2.8.9-5.5 2.2-7.8 2.7 1.1 2.4 5.6 2.2 9-.5 9.8 4.3 19.4 11.7 23.4.8.5 1.7.8 2.7.7 2.3-.3 3.6-3.3 4.4-5.9 8.9-30.8 12.8-63.4 11.3-95.4z" opacity=".1"/><path d="m127.5 148.8c29.9 17.6 56.2 43.1 76.6 74.1.7 1 1.4 2.1 1.5 3.4.5 3.9-3.7 6.4-7 7.4.5 3.1 3.6 4.5 6.3 4.5 2.7.1 5.5-.7 8 0 2.6.8 4.5 3 6.3 5.2 18.3 22.3 31.2 50.6 37.1 81.1.3 1.7.6 3.6 0 5.2-1.2 2.9-4.5 3.4-7.1 2.8s-5.4-1.8-7.9-.5c.2 3.3 3.9 3.8 6.6 4.6 5.1 1.4 9.1 6.3 11.2 12s2.6 12 2.9 18.3c1.5 32-2.4 64.6-11.6 95.4-.8 2.6-2.1 5.6-4.4 5.9-.9.1-1.8-.3-2.7-.7-7.4-4-12.2-13.7-11.7-23.4.2-3.4.5-7.9-2.2-9-1.3 2.3-2.1 5.1-2.2 7.8-3.6.9-6.6-2.6-8.8-5.8-12.5-18.1-23.8-37.4-33.7-57.6-2.4-4.9-4.8-10.1-5.1-15.8-.4-8.3 3-18.5-2.3-23.7-1.7 2.2-2.9 5.1-3.1 8-4-1.8-6.1-6.8-7.9-11.4-10.3-26.8-20.6-54.3-37.2-76.1-6.1-8-13-15.2-18.3-23.9s-9-19.5-7.6-30.4c-1.1 4.3-3.2 8.2-5.9 11.4-6-22.3-9.1-45.7-9.3-69.4 0-1.7 0-3.4.7-4.9 1.1-2.3 3.5-3.3 5.7-4 5.9-2 11.9-3.9 17.9-3.7s12.2 3.1 15.4 9z" fill="#565e32"/><path d="m96.4 145c3.7 1.3 7.7-.3 11.5-1.7s8.1-2.4 11.3-.1 3.5 9.5-.3 10.9c27.9 12.1 52.5 33.7 70.2 61.6 1.7 2.7 3.4 5.6 4.3 8.9.7 2.6.8 5.4 1.4 8.1 1.3 5.5 4.9 10 9.5 11.7 3.6 1.4 7.7 1.2 10.7 3.7 2 1.7 3.3 4.3 4.5 6.8 3.9 8.2 7.7 16.4 11.6 24.6 1.8 3.9 3.7 8.1 3 12.5s-5.2 8.4-8.3 6.1c3.4 4.3 6.9 8.7 10.3 13 1 1.2 2 2.7 1.9 4.4-.1 2.3-2.2 3.8-3.5 5.5-3.2 4.3-2.1 11 .7 15.4s7 7.2 10.3 11c8.8 10 11.1 25.8 10.5 40.6-8.1-8.9-16.8-18.2-27.9-20.9 5.3 5.1 10.5 10.2 15.8 15.3 2.7 2.6 5.5 5.4 6.7 9.2 1.1 3.4.9 7.3.6 11-.9 12.3-1.7 24.7-2.6 37-.4 5.1-2.6 12-6.8 10.9-1.3-.3-2.3-1.4-3.1-2.7-5.9-9.2-1.8-25.6-10.1-31.8-1.7 4.2-3 8.6-3.7 13.1-19.6-14.1-29.4-44.5-23.1-71.3-2.2 2.5-4.3 5-6.5 7.5-1.9-13-5.2-25.6-9.6-37.6-1.3-3.4-3-7-6-7.9-3.1-.9-6.9 3.6-4.9 6.5-3.5-3.3-4.2-9.1-5.1-14.3-4.8-27-20.8-48.5-35.6-69.5-2.9-4.1-5.8-8.3-7.5-13.2-1.3-3.8-1.9-8-2.4-12.1-1.1-8.7-2.3-17.4-3.4-26.1-1.1 9.4-1.1 19-.2 28.3-4.4-7.4-8.9-15-15.1-20.2-1.5-1.3-3.1-2.4-4.3-4.1-1.1-1.7-1.7-3.8-2.3-5.8-3.9-13.7-7.8-28.5-4.5-42.8z" fill="#7f804f"/><path d="m238.8 409.1c-.9-3.3-1.8-6.5-2.7-9.8l-2.9-9.7c-.9-3.2-2-6.4-3-9.6s-2-6.4-3.1-9.6l-3.2-9.6c-1.1-3.2-2.2-6.3-3.4-9.5l-1.7-4.7c-.6-1.6-1.2-3.1-1.8-4.7l-3.5-9.4-3.7-9.3c-.6-1.5-1.2-3.1-1.9-4.6l-1.9-4.6c-5-12.3-10.5-24.4-16.1-36.4l-4.3-8.9c-1.4-3-2.9-5.9-4.4-8.9l-2.2-4.4-2-3.8c8.3 5 16.8 9.3 25.5 13-10.7-6.8-20.9-14.7-30.2-23.6-.1-.1-.2-.2-.3-.3-.2-.2-.5-.3-.8-.3-2.8-5.2-5.5-10.3-8.4-15.4-1.6-2.8-3.2-5.7-4.8-8.5s-3.3-5.7-5-8.4c-3.4-5.6-7.1-11-11.3-16-4.1-5-8.5-9.6-12.9-14-4.4-4.5-8.6-8.9-12.8-13.5-4.1-4.6-8.2-9.4-12.1-14.3-1-1.3-2.8-1.3-3.9-.1-1.2 1.3-1.3 3.4-.2 4.7 4 5 8 9.9 12.3 14.6 4.2 4.7 8.6 9.3 13 13.7 4.3 4.5 8.6 8.9 12.6 13.6 1 1.2 1.9 2.4 2.9 3.6 0 .4.1.7.2 1 10.2 24.9 15.7 53 15.6 81.6 1.5-22.6-.4-45.6-5.7-67.4.9 1.5 1.9 3.1 2.8 4.7 1.6 2.8 3.2 5.6 4.8 8.4s3.2 5.6 4.8 8.5l4.7 8.5 4.6 8.6 2.3 4.3 2.2 4.4c1.5 2.9 3 5.8 4.5 8.7l4.4 8.8c5.7 11.8 11.3 23.7 16.5 35.8l2 4.5c.7 1.5 1.3 3 1.9 4.6l3.8 9.2 3.7 9.2c.6 1.5 1.3 3.1 1.9 4.6l1.8 4.7c9.7 24.8 18.3 50.1 26.3 75.9-1.4-6.8-3-13.4-4.9-19.9z" fill="#565e32"/><path d="m478.9 62.6c.9-.4 1.8-.8 2.7-1.2 1.7-.8 3.4-1.7 5-2.8.9-.5 1.7-1.1 2.5-1.7 1.7-1.3 3.2-2.7 4.6-4.2l.6.5c1.5 0 3-.3 4.5-.7.3-.1.6-.2.8-.4.3-.4.2-.9.1-1.4-.6-2.5-1.2-5-1.8-7.5-.1-.3-.2-.7-.5-.8s-.6.2-.8.4c-1 1-1.9 1.9-2.8 2.9l-.5-.8c-1.8-2.9-6.1-2.8-9.4-1.9-5.3 1.3-10.3 3.5-14.9 6.4 0 0-.1.1-.1.1-.9.6-1.8 1.2-2.7 1.8-2.1 1.4-4.2 2.9-6.5 4.1-1.9 1-3.9 1.7-6 2.5-1.7.6-3.4 1.3-5 2-.1.1-.2.1-.4.2-.4.2-.9.5-1.3.7-.6.3-1.1.7-1.6 1.1 0 0-.1.1-.1.1-.3.3-.5.6-.7 1-.2.5-.3 1-.2 1.5-31.7 8.8-64.9 7.4-97.5 5.9-2.5-.1-2.7 3.7-.2 3.9 33.5 1.5 67.8 3 100.3-6.5 1.8.8 3.8.6 5.8.4 1.5-.2 3-.3 4.5-.5 5.9-.7 11.8-1.7 17.5-3.5 1.4-.6 2.7-1.1 4.1-1.6z" opacity=".1"/><path d="m449 63.5c-33.2 10.2-68.3 8.7-102.5 7.2-2.5-.1-2.3-4 .2-3.9 33.9 1.6 68.6 3 101.5-7.1 2.4-.7 3.2 3.1.8 3.8z" fill="#f9e5a7"/><path d="m483.6 39.4c-5.3 1.3-10.3 3.5-14.9 6.4 0 0-.1.1-.1.1-.9.6-1.8 1.2-2.7 1.8-2.1 1.4-4.2 2.9-6.5 4.1-1.9 1-3.9 1.7-6 2.5-1.7.6-3.4 1.3-5 2-.1.1-.2.1-.4.2-.4.2-.9.5-1.3.7-.6.3-1.1.7-1.6 1.1 0 0-.1.1-.1.1-.3.3-.5.6-.7 1-.8 1.8.6 4 2.4 4.8s3.9.6 5.8.4c1.5-.2 3-.3 4.5-.5 5.9-.7 11.8-1.7 17.5-3.5 1.4-.4 2.8-.9 4.1-1.5.9-.4 1.8-.8 2.7-1.2 1.7-.8 3.4-1.7 5-2.8.9-.5 1.7-1.1 2.5-1.7 1.7-1.3 3.2-2.7 4.6-4.2l.6.5c1.5 0 3-.3 4.5-.7.3-.1.6-.2.8-.4.3-.4.2-.9.1-1.4-.6-2.5-1.2-5-1.8-7.5-.1-.3-.2-.7-.5-.8s-.6.2-.8.4c-1 1-1.9 1.9-2.8 2.9l-.5-.8c-1.8-3-6.1-2.9-9.4-2z" fill="#795583"/><path d="m483.5 48.6c1 2.1 2 4.2 3 6.4.9-.5 1.7-1.1 2.5-1.7-.9-2-1.8-4-2.8-6-.9-1.8-3.5-.4-2.7 1.3z" fill="#e87a64"/><path d="m468.5 45.8c-.9.6-1.8 1.2-2.7 1.8.6 3.2 1.7 6.1 4 8.6 1.3 1.4 3.5-.6 2.2-2-2.1-2.4-3-5.3-3.5-8.4z" fill="#e87a64"/><path d="m448.4 56.2c0 .4.1.9.1 1.3-.2-.4-.3-.8-.5-1.1-.4.2-.9.5-1.3.7-.6.3-1.1.7-1.6 1.1l.1.4c-.1-.1-.1-.2-.2-.2-.3.3-.5.6-.7 1-.8 1.8.6 4 2.4 4.8s3.9.6 5.8.4c1.5-.2 3-.3 4.5-.5-.4-1.8-.4-3.7.1-5.6.5-1.8-2.3-2.8-2.8-.9-.1.5-.2 1-.3 1.5l-.1-.4c-.3-1.4-.5-2.9-.6-4.4-1.6.5-3.3 1.1-4.9 1.9z" fill="#e87a64"/><path d="m478.1 57.9c.2.4.4.7.7 1.1.9-.4 1.8-.8 2.7-1.2-.3-.4-.5-.8-.8-1.3-1-1.6-3.6-.2-2.6 1.4z" fill="#e87a64"/><path d="m568.9 231.7c-13.6-35.7-34.3-68.6-60.6-96.2-5.1-5.4-10.6-10.7-17.3-14s-14.8-4.4-21.6-1.2c-3.5 1.7-8 4.3-10.8 1.6 1.8-3.3 5.7-4.6 9.1-6.3 3.3-1.7 6.7-5 5.8-8.7-.5-2-2.3-3.5-4-4.7-30-22.6-66.1-37-103.4-41.5-3.7-.4-7.6-.8-11 .7s-5.9 4.6-8.9 6.9-7.4 3.6-10.4 1.3c2.8-3.8 5.6-9.6 2-12.7-1.2-1-2.8-1.4-4.3-1.8-46.3-10.5-95-10.9-141.5-1.1l-2.7-4.2c-8.1-2.6-17.1.1-23.9 5.1-6.9 5-12 11.9-16.9 18.8-1.8 2.5-3.8 5.5-3.2 8.5.4 1.9 1.7 3.5 3 5 18.4 21.2 39.9 39.7 63.6 54.7.5-5.2-.3-10.6-2.3-15.4 6.8 11.1 19.2 17.7 31.8 21s25.7 3.9 38.6 5.8c35.1 5.4 67.6 21.5 99.6 36.8 5.5 2.6 11.6 5.3 17.4 3.5-2-2.8-3-6.4-2.8-9.9 9.8.2 13.9 12.4 20.7 19.5 4.7 4.9 11.3 7.6 17.7 9.9 26.5 9.8 53.8 17.5 81.5 23.1 5 1 11 1.6 14.2-2.4-2-2.6-3.3-5.7-3.6-9 3.8-1.3 7 3 9.4 6.2 7 9.3 19.7 13.8 31 11.1 1.3-.3 2.6-.7 3.5-1.6 2.4-1.9 1.5-5.8.3-8.8z" opacity=".1"/><path d="m445.4 400.7c-8-48.7-24.5-96.5-48.2-139.8-4.6-8.5-9.6-16.9-16.4-23.3-6.7-6.4-15.5-10.6-23.6-9-4.2.8-9.7 2.5-12.2-1.9 2.6-3.4 7.2-3.7 11.3-4.6 4-.9 8.4-3.8 8-8.6-.2-2.7-1.9-5.1-3.5-7.2-28.7-38.3-65.7-68.8-106-87.3-4-1.8-8.2-3.6-12.3-3s-7.4 3.6-11.1 5.3c-3.8 1.7-8.9 1.8-11.7-2.1 3.9-3.7 8-9.8 4.7-14.9-1.1-1.7-2.8-2.7-4.4-3.7-49-29.2-102.6-46.7-155.8-51l-2.1-6.1c-8.4-6-18.9-5.8-27.4-2.1s-15.5 10.5-22.3 17.2c-2.6 2.4-5.3 5.4-5.3 9.4 0 2.5 1.2 5 2.3 7.3 16.1 32.6 36.3 62.9 59.5 89.7 1.6-6.2 1.7-13.1.4-19.8 5.3 16.1 17.8 28.5 31 37 13.3 8.5 27.6 13.8 41.4 20.7 37.7 19 70.4 50.1 102.7 80.3 5.5 5.2 11.8 10.6 18.5 10.4-1.7-4.2-2.1-8.9-1.1-13.1 10.8 3.7 13 20.1 19.1 31.3 4.3 7.7 11 13.3 17.6 18.4 27.3 21.4 55.9 40.5 85.4 57 5.3 3 11.9 5.8 16.2 2.1-1.7-3.9-2.5-8.2-2.3-12.3 4.5-.2 7.1 6.1 9.2 11 5.9 13.9 19 23.9 32 24.5 1.5.1 3 0 4.2-.8 3.2-1.8 2.9-6.9 2.2-11z" opacity=".1"/><path d="m189 44.6c46.5-9.8 95.1-9.4 141.5 1.1 1.5.3 3.1.7 4.3 1.8 3.6 3.1.8 8.9-2 12.7 3 2.3 7.4 1 10.4-1.3s5.4-5.4 8.9-6.9c3.4-1.5 7.3-1.2 11-.7 37.3 4.4 73.3 18.9 103.4 41.5 1.7 1.3 3.4 2.7 4 4.7 1 3.6-2.4 6.9-5.8 8.7-3.3 1.7-7.3 3-9.1 6.3 2.8 2.7 7.3.1 10.8-1.6 6.7-3.2 14.9-2.1 21.6 1.2s12.2 8.6 17.3 14c26.3 27.6 47 60.6 60.6 96.2 1.1 3 2.1 6.9-.2 9.1-.9.9-2.2 1.3-3.5 1.6-11.3 2.7-24-1.8-31-11.1-2.4-3.2-5.6-7.5-9.4-6.2.4 3.2 1.6 6.4 3.6 9-3.2 3.9-9.3 3.4-14.2 2.4-27.7-5.6-55-13.3-81.5-23.1-6.4-2.4-13-5-17.7-9.9-6.8-7.1-10.9-19.3-20.7-19.5-.3 3.5.7 7 2.8 9.9-5.8 1.8-12-.9-17.4-3.5-32-15.4-64.5-31.4-99.6-36.8-12.9-2-26-2.5-38.6-5.8s-25-9.9-31.8-21c2 4.8 2.9 10.2 2.3 15.4-23.7-15-45.3-33.5-63.6-54.7-1.3-1.5-2.6-3.1-3-5-.6-3.1 1.4-6 3.2-8.5 5-6.8 10.1-13.8 16.9-18.8 6.9-5 15.9-7.7 23.9-5.1z" fill="#565e32"/><path d="m151.8 67.9c5.1-1.9 8.2-6.9 11.3-11.4s7-9.1 12.4-9.8 11.2 5.6 8.1 10.1c40.1-13 83.8-14.7 124.8-4.7 4 1 8.1 2.1 11.6 4.4 2.7 1.8 5 4.3 7.7 6.1 5.6 3.8 13.1 4.8 19.5 2.4 5-1.8 9.4-5.5 14.6-5.9 3.5-.2 6.9 1.1 10.2 2.3 10.6 4.1 21.1 8.2 31.7 12.3 5 1.9 10.3 4.1 13 8.7s.8 12.1-4.5 12.6c7.1 1 14.3 1.9 21.4 2.9 2 .3 4.3.7 5.5 2.3 1.6 2.2.5 5.3.3 8-.3 6.6 6.2 11.8 12.6 13.3 6.5 1.5 13.2.5 19.8 1 17.4 1.5 32.1 13.8 42.8 27.7-15.9-1.1-32.6-2-46.8 5.1 9.7.1 19.5.2 29.2.2 5 0 10.2.1 14.5 2.6 3.9 2.1 6.6 5.9 9.2 9.5 8.5 11.9 17.1 23.8 25.6 35.7 3.5 4.9 6.3 13 .9 15.7-1.7.8-3.6.7-5.5.3-13.6-3.2-21.7-21.7-35.5-20.1 1.3 5.3 3.3 10.3 6 15-32.5 4.1-66.7-14.9-80.3-44.7-.5 4.1-.9 8.2-1.4 12.3-12.1-10.1-25.4-18.7-39.5-25.7-4-2-8.7-3.8-12.7-2-4.1 1.8-4.8 9.2-.4 10.1-6.4.1-11.7-4.6-16.7-8.5-26-20.4-60.2-26-92.7-32.2-6.3-1.2-12.7-2.5-18.4-5.5-4.4-2.3-8.2-5.6-12-8.9-8-6.9-15.9-13.8-23.9-20.7 6.1 9.4 13.3 18.1 21.5 25.8-10.5-3-21.3-6-32.2-5.3-2.6.2-5.3.5-7.9 0s-4.8-1.9-7.1-3.3c-14.9-9.1-30.6-19-37.9-34.9z" fill="#7f804f"/><path d="m512 184.3c-3.5-2.2-7-4.4-10.5-6.5l-10.7-6.3c-3.5-2.1-7.2-4.1-10.7-6.1-3.6-2-7.2-4.1-10.8-6l-10.9-5.9c-3.6-2-7.3-3.8-11-5.7l-5.5-2.8c-1.8-.9-3.7-1.8-5.5-2.7l-11.1-5.5-11.2-5.2c-1.9-.9-3.7-1.8-5.6-2.6l-5.7-2.5c-15-6.8-30.4-13.1-45.7-19.1l-11.6-4.4c-3.9-1.5-7.8-2.8-11.6-4.3l-5.8-2.1-5.1-1.8c13-2.6 25.7-6 38.1-10.2-17.1 3.1-34.3 4.6-51.4 4.7-.2 0-.4 0-.6 0-.4.1-.8.2-1.1.4-7-2.3-14-4.6-21.1-6.7-4-1.2-7.9-2.4-11.9-3.6s-8-2.3-12-3.3c-8.1-2.1-16.4-3.8-24.8-4.8s-16.7-1.3-25-1.6c-8.2-.3-16.4-.6-24.5-1.3-8.1-.6-16.3-1.5-24.3-2.6-2.1-.3-4.1 1.2-4.4 3.3s1.2 4.1 3.3 4.4c8.2 1.1 16.5 2.1 24.8 2.7 8.3.7 16.6 1 24.8 1.3s16.4.6 24.4 1.4c2 .2 4 .5 5.9.8.3.3.7.6 1.1.7 30.4 13.7 58.1 34.4 80 60.3-15.8-21.8-35.5-40.9-58.1-56.1 2.2.6 4.4 1.2 6.7 1.8 3.9 1.1 7.9 2.3 11.8 3.4s7.9 2.3 11.8 3.5l11.8 3.6 11.7 3.8 5.9 1.9 5.8 2c3.9 1.4 7.8 2.7 11.6 4l11.6 4.2c15.4 5.7 30.7 11.8 45.8 18.2l5.7 2.4c1.9.8 3.8 1.6 5.6 2.5l11.3 5 11.2 5.1c1.9.9 3.7 1.7 5.6 2.6l5.6 2.7c29.8 14 58.8 29.6 87.3 46-7-4.2-13.9-8.8-21-13z" fill="#565e32"/><path d="m511.2 169.7c2.6-.5 5.1-1.1 7.6-1.8 4.8-1.3 9.5-2.8 14.1-4.7 2.5-1 4.9-2.1 7.2-3.3 4.9-2.4 9.6-5.3 13.9-8.6l1.2 1.7c3.9.6 7.8.8 11.7.4.8-.1 1.6-.2 2.2-.7.9-.8 1-2.2.9-3.4-.3-6.7-.7-13.4-1-20.1 0-.9-.2-1.9-1-2.3s-1.6.1-2.4.6c-2.9 2-5.8 4-8.7 6.1l-.8-2.3c-3.2-8.3-14.2-10-23.1-9.5-14.1.8-28.1 3.9-41.2 9-.1.1-.3.1-.4.2-2.6 1-5.2 2.2-7.8 3.3-6.1 2.7-12.1 5.4-18.5 7.2-5.4 1.6-10.9 2.5-16.5 3.5-4.6.8-9.2 1.6-13.8 2.8-.3.1-.7.2-1 .3-1.2.3-2.5.7-3.7 1.1-1.6.5-3.2 1.2-4.5 2.1-.1.1-.3.2-.4.3-.9.6-1.6 1.4-2.2 2.2-.8 1.2-1.2 2.5-1.2 3.9-85.3 7.2-169.7-12.6-252.2-32.2-6.3-1.5-8.7 8.3-2.4 9.8 84.9 20.2 172 40.5 259.8 32 4.2 2.8 9.5 3.3 14.6 3.7 3.9.3 7.9.6 11.8.9 15.5 1 31.1 1.4 46.5-.5 3.9-.3 7.6-.9 11.3-1.7z" opacity=".1"/><path d="m434.4 157.5c-89.8 10-178.9-10.8-265.7-31.4-6.3-1.5-3.9-11.3 2.4-9.8 86 20.4 174.1 41.1 263 31.1 6.5-.6 6.7 9.4.3 10.1z" fill="#f9e5a7"/><path d="m534.6 112.6c-14.1.8-28.1 3.9-41.2 9-.1.1-.3.1-.4.2-2.6 1-5.2 2.2-7.8 3.3-6.1 2.7-12.1 5.4-18.5 7.2-5.4 1.6-10.9 2.5-16.5 3.5-4.6.8-9.2 1.6-13.8 2.8-.3.1-.7.2-1 .3-1.2.3-2.5.7-3.7 1.1-1.6.5-3.2 1.2-4.5 2.1-.1.1-.3.2-.4.3-.9.6-1.6 1.4-2.2 2.2-2.9 4.3-.4 10.4 3.8 13.4 4.2 2.9 9.6 3.4 14.7 3.8 3.9.3 7.9.6 11.8.9 15.5 1 31.1 1.4 46.5-.5 3.8-.5 7.5-1 11.3-1.8 2.6-.5 5.1-1.1 7.6-1.8 4.8-1.3 9.5-2.8 14.1-4.7 2.5-1 4.9-2.1 7.2-3.3 4.9-2.4 9.6-5.3 13.9-8.6l1.2 1.7c3.9.6 7.8.8 11.7.4.8-.1 1.6-.2 2.2-.7.9-.8 1-2.2.9-3.4-.3-6.7-.7-13.4-1-20.1 0-.9-.2-1.9-1-2.3s-1.6.1-2.4.6c-2.9 2-5.8 4-8.7 6.1l-.8-2.3c-3.2-8.2-14.1-9.9-23-9.4z" fill="#795583"/><path d="m529.9 136.2c1.7 5.9 3.1 11.8 4.4 17.8 2.5-1 4.9-2.1 7.2-3.3-1.3-5.6-2.7-11.2-4.2-16.8-1.3-4.8-8.8-2.5-7.4 2.3z" fill="#e87a64"/><path d="m492.9 121.8c-2.6 1-5.2 2.2-7.8 3.3 0 8.4 1.5 16.5 6.2 24 2.6 4.3 9.2.2 6.6-4.1-4.4-7.1-5.4-15.1-5-23.2z" fill="#e87a64"/><path d="m436.4 138.7c-.1 1.1-.2 2.3-.3 3.4-.2-1-.5-2.1-.7-3.1-1.2.3-2.5.7-3.7 1.1-1.6.5-3.2 1.2-4.5 2.1v1c-.1-.3-.2-.5-.4-.7-.9.6-1.6 1.4-2.2 2.2-2.9 4.3-.4 10.4 3.8 13.4 4.2 2.9 9.6 3.4 14.7 3.8 3.9.3 7.9.6 11.8.9-.3-4.9.8-9.7 3.1-14.2s-4.5-8.2-6.8-3.7c-.6 1.2-1.1 2.4-1.6 3.6v-1c0-3.8.1-7.7.6-11.5-4.7.7-9.3 1.5-13.8 2.7z" fill="#e87a64"/><path d="m511.5 157.4c.4 1 .8 2.1 1.2 3.1 2.6-.5 5.1-1.1 7.6-1.8-.4-1.2-.9-2.4-1.4-3.6-1.8-4.7-9.2-2.4-7.4 2.3z" fill="#e87a64"/><path d="m57.1 38.2c53.2 4.3 106.8 21.8 155.9 51 1.6 1 3.3 2 4.4 3.7 3.3 5.1-.8 11.3-4.7 14.9 2.8 3.9 8 3.8 11.7 2.1 3.8-1.7 7.1-4.7 11.1-5.3 4.1-.6 8.3 1.1 12.3 3 40.3 18.5 77.3 49 106 87.3 1.6 2.1 3.3 4.5 3.5 7.2.4 4.8-4 7.7-8 8.6s-8.6 1.2-11.3 4.6c2.5 4.4 8 2.7 12.2 1.9 8.1-1.5 16.8 2.6 23.6 9 6.7 6.4 11.7 14.8 16.4 23.3 23.6 43.3 40.1 91.1 48.2 139.8.7 4.1 1 9.2-2 11.1-1.2.8-2.7.8-4.2.8-13-.6-26.1-10.7-32-24.5-2.1-4.8-4.7-11.2-9.2-11-.2 4.1.6 8.4 2.3 12.3-4.3 3.7-10.9.9-16.2-2.1-29.5-16.6-58.1-35.7-85.4-57-6.6-5.2-13.4-10.7-17.6-18.4-6.2-11.1-8.3-27.6-19.1-31.3-1 4.2-.5 8.9 1.1 13.1-6.8.2-13-5.3-18.5-10.4-32.4-30.2-65-61.3-102.7-80.3-13.8-7-28.2-12.2-41.4-20.7s-25.7-21-31-37c1.3 6.7 1.2 13.5-.4 19.8-23.5-26.9-43.7-57.3-59.8-89.9-1.1-2.3-2.3-4.7-2.3-7.2 0-4 2.7-6.9 5.2-9.4 6.8-6.7 13.8-13.5 22.3-17.2s19-3.9 27.4 2.1z" fill="#565e32"/><path d="m11.5 53.9c6-.6 10.4-5.6 14.7-10.1s9.5-8.8 15.6-7.7 11.3 10.9 7 15.3c46.8-2 95.3 11.3 138.6 38 4.3 2.6 8.5 5.4 11.9 9.5 2.7 3.2 4.7 7 7.3 10.2 5.4 6.7 13.5 10.5 21 9.8 5.8-.5 11.4-3.5 17.3-2.1 3.9.9 7.4 3.7 10.8 6.4 10.9 8.7 21.7 17.5 32.6 26.2 5.1 4.1 10.5 8.7 12.7 15.3 2.1 6.6-1.5 15.1-7.5 14 7.7 3.7 15.4 7.4 23.1 11.1 2.2 1 4.6 2.3 5.6 4.8 1.4 3.3-.5 6.7-1.2 10-1.6 8.1 4.5 16.7 11.4 20.8 6.8 4.1 14.5 5.2 21.7 8.2 18.9 7.9 32.8 28.3 41.8 49.1-17.3-6.9-35.6-13.8-52.6-10.2 10.7 3.5 21.5 7 32.2 10.5 5.5 1.8 11.2 3.7 15.5 8.2 3.9 4 6.1 9.5 8.3 14.9 7.1 17.7 14.2 35.3 21.3 53 2.9 7.2 4.5 18.3-2 19.7-2 .4-4.2-.4-6.1-1.6-14.4-8.8-19.7-34.3-35.3-37.2.4 6.9 1.7 13.9 3.7 20.6-36.7-6.3-70.7-41.7-79.9-83.2-1.3 4.9-2.6 9.8-3.9 14.7-11.4-16.6-24.4-31.9-38.6-45.5-4-3.8-8.8-7.7-13.7-6.9-4.8.8-7.1 9.6-2.4 12.2-7.1-2.2-12-9.8-16.7-16.4-24.8-34.2-61.4-53.1-96-72.2-6.7-3.7-13.6-7.6-19.3-13.3-4.4-4.4-7.9-9.8-11.5-15.1-7.4-11.3-14.9-22.5-22.3-33.8 4.9 13.8 11.2 27 18.7 39.3-11-7.3-22.4-14.8-34.5-17.8-2.9-.7-6-1.2-8.7-2.8s-5-4.1-7.2-6.5c-14.6-16.4-30-34.2-35-56.2z" fill="#7f804f"/><path d="m386.4 323.5c-3.5-3.9-6.9-7.8-10.4-11.7l-10.5-11.5c-3.5-3.8-7.1-7.5-10.7-11.3-3.6-3.7-7.1-7.6-10.8-11.2l-10.9-11.1c-3.6-3.7-7.4-7.2-11-10.9l-5.5-5.4c-1.8-1.8-3.7-3.6-5.6-5.3l-11.2-10.6-11.4-10.4c-1.9-1.7-3.8-3.5-5.7-5.2l-5.7-5.1c-15.3-13.7-31-26.7-46.8-39.6l-11.9-9.5c-4-3.2-8-6.2-12-9.3l-6-4.7-5.3-4c14.8 1.4 29.5 1.6 44 .8-19.4-2.2-38.8-6.3-57.7-12.3-.2-.1-.4-.1-.7-.1-.5-.1-.9 0-1.3.1-7.3-5.3-14.6-10.6-22-15.6-4.1-2.9-8.3-5.7-12.4-8.6-4.2-2.8-8.4-5.6-12.6-8.3-8.5-5.4-17.3-10.5-26.4-14.6-9-4.1-18.2-7.5-27.2-10.7-8.9-3.1-17.8-6.4-26.7-10.1-8.9-3.6-17.6-7.5-26.4-11.7-2.3-1.1-4.8 0-5.5 2.6-.7 2.5.5 5.5 2.8 6.6 8.9 4.3 17.8 8.3 26.8 12s18.2 7.1 27.2 10.3 17.9 6.5 26.6 10.3c2.1 1 4.3 2 6.4 3 .3.5.6.9 1 1.3 30.9 27.6 57.4 62.8 76.6 102.4-13.2-32.3-31.2-62.8-53.2-89.5 2.3 1.5 4.7 3 7 4.6 4.1 2.8 8.2 5.6 12.4 8.4 4.1 2.8 8.3 5.6 12.3 8.5l12.3 8.6 12.2 8.8 6.1 4.4 6 4.5c4 3 8.1 6 12.1 9.1l11.9 9.3c15.9 12.5 31.6 25.2 47 38.5l5.8 4.9c1.9 1.6 3.8 3.3 5.8 5l11.5 10.1 11.4 10.3c1.9 1.7 3.8 3.4 5.7 5.1l5.6 5.2c30.1 27.7 59.1 57 87.4 87.4-6.8-8-13.5-16-20.4-23.8z" fill="#565e32"/></svg>