<svg enable-background="new 0 0 160.4 257.9" viewBox="0 0 160.4 257.9" xmlns="http://www.w3.org/2000/svg"><path d="m103.8 11.4c.2-2 1.7-3.7 2.6-5.6s.8-4.6-1-5.5c-1.3-.6-2.8 0-4.2.5-5.9 2.1-12.6 1.8-18.3-.8-1.5 3.3-.5 7.6 2.4 9.8l.8 4.6c-1 1.5-2 2.9-3 4.4-1.5 2.2-3 4.5-4.3 6.8-2.2 3.8-4.1 7.7-5.5 11.8-1.2 3.7-1.9 7.5-2.4 11.4-.3 2.5-.4 5.1-.5 7.7-.1 2.9-.1 5.8-.2 8.7 0 3.7-.1 7.4-.1 11.1 0 4.5-.1 9.1-.1 13.6 0 1.9.1 4 .7 5.8v.1c.1.3.2.6.3.9-12.3 49-14.3 99.9-6.2 149.7 1 6.2 10.4 3.5 9.4-2.7-7.8-48.1-5.6-97.4 6.3-144.6.5-.4 1-.9 1.3-1.4 1.6-2.2 2.2-4.8 3-7.3 1.4-4.7 3.3-9.2 5.4-13.7 5.9-12.7 13.5-24.8 17.6-38.2.2-.7.4-1.4.6-2.1.5-2 1-4.1 1.2-6.3.9-7.1-.3-14.4-5.8-18.7z" opacity=".1"/><path d="m72.7 95.7c-12.9 48.6-15.2 99.5-7.2 149.1 1 6 10.1 3.4 9.1-2.6-7.8-48-5.2-97.2 7.2-144.2 1.6-5.8-7.5-8.2-9.1-2.3z" fill="#f9e5a7"/><path d="m107.7 42.1c-.2.7-.4 1.4-.6 2-3.9 12.9-11.3 24.6-17 36.8-2 4.3-3.8 8.7-5.2 13.2-.8 2.5-1.4 5-2.9 7.1s-4.1 3.6-6.6 2.9c-2.2-.6-3.4-2.5-4.1-4.7 0 0 0 0 0-.1-.5-1.8-.6-3.8-.6-5.6 0-4.4.1-8.8.1-13.2 0-3.6.1-7.2.1-10.7 0-2.8 0-5.6.1-8.4.1-2.5.3-5 .5-7.4.4-3.7 1.1-7.4 2.3-11 1.3-4 3.2-7.8 5.3-11.4 1.3-2.2 2.7-4.4 4.2-6.5 1-1.4 2-2.8 2.9-4.3l-.8-4.5c-2.8-2.1-3.8-6.3-2.3-9.4 5.5 2.5 11.9 2.8 17.6.8 1.3-.5 2.8-1 4-.4 1.8.9 1.8 3.5 1 5.3s-2.2 3.4-2.5 5.4c5.3 4.1 6.5 11.2 5.7 18.1-.3 2.1-.7 4.1-1.2 6z" fill="#795583"/><g fill="#e87a64"><path d="m90.1 81c-2 4.3-3.8 8.7-5.2 13.2-.8 2.5-1.4 5-2.9 7.1s-4.1 3.6-6.6 2.9c-2.2-.6-3.4-2.5-4.1-4.7h.4c-.1 0-.3-.1-.4-.1-.5-1.8-.6-3.8-.6-5.6 0-4.4.1-8.8.1-13.2 3.7.2 7.3.3 11 .4 2.6 0 5.5.1 8.3 0z"/><path d="m91.7 34c-4.3-.5-8.5-1.3-12.6-2.3 1.3-2.2 2.7-4.4 4.2-6.5 3.4.8 6.8 1.3 10.3 1.8 4.6.5 2.7 7.6-1.9 7z"/><path d="m107.7 42.1c-.2.7-.4 1.4-.6 2-4.7 1.3-9.5 2-14.4 2.3-4.7.3-4.8-7.1-.1-7.3 4.3-.2 8.6-.9 12.8-2.1 1.1-.3 2.3-.6 3.5-1-.3 2.2-.7 4.2-1.2 6.1z"/><path d="m97.2 62c-8.8 1.6-17.6 1.4-26.3-.5.1-2.5.3-5 .5-7.4 7.8 1.9 15.7 2.3 23.7.9 4.7-.9 6.7 6.2 2.1 7z"/></g><path d="m47 221.2c-5.6-36.4-13.2-72.5-22.7-108.1 1-1 1.8-2.3 2.3-3.6 1.5-3.9.9-8.2.2-12.3 0-.1-.1-.3-.1-.4-.4-2-.8-4.1-1.2-6.1-.3-1.4-.7-2.8-1.1-4.1-1.2-4.2-2.7-8.4-4.8-12.2-.7-1.2-1.4-2.4-2.2-3.5-1.1-1.6-2.4-3.1-3.8-4.5-1.1-1.1-2.3-2.4-2.1-3.9.3-1.5 1.8-3.2.7-4.2-.2-.2-.5-.3-.8-.4-3.8-.9-8.1-.1-11.4 2.2 1.4 2 2.8 4 4.3 6l-.1.8c-2.3 1.9-2.1 5.4-1.6 8.3.6 3.3 1.3 6.6 2.1 9.8.3 1.4.6 2.7 1 4 1.4 4.9 3.1 9.6 5 14.3.6 1.4 1.2 2.8 1.8 4.1.2.3.3.7.5 1 1.1 2.4 2.3 4.8 3.6 7.1.9.3 1.9.3 2.9.2 9.3 35.1 16.8 70.7 22.3 106.6.5 3.4 5.7 2.3 5.2-1.1z" opacity=".1"/><path d="m21.1 116.3c9.3 34.7 16.7 69.8 22.2 105.2.5 3.3 5.5 2.2 5-1.1-5.5-35.5-12.9-70.6-22.2-105.2-.8-3.1-5.8-2.1-5 1.1z" fill="#f9e5a7"/><path d="m28.7 100.5c0 .1 0 .3.1.4.7 4 1.2 8.1-.2 11.8-1.5 3.9-5.7 7-9.6 5.8-1.2-2.3-2.4-4.5-3.5-6.9-.2-.3-.3-.7-.5-1-.6-1.3-1.2-2.6-1.7-4-1.9-4.5-3.5-9.1-4.8-13.8-.4-1.3-.7-2.5-1-3.8-.8-3.1-1.5-6.3-2-9.5-.5-2.8-.7-6.2 1.6-8l.1-.8c-1.4-1.9-2.7-3.9-4.1-5.8 3.2-2.2 7.3-3 11.1-2 .3.1.6.2.8.4 1.1.9-.4 2.6-.7 4-.2 1.5 1 2.7 2 3.8 1.3 1.4 2.5 2.8 3.6 4.4.8 1.1 1.5 2.2 2.1 3.4 2 3.7 3.5 7.6 4.7 11.7.4 1.3.7 2.7 1 4 .3 2 .7 3.9 1 5.9z" fill="#795583"/><path d="m28.8 100.8c.7 4 1.2 8.1-.2 11.8-1.5 3.9-5.7 7-9.6 5.8-1.2-2.3-2.4-4.5-3.5-6.9 0-.5.2-.9.7-1.2-.4.1-.7.1-1.1.2-.6-1.3-1.2-2.6-1.7-4 5.2-1.5 10.5-3.2 15.4-5.7z" fill="#e87a64"/><path d="m27.5 94.6c-1.7.9-3.6 1.6-5.6 2-2.5.5-3.3-3.3-.8-3.9 2-.4 3.7-1.1 5.4-2.1.4 1.3.7 2.7 1 4z" fill="#e87a64"/><path d="m15.9 90.3c-2.4 1.3-4.9 2.1-7.5 2.5-.4-1.3-.7-2.5-1-3.8 2.3-.4 4.6-1.2 6.7-2.3 2.3-1.1 4.1 2.5 1.8 3.6z" fill="#e87a64"/><path d="m159.6 78.6c-2.9-1.6-5.8-3.2-8.7-4.9-.5-.3-1.2-.6-1.7-.4-.4.1-.6.5-.8.8-1 1.6-1.8 3.4-2.4 5.3l.5.9c-2.4 1.2-4.7 2.7-6.9 4.3-1 .8-2.1 1.6-3 2.5-1.8 1.6-3.6 3.4-5.2 5.2-.8 1-1.7 2-2.5 3-1.2 1.5-2.2 3-3.3 4.6-4.2 6.4-7.5 13.4-10.4 20.4-.8 1.8-1.5 3.6-2.2 5.4-.9 2.3-1.9 4.8-1.5 7.3-23.1 37-33.2 80-43 122-.7 3.1 4.1 4.2 4.8 1.1 9.5-40.8 19.3-82.5 41.2-118.6.6.3 1.3.4 2 .3.5-.1 1-.2 1.5-.5.1 0 .1-.1.2-.1.7-.4 1.3-1 1.9-1.6.5-.4.9-.9 1.3-1.4.1-.1.2-.3.3-.4 1.5-1.7 2.9-3.6 4.3-5.5 1.6-2.2 3.3-4.5 5.2-6.5 2.2-2.4 4.8-4.5 7.3-6.6 1.1-.9 2.1-1.8 3.2-2.7.1-.1.1-.1.2-.1 5.2-4.7 9.6-10.2 13.1-16.2 2.2-3.8 3.8-9.1.9-12.3l-.8-.9c1.6-.8 3.1-1.6 4.6-2.5.4-.2.8-.5.8-.9-.1-.5-.5-.8-.9-1z" opacity=".1"/><path d="m112.1 133c-23.3 36.2-33.4 78.7-43 120.1-.7 3 4 4.1 4.7 1 9.5-41 19.4-83 42.5-118.9 1.7-2.6-2.6-4.8-4.2-2.2z" fill="#f9e5a7"/><path d="m152.5 99.8c-3.3 5.9-7.6 11.2-12.6 15.7-.1 0-.1.1-.2.1-1 .9-2 1.8-3.1 2.6-2.4 2-4.9 4-7 6.4-1.8 2-3.4 4.1-5 6.3-1.3 1.8-2.7 3.6-4.1 5.3-.1.1-.2.3-.3.4-.4.5-.8.9-1.3 1.3-.6.6-1.2 1.1-1.9 1.5-.1 0-.1.1-.2.1-.5.2-.9.4-1.4.5-2.4.3-4.5-2-4.9-4.5-.3-2.4.6-4.8 1.5-7.1.7-1.7 1.4-3.5 2.1-5.2 2.9-6.8 6-13.6 10.1-19.7 1-1.5 2-3 3.2-4.4.8-1 1.5-1.9 2.4-2.9 1.6-1.8 3.2-3.5 5-5 .9-.8 1.9-1.6 2.9-2.4 2.1-1.6 4.3-3 6.6-4.1l-.5-.9c.5-1.8 1.3-3.5 2.3-5.1.2-.3.4-.6.8-.8.5-.2 1.1.1 1.7.3 2.8 1.6 5.6 3.1 8.4 4.7.4.2.8.5.8.9s-.4.7-.7.9c-1.5.8-2.9 1.6-4.5 2.4l.8.8c2.8 3.1 1.2 8.2-.9 11.9z" fill="#795583"/><path d="m141.4 96.7c-2.2-2-4.4-3.8-6.7-5.7.9-.8 1.9-1.6 2.9-2.4 2.1 1.7 4.2 3.5 6.3 5.4 1.9 1.7-.7 4.3-2.5 2.7z" fill="#e87a64"/><path d="m139.7 115.6c-1 .9-2 1.8-3.1 2.6-3.6-1.8-6.7-4.1-9-7.7-1.3-2 1.9-4 3.1-1.9 2.3 3.3 5.5 5.4 9 7z" fill="#e87a64"/><path d="m120.5 136.1c-.5-.2-1-.4-1.5-.6.4.3.8.6 1.2 1-.4.5-.8.9-1.3 1.3-.6.6-1.2 1.1-1.9 1.5l-.4-.2c.1.1.2.2.2.3-.5.2-.9.4-1.4.5-2.4.3-4.5-2-4.9-4.5-.3-2.4.6-4.8 1.5-7.1.7-1.7 1.4-3.5 2.1-5.2 2 1.1 4.3 1.7 6.7 1.7s2.5 3.7.2 3.7c-.6 0-1.2 0-1.9-.1l.4.2c1.6.8 3.3 1.6 5 2.2-1.2 1.9-2.5 3.7-4 5.3z" fill="#e87a64"/><path d="m128.5 100.1c-.4-.4-.7-.8-1.1-1.2.8-1 1.5-1.9 2.4-2.9.4.4.8.9 1.2 1.3 1.7 1.9-.9 4.6-2.5 2.8z" fill="#e87a64"/></svg>