<svg enable-background="new 0 0 492.9 301" viewBox="0 0 492.9 301" xmlns="http://www.w3.org/2000/svg"><path d="m269.5 269.8-2.9-.5c-4.8-27.6-15.7-54.1-31.6-77.2-.5-.8-1.1-1.5-1.9-2-2.5-1.3-5.1 1.5-6.5 3.9-1.9-1.1-2.2-3.8-1.6-6s1.7-4.2 1.8-6.4-1-4.3-2-6.2c-10.6-19.4-26.4-36-45.3-47.5-1.1-.6-2.2-1.3-3.4-1.1-2.2.3-3.3 2.8-3.5 5s-.1 4.6-1.5 6.4c-2.1-.9-1.6-3.9-1.5-6.2.3-4.4-2.1-8.6-5.4-11.5s-7.4-4.8-11.4-6.4c-20.9-8.3-43.4-12.5-65.9-12.1-1.9 0-4.2.4-4.9 2.1-.3.7-.2 1.5-.1 2.3 1 6.8 6.3 12.7 12.9 14.5 2.3.6 5.3 1.4 5.5 3.8-1.9.5-3.9.5-5.7 0-1.4 2.6.2 5.8 1.8 8.3 9.1 13.9 19.3 27.2 30.5 39.5 2.7 3 5.6 6 9.3 7.5 5.4 2.2 12.9 1.7 15.2 7.1-1.8.9-4 1.1-6 .6.3 3.6 3.1 6.3 5.7 8.8 15.4 14.2 31.3 28.4 42 46.4 3.9 6.6 7.1 13.7 11.6 19.8 4.6 6.2 10.9 11.5 18.5 12.8-3.1-.1-6.2.7-8.9 2.1 13.4 9.7 28.2 17.4 43.9 22.8 1.1.4 2.3.8 3.4.5 1.8-.4 3-2.1 4-3.6 2.7-4.2 5.3-8.5 6.6-13.4 1-4.8.5-10.3-2.7-14.1z" opacity=".1"/><path d="m265.8 268.4c-4.7-26.5-15.1-51.9-30.3-74-.5-.7-1-1.5-1.8-1.9-2.4-1.2-4.9 1.4-6.2 3.7-1.8-1.1-2.1-3.7-1.5-5.7s1.7-4 1.7-6.1c.1-2.1-.9-4.1-1.9-5.9-10.2-18.7-25.3-34.5-43.5-45.6-1-.6-2.1-1.2-3.3-1.1-2.1.3-3.1 2.7-3.3 4.8s-.1 4.5-1.4 6.1c-2-.9-1.6-3.8-1.4-6 .3-4.2-2-8.3-5.2-11.1s-7.1-4.6-11-6.1c-20-8-41.7-12-63.3-11.6-1.8 0-4 .4-4.7 2-.3.7-.2 1.4-.1 2.2.9 6.5 6 12.2 12.3 13.9 2.2.6 5.1 1.3 5.2 3.6-1.8.5-3.7.5-5.5 0-1.4 2.5.2 5.6 1.8 8 8.7 13.4 18.5 26.1 29.3 37.9 2.6 2.9 5.4 5.8 8.9 7.2 5.2 2.1 12.4 1.7 14.6 6.8-1.8.9-3.8 1.1-5.8.6.3 3.4 3 6.1 5.5 8.4 14.8 13.6 30 27.3 40.3 44.6 3.7 6.3 6.8 13.1 11.2 19s10.4 11 17.7 12.3c-3-.1-5.9.6-8.6 2 12.9 9.3 27.1 16.7 42.1 21.9 1.1.4 2.2.7 3.3.5 1.7-.3 2.9-2 3.8-3.5 2.5-4.1 5.1-8.2 6.3-12.8s.7-10-2.3-13.6z" fill="#565e32"/><path d="m261.4 292.8c0-3.1 1.9-5.8 3.6-8.3 1.7-2.6 3.3-5.6 2.5-8.6s-5.3-4.7-7-2.1c-1.6-23.8-9.9-47.1-23.8-66.5-1.4-1.9-2.8-3.8-4.7-5.2-1.5-1.1-3.3-1.7-4.8-2.8-3.2-2.1-5.3-5.9-5.4-9.7-.1-3 .9-6.1 0-8.9-.6-1.9-2-3.4-3.4-4.9-4.4-4.7-8.7-9.4-13.1-14.1-2.1-2.2-4.3-4.5-7.3-5s-6.5 2.1-5.7 5c-2-3.5-4-7.1-6-10.6-.6-1-1.2-2.1-2.4-2.4-1.5-.4-2.9.9-4.3 1.5-3.4 1.5-7.5-.8-9.6-3.8-2.1-3.1-3-6.9-4.7-10.2-4.4-8.8-14-14-23.5-16.6 3.9 8.1 7.9 16.7 7.2 25.6-2.1-5.1-4.2-10.2-6.3-15.3-1.1-2.6-2.2-5.3-4.4-7.1-1.9-1.6-4.5-2.2-6.9-2.8-8-2-16.1-4-24.1-5.9-3.3-.8-8.2-.6-8.4 2.8-.1 1 .4 2.1 1 2.9 4.6 6.4 15.9 6.8 18 14.4-3 .4-6.1.4-9.2 0 4.7 17.9 21.8 31.9 40.3 32.8-2.1 1.1-4.1 2.2-6.2 3.3 7.8 4.2 15.2 9.4 21.8 15.4 1.9 1.7 3.8 3.8 3.7 6.3s-3.8 4.4-5.2 2.3c1.3 3.4 4.9 5.2 8 7 16.2 9.4 26.3 26.2 36.4 41.9 2 3.1 4 6.2 6.8 8.5 2.1 1.8 4.7 3.1 7.2 4.4 5.3 2.7 10.6 5.5 15.9 8.2-6.2-1.2-12.3-3.2-18.1-5.9 3.8 4.9 7.6 9.9 9.6 15.8.5 1.4.8 2.9 1.7 4.1.8 1.2 2 2.1 3.2 3 7.9 5.9 16.4 12 26.3 12.6z" fill="#7f804f"/><path d="m124.6 128.1c1.9 1.4 3.8 2.8 5.6 4.2l5.5 4.3c1.9 1.4 3.7 2.9 5.5 4.4s3.7 2.9 5.4 4.4l5.4 4.5c1.8 1.5 3.5 3.1 5.3 4.6l2.6 2.3c.9.8 1.7 1.6 2.6 2.3l5.2 4.7 5.1 4.8c.8.8 1.7 1.6 2.6 2.4l2.5 2.4c6.7 6.5 13.2 13.2 19.6 20l4.8 5.1c1.6 1.7 3.1 3.5 4.7 5.2l2.3 2.6 2 2.3c-1.4-7.4-2.2-14.8-2.6-22.2 2 9.6 4.8 19 8.3 28 0 .1.1.2.1.3.1.2.1.4 0 .7 2.7 3.2 5.4 6.4 7.9 9.7 1.5 1.8 2.9 3.6 4.4 5.5 1.4 1.8 2.9 3.7 4.3 5.6 2.8 3.8 5.4 7.8 7.7 12s4.2 8.5 6.1 12.8 3.8 8.5 5.8 12.6 4.2 8.2 6.5 12.2c.6 1.1.2 2.4-.8 3-1.1.6-2.4.2-3-.8-2.3-4.1-4.6-8.2-6.6-12.5-2.1-4.2-4-8.5-5.9-12.8s-3.7-8.5-5.9-12.5c-.5-1-1.1-2-1.6-3-.2-.1-.4-.2-.6-.4-13.6-13.1-30.3-23.2-48.5-29.3 14.7 3.7 28.9 10.1 41.7 18.7-.8-1-1.6-2.1-2.4-3.1-1.4-1.8-2.9-3.7-4.3-5.5s-2.9-3.7-4.3-5.4l-4.4-5.4-4.5-5.3-2.2-2.7-2.3-2.6c-1.5-1.8-3-3.5-4.6-5.3l-4.6-5.2c-6.2-6.9-12.6-13.6-19.2-20.2l-2.4-2.5c-.8-.8-1.7-1.6-2.5-2.4l-5-4.9-5.1-4.8c-.8-.8-1.7-1.6-2.5-2.4l-2.6-2.4c-13.6-12.7-27.9-24.7-42.5-36.2 3.8 2.8 7.7 5.4 11.4 8.2z" fill="#565e32"/><path d="m488.8 183.5c-21.5-7-44.4-10.3-67-9.8-4.4.1-8.9.4-12.9 1.8s-7.6 4.1-8.6 7.7c-.6 1.9-1 4.5-3.3 4.6-.8-1.8 0-3.7.5-5.5s.2-4.2-1.8-5.1c-1.1-.5-2.4-.3-3.7-.1-21.6 3.6-41.8 12.2-57.8 24.7-1.6 1.2-3.2 2.6-3.8 4.4s-.1 3.8-.2 5.7-1.1 4-3.3 4.3c-.7-2.3-2.3-5.3-5.1-5-.9.1-1.7.6-2.4 1-22.2 13.8-40.6 31.9-53.5 52.7l-2.9-.4c-4.2 2.1-6.3 6.4-6.6 10.7s1 8.5 2.3 12.7c.5 1.5 1.1 3.3 2.7 4.1 1 .5 2.3.6 3.4.6 16.7.3 33.2-1.5 49-5.3-2.2-2-5-3.5-8-4.3 7.7 1.2 15.3-1.2 21.6-4.8 6.2-3.6 11.4-8.3 17.2-12.5 15.7-11.3 35.2-18.1 54.3-24.9 3.3-1.2 6.8-2.6 8.1-5.3-2.1-.2-4.1-1-5.6-2.3 3.8-3.6 10.9-1 16.7-1.2 4-.1 7.7-1.7 11.2-3.3 14.5-6.6 28.2-14.2 41.2-22.7 2.3-1.5 4.9-3.6 4.2-6.1-1.9-.1-3.9-.7-5.5-1.7.8-1.9 4-1.6 6.4-1.4 6.9.5 13.7-2.7 16.7-7.9.3-.6.6-1.2.6-1.9-.2-1.9-2.3-2.9-4.1-3.5z" opacity=".1"/><path d="m268.9 263.1c12.4-19.9 30.1-37.3 51.4-50.6.7-.4 1.4-.9 2.3-1 2.7-.3 4.2 2.6 4.9 4.8 2.1-.3 3.1-2.3 3.2-4.2.1-1.8-.4-3.7.2-5.4s2.1-3 3.6-4.2c15.4-12 34.7-20.3 55.5-23.7 1.2-.2 2.4-.4 3.5.1 1.9.8 2.2 3.1 1.8 4.9s-1.3 3.6-.5 5.3c2.2-.1 2.7-2.6 3.2-4.4 1-3.5 4.4-6 8.3-7.4 3.9-1.3 8.2-1.6 12.4-1.7 21.7-.5 43.7 2.7 64.3 9.4 1.7.6 3.8 1.5 3.9 3 .1.6-.2 1.2-.5 1.8-2.9 4.9-9.4 8-16 7.5-2.3-.2-5.3-.4-6.1 1.4 1.6.9 3.4 1.5 5.3 1.6.6 2.4-1.8 4.4-4.1 5.9-12.4 8.2-25.7 15.5-39.5 21.8-3.4 1.5-6.9 3-10.8 3.2-5.6.2-12.4-2.3-16.1 1.1 1.4 1.2 3.4 2 5.3 2.2-1.3 2.7-4.7 4-7.8 5.1-18.3 6.5-37.1 13-52.1 23.9-5.5 4-10.5 8.5-16.5 12s-13.4 5.8-20.7 4.6c2.9.8 5.5 2.3 7.6 4.1-15.2 3.7-31.1 5.4-47 5.1-1.1 0-2.3-.1-3.3-.6-1.6-.8-2.2-2.4-2.6-3.9-1.2-4-2.5-8.1-2.2-12.2s2.3-8.2 6.4-10.3z" fill="#565e32"/><path d="m265.8 284.1c1-2.5-.1-5.2-1-7.8s-1.5-5.5.2-7.7 6.5-2.2 7.4.4c8.7-18.7 23.7-34.9 42.8-46.4 1.9-1.1 3.8-2.2 6.1-2.7 1.8-.4 3.7-.4 5.5-.8 3.7-.8 6.8-3.2 8.1-6.2 1-2.4.9-5.2 2.7-7.2 1.2-1.3 3-2.1 4.7-2.9 5.6-2.5 11.2-4.9 16.8-7.4 2.6-1.2 5.5-2.4 8.5-1.8 3 .5 5.6 3.6 4 5.7 3-2.3 6-4.5 9-6.8.8-.6 1.8-1.3 3-1.2 1.6.1 2.5 1.6 3.7 2.5 2.8 2.2 7.4 1.6 10.4-.2s5-4.6 7.6-6.8c6.9-5.8 17.6-7.1 27.6-6.4-6.2 5.4-12.6 11.1-14.6 18.5 3.5-3.5 7.1-7 10.6-10.4 1.8-1.8 3.7-3.6 6.4-4.4 2.3-.7 5-.5 7.5-.2 8.3.8 16.7 1.6 25 2.4 3.4.3 8 2 7.3 4.8-.2.9-1 1.5-1.8 2-6.3 3.8-17.4.8-21.6 6.3 2.8 1.2 5.8 2.2 8.8 2.7-9.9 13-30.5 19.2-48.6 14.4 1.6 1.5 3.3 3 4.9 4.5-8.8 1.1-17.4 3.1-25.6 5.9-2.3.8-4.8 1.9-5.5 3.9-.7 2.1 2.3 4.7 4.3 3.4-2.3 2.3-6.2 2.7-9.8 3.2-18.4 2.8-33.1 13.2-47.6 22.9-2.8 1.9-5.7 3.8-9.1 4.8-2.6.8-5.4 1.1-8.2 1.4-5.9.6-11.8 1.3-17.7 1.9 6.4.9 12.8 1.1 19.1.6-5.1 2.8-10.3 5.7-13.9 9.9-.9 1-1.7 2.1-2.8 2.8-1.2.7-2.6 1.1-4 1.5-9.4 2.4-19.4 4.8-29 2.3z" fill="#7f804f"/><path d="m446.8 192.2c-2.2.6-4.4 1.1-6.7 1.7l-6.6 1.8c-2.2.6-4.4 1.3-6.6 1.9s-4.4 1.3-6.5 1.9l-6.5 2c-2.2.7-4.3 1.4-6.5 2.1l-3.2 1.1c-1.1.4-2.1.7-3.2 1.1l-6.4 2.2-6.4 2.3c-1.1.4-2.1.8-3.2 1.2l-3.2 1.2c-8.4 3.2-16.7 6.7-24.9 10.3l-6.1 2.7c-2 .9-4 1.9-6.1 2.8l-3 1.4-2.6 1.3c3.5-5.5 6.6-11.2 9.2-17-4.8 7.1-10.3 13.9-16.4 20-.1.1-.1.1-.2.2-.1.2-.2.3-.2.5-3.5 1.8-7.1 3.5-10.5 5.4-1.9 1-3.9 2.1-5.8 3.1-1.9 1.1-3.9 2.1-5.8 3.2-3.8 2.2-7.6 4.6-11 7.4-3.4 2.7-6.6 5.6-9.7 8.5s-6.2 5.7-9.4 8.4-6.5 5.4-9.9 7.9c-.9.7-.9 1.9-.1 2.7s2.2.9 3.1.2c3.5-2.6 6.8-5.3 10.1-8 3.3-2.8 6.4-5.7 9.5-8.5 3.1-2.9 6.1-5.7 9.4-8.3.8-.6 1.6-1.3 2.5-1.9.2 0 .5-.1.7-.1 17-6.5 36.1-9.7 55.4-9.2-15.3-1.4-30.8-.5-45.7 2.7 1.1-.6 2.1-1.2 3.2-1.8 1.9-1.1 3.8-2.1 5.8-3.1 1.9-1 3.8-2.1 5.8-3.1l5.8-3.1 5.9-3 3-1.5 3-1.4c2-1 4-1.9 6-2.9l6-2.8c8.1-3.7 16.2-7.2 24.5-10.6l3.1-1.3c1-.4 2.1-.8 3.1-1.2l6.3-2.4 6.3-2.4c1.1-.4 2.1-.8 3.2-1.2l3.2-1.1c16.9-6.2 34.2-11.6 51.8-16.5-4.6 1.1-9 2.1-13.5 3.2z" fill="#565e32"/><path d="m224.4 256.2c-6.3-3.1-12.7-5.9-19.2-8.5 2.6-3.8 5-7.7 7-11.9 2.4-4.9 4.6-10.2 4.3-15.7-.3-5.8-2.8-10.8-6.4-15s-8.3-7.7-13-10.4c-.4-.2-.9-.1-1.1.3-.6 2 .4 2.2 1.5 4.1 1.7 2.8 2.3 6.1 2.5 9.3.2 6.2-1.8 12.2-3.3 18.2-1.3 5.2-2.1 10.7-.9 16 .1.6.3 1.1.5 1.7-4.4-1.7-8.9-3.3-13.4-4.9l-8.2-2.7c2.3-2.6 4.5-5.3 6.4-8.4.2-.3.3-.6.4-.9.2-.6.4-1.3.5-1.9 0-.1.1-.2.1-.3.8-4.7 1.5-9.6.3-14.4-1.1-4.3-3.5-7.9-6.4-11-1.1-1.1-2.2-2.2-3.4-3.2-2.2-1.9-4.7-3.6-7.2-5-1.9-1.1-3.9-2.2-5.9-3.1-.8-.4-1.5-.7-2.2-.9-.4-.2-1 0-1.2.4-.3.7-.2 1.3.1 1.8.4.6 1.1 1 1.8 1.9 2 2.4 3.2 5.3 3.9 8.3.6 2.7.8 5.4.8 8.2 0 3-.2 6-.3 9-.1 3.6 0 7.3.8 10.8.3 1.4.7 2.8 1.3 4.2.2.6.5 1.2.8 1.7l-3.5-1.1-5.3-1.6c-1.8-.5-3.6-1-5.4-1.5-2.3-.6-4.6-1.3-6.9-1.9 2.3-1.7 4.5-3.7 6.6-6.2.2-.2.3-.6.4-.9.1-.7.2-1.4.2-2.1 0-.1 0-.2 0-.3-.3-4.9-.7-10.1-2.9-14.7-2-4.2-5.2-7.5-8.9-10.3-1.3-1-2.7-2-4.1-2.8-2.7-1.6-5.5-3.1-8.4-4.3-2.2-.9-4.5-1.8-6.7-2.5-.9-.3-1.7-.5-2.5-.7-.5-.1-1.1 0-1.3.4-.4.6-.3 1.3.1 1.6.5.5 1.2.9 2 1.6 2.2 2.1 3.9 4.5 5.1 7.2 1.1 2.4 1.9 4.9 2.5 7.4.6 2.8 1.1 5.6 1.7 8.4.7 3.3 1.5 6.7 2.8 10 .5 1.3 1.2 2.5 1.9 3.8.4.6.8 1.2 1.2 1.7-6.6-1.7-13.1-3.3-19.7-4.8 2.6-1 5.2-2.4 7.7-4.5.2-.2.4-.6.4-.9 0-.7 0-1.5-.1-2.2 0-.1 0-.2 0-.3-1.4-5-2.8-10.3-5.9-14.7-2.9-4.1-6.9-6.9-11.2-9.3-1.5-.9-3.1-1.7-4.8-2.4-3-1.4-6.2-2.6-9.4-3.5-2.5-.7-4.9-1.4-7.4-1.8-1-.2-1.9-.3-2.7-.4-.5 0-1.1.1-1.5.5s-.3 1.2.2 1.5c.6.4 1.3.7 2.1 1.2 2.5 1.7 4.5 3.7 6.2 5.9 1.5 2.1 2.8 4.2 3.9 6.5 1.2 2.5 2.3 5 3.5 7.5 1.4 3 2.8 6 4.7 8.9.7 1.1 1.5 2.2 2.4 3.3.8.9 1.6 1.7 2.5 2.5-2.6-.6-5.1-1.1-7.7-1.7-3.6-.8-7.3-1.6-10.9-2.3-.6-.1-1.2-.2-1.9-.4 2.3-.4 4.5-1.2 6.7-2.6.2-.1.4-.5.3-.8-.1-.8-.2-1.5-.4-2.3 0-.1 0-.2-.1-.3-2.4-5.1-4.9-10.3-8.8-14.4-3.7-3.8-8.5-6.2-13.4-8.1-1.8-.7-3.6-1.3-5.4-1.9-3.4-1.1-6.9-2-10.4-2.7-2.7-.5-5.4-.9-8.1-1.2-1.2-.1-2-.2-2.9-.1-.5.1-1.1.2-1.6.6-.5.3-.4 1.2.2 1.4.7.3 1.4.5 2.2.9 2.6 1.3 5 2.8 7.1 4.7 1.9 1.7 3.6 3.5 5.2 5.4 1.8 2.1 3.4 4.3 5.1 6.5 2 2.6 4 5.2 6.4 7.7.9 1 1.9 1.9 2.9 2.8.9.8 1.9 1.5 2.9 2.2-5.4-1-10.9-1.9-16.3-2.5.9-.2 1.9-.5 2.8-.9.3-.1.4-.5.3-.8-.2-.8-.4-1.6-.7-2.4 0-.1 0-.2-.1-.3-3.4-5-6.8-10.1-11.6-13.9-4.5-3.5-10-5.4-15.4-6.9-5.6-1.5-11.4-2.7-17.2-3.3-2.9-.3-5.8-.5-8.7-.5-2 0-3.1 0-4.8.9-.5.3-.4 1.2.2 1.3 6.4 1.4 11.6 4.5 16.5 8.2s9.4 8 14.4 11.7c3.8 2.9 8.3 5.3 13 6.6 3.5.9 7.1 1.2 10.7.5 1.4.4 2.8.7 4.2 1-5.4.2-10.6 2.1-15.2 5.1-7.8 5.1-13.9 12.1-23.4 13.9-.6.1-.9 1-.3 1.3 3 1.7 7.4.9 10.7.6 5-.4 10.1-1.2 14.9-2.6 8.3-2.3 15.9-8.6 18.3-17.1 3.5.8 6.9 1.5 10.4 2.3l10.8 2.4 1.2.3c-1.3.1-2.7.4-4 .8-4.1 1.2-7.7 3.5-11 6.1-5.6 4.5-10.5 9.9-17 13-1.4.7-2.9 1.2-4.5 1.6-.5.1-.9.9-.5 1.2.7.6 1.5.9 2.4 1.1 1 .2 2.3.1 3.6.3.4.1.9.1 1.3.1 6.2 0 12.5-.8 18.2-3.2 7.2-3 13.9-8.5 16.3-16.3.1-.2.1-.4.2-.7.2-1 .2-2 .1-2.9 1.5.4 3 .7 4.5 1.1 5.9 1.4 11.9 3 17.8 4.5-1.6.2-3.1.6-4.5 1.1-4.2 1.6-7.7 4.4-10.9 7.4-5 4.7-9.5 10.1-15.6 13.4-1.3.7-2.8 1.3-4.3 1.8-.5.2-.9.8-.7 1.1.3.6.6 1 1 1.2.2.4.9.2 1.7.8.2.2.7.3 1.1.4 7.3.6 15 0 21.6-3.4 6.3-3.3 12.1-8.3 14.4-15.4.1-.4.2-.8.3-1.1.5-2 .7-4 .8-5.9 6.8 1.8 13.5 3.7 20.2 5.7.7.2 1.4.4 2 .6-1.7.2-3.3.7-4.9 1.4-4.4 1.9-7.8 5.1-11.1 8.6-4.5 4.8-8.7 10.2-14.5 13.6-1.3.8-2.6 1.4-4.1 1.9-.5.2-.9.6-.9.9-.1.6-.3 1-.4 1.2-.6.4-.4.1-.2 1.2 0 .3.5.5.9.6 8.4 1.5 17.5 1.5 25.1-3 5.5-3.3 10.4-8.1 12.7-14.4.2-.5.4-1.1.5-1.6.9-2.9 1.5-5.9 1.8-8.9 1.2.4 2.4.7 3.6 1.1 1.8.5 3.5 1.1 5.3 1.6l5.3 1.7 5.3 1.7 2.6.9h.1c-1.9.2-3.7.7-5.4 1.5-4.7 2.1-8.2 5.7-11.5 9.5-4.2 4.8-8.2 10.2-13.7 13.7-1.2.8-2.5 1.4-3.9 2-.5.2-.9.5-1.2.7-.6.5-1.2.9-1.9 1.1-1.3.4-1.7-.1-2.2 1.4-.1.3.2.7.7.9 9.3 2.7 19.9 3.8 28.6-1.7 4.9-3.1 8.8-7.8 11.3-13.3.3-.7.6-1.3.8-2 1.5-3.8 2.7-7.8 3.4-11.8l7.9 2.8c5 1.9 10.1 3.8 15 5.9-.3 0-.6-.1-.9-.1-2.4 0-4.8.5-7.1 1.5-5 2.1-8.9 6-12.4 10.1-4.1 4.8-7.9 10.2-13.3 13.6-2.6 1.6-5.4 2.8-8.5 3.1-2.2.2-2.9-.5-4.2 1.2-.3.4-.1.9.4 1.1 10 4.3 22.2 7.2 32 .8 4.5-3 7.5-7.7 10-12.3 2.9-5.3 5.2-10.8 7-16.6.1-.2 0-.5-.1-.6 0-.1-.1-.1-.2-.2-.4-.4-.8-.7-1.1-.9 8.2 3.4 16.2 7 24.1 11z" opacity=".1"/><path d="m10.4 184.3c6.1 1.4 11.1 4.4 15.8 7.9s9 7.7 13.8 11.2c3.7 2.7 8 5.1 12.4 6.3 4.5 1.2 9.2 1.3 13.7-.6.3-.1.4-.5.3-.8-.2-.8-.4-1.5-.6-2.3 0-.1 0-.2-.1-.3-3.2-4.8-6.6-9.7-11.2-13.3-4.3-3.4-9.6-5.2-14.8-6.6-5.4-1.5-11-2.5-16.5-3.1-2.8-.3-5.5-.5-8.3-.5-1.9 0-3 0-4.6.8-.5.3-.4 1.1.1 1.3z" fill="#f9e5a7"/><path d="m97.5 211.4c-.1-.7-.2-1.5-.4-2.2 0-.1 0-.2-.1-.3-2.3-4.9-4.7-9.9-8.5-13.8-3.6-3.7-8.2-5.9-12.9-7.8-1.7-.7-3.4-1.3-5.2-1.9-3.3-1.1-6.6-1.9-10-2.6-2.6-.5-5.2-.9-7.8-1.1-1.1-.1-1.9-.2-2.8-.1-.5.1-1 .2-1.5.6-.5.3-.4 1.2.2 1.4.7.3 1.4.5 2.1.9 2.5 1.2 4.8 2.7 6.8 4.5 1.8 1.6 3.5 3.4 5 5.2 1.7 2 3.3 4.1 4.9 6.2 1.9 2.5 3.9 5 6.1 7.4.9.9 1.8 1.8 2.8 2.7 1.6 1.3 3.3 2.5 5.1 3.5 1.1.6 2 .9 3.2 1.2h.2.4c3.9 0 8-.6 11.8-2.9.5-.2.6-.6.6-.9z" fill="#d0c38a"/><path d="m127.2 215.7c0-.7 0-1.4-.1-2.1 0-.1 0-.2 0-.3-1.3-4.8-2.7-9.9-5.7-14.1-2.8-3.9-6.6-6.6-10.8-8.9-1.5-.8-3-1.6-4.6-2.3-2.9-1.3-6-2.4-9.1-3.4-2.4-.7-4.7-1.3-7.1-1.8-1-.2-1.8-.3-2.6-.4-.5 0-1 .1-1.4.5s-.3 1.2.2 1.5c.6.4 1.3.7 2 1.2 2.4 1.6 4.3 3.6 5.9 5.7 1.5 2 2.7 4.1 3.8 6.2 1.2 2.4 2.2 4.8 3.3 7.2 1.3 2.9 2.7 5.8 4.5 8.5.7 1.1 1.5 2.1 2.3 3.1 1.4 1.6 2.9 3.1 4.7 4.3 1.1.8 2 1 3.2 1.3h.2c.2 0 .3 0 .4-.1 3.4-1.2 7-2.5 10.3-5.4.4 0 .6-.4.6-.7z" fill="#a7a16d"/><path d="m154.9 221.3c.1-.7.2-1.3.2-2 0-.1 0-.2 0-.3-.3-4.7-.6-9.7-2.7-14.1-1.9-4.1-5-7.2-8.5-9.9-1.3-1-2.6-1.9-3.9-2.7-2.5-1.6-5.2-3-8-4.1-2.1-.9-4.3-1.7-6.5-2.4-.9-.3-1.6-.5-2.4-.6-.4-.1-1 0-1.3.4-.4.5-.3 1.2.1 1.6.5.5 1.2.8 1.9 1.5 2.2 2 3.8 4.4 4.9 6.9 1.1 2.3 1.8 4.7 2.4 7.1.6 2.7 1.1 5.4 1.6 8 .6 3.2 1.4 6.4 2.7 9.6.5 1.2 1.1 2.4 1.8 3.6 1.1 1.8 2.5 3.6 4.2 5 1.1 1 1.9 1.2 3.2 1.5h.2c.2 0 .3 0 .5-.1 3-2.2 6.3-4.5 9.1-8 .3-.3.4-.6.5-1z" fill="#7f804f"/><path d="m184.2 228c.2-.6.3-1.2.5-1.9 0-.1.1-.2.1-.3.8-4.5 1.4-9.3.2-13.8-1.1-4.1-3.3-7.6-6.1-10.6-1-1.1-2.1-2.1-3.3-3.1-2.1-1.8-4.5-3.4-6.9-4.8-1.9-1.1-3.8-2.1-5.7-3-.7-.3-1.4-.6-2.1-.9-.4-.2-1 0-1.2.4-.3.7-.2 1.3.1 1.7.4.5 1 1 1.7 1.8 1.9 2.3 3.1 5.1 3.7 8 .6 2.6.8 5.2.8 7.9 0 2.9-.2 5.8-.3 8.7-.1 3.4 0 7 .7 10.4.3 1.4.7 2.7 1.2 4 .8 2.1 2 4 3.6 5.7 1.1 1.2 1.8 1.3 3.2 1.7h.2c.2 0 .4-.1.5-.2 3-3.2 6-6.6 8.5-10.7.3-.4.5-.7.6-1z" fill="#565e32"/><path d="m198.8 227.4c-1.2 5-2 10.2-.9 15.3.5 2.3 1.4 4.5 2.8 6.4 1 1.4 1.6 1.4 3.2 1.9h.3c.2 0 .4-.1.5-.3 3.4-4.5 6.4-9.3 8.8-14.4 2.3-4.7 4.4-9.8 4.2-15.1-.3-5.6-2.7-10.4-6.1-14.4s-8-7.3-12.4-10c-.4-.2-.9-.1-1 .3-.6 1.9.4 2.1 1.5 3.9 1.6 2.7 2.3 5.8 2.4 8.9.1 6-1.9 11.7-3.3 17.5z" fill="#2d3c15"/><path d="m29.5 230.6c2.9 1.6 7.1.8 10.3.6 4.8-.4 9.7-1.2 14.3-2.5 7.9-2.2 15.3-8.2 17.6-16.4 0-.1 0-.1 0-.2 0-.4-.2-.7-.6-.7-6.7-1-13.3 1-18.9 4.6-7.4 4.9-13.3 11.6-22.4 13.3-.6.2-.9 1-.3 1.3z" fill="#f9e5a7"/><path d="m82.3 237.3c6.9-2.9 13.4-8.2 15.6-15.6.1-.2.1-.4.2-.6.2-1.2.2-2.4 0-3.5 0-.1 0-.1-.1-.1 0 0 0 0-.1 0-1-.3-1.9-.4-3-.4-1.9.1-3.7.4-5.5.9-3.9 1.2-7.4 3.3-10.5 5.9-5.4 4.3-10 9.5-16.3 12.5-1.4.6-2.8 1.2-4.3 1.6-.5.1-.8.8-.5 1.1.7.6 1.5.9 2.3 1.1 1 .2 2.2.1 3.4.3.4.1.8.1 1.3.1 5.9-.2 12-1 17.5-3.3z" fill="#d0c38a"/><path d="m109.4 246.5c6-3.1 11.6-8 13.8-14.8.1-.4.2-.7.3-1.1.5-2.1.8-4.2.7-6.2 0-.1 0-.2-.1-.2 0 0-.1-.1-.1-.1-1.1-.5-1.9-.6-3.2-.6-2 .1-3.9.6-5.7 1.2-4 1.5-7.3 4.2-10.5 7.1-4.8 4.5-9.1 9.7-15 12.8-1.3.7-2.6 1.3-4.1 1.7-.5.1-.8.7-.7 1 .3.6.6 1 1 1.2.2.4.9.2 1.6.8.2.2.7.3 1.1.3 7.2.8 14.6.2 20.9-3.1z" fill="#a7a16d"/><path d="m135.9 256.3c5.3-3.1 9.9-7.8 12.2-13.8.2-.5.4-1 .5-1.5.9-2.9 1.5-5.9 1.8-8.9 0-.2 0-.3-.1-.4 0 0-.1-.1-.1-.1-1.2-.6-1.9-.9-3.3-.8-2.1.1-4.1.7-6 1.5-4.2 1.8-7.5 4.9-10.6 8.2-4.4 4.6-8.4 9.8-13.9 13-1.2.7-2.5 1.3-3.9 1.8-.5.2-.8.6-.9.9-.1.6-.3.9-.4 1.2-.5.4-.4.1-.2 1.1 0 .3.5.5.9.6 8 1.5 16.7 1.5 24-2.8z" fill="#7f804f"/><path d="m161.5 267c4.7-3 8.5-7.5 10.8-12.8.3-.6.5-1.3.8-1.9 1.5-3.7 2.6-7.5 3.3-11.4 0-.2 0-.4-.1-.5 0-.1-.1-.1-.2-.1-1.3-.8-1.8-1.2-3.4-1.1-2.2.1-4.4.7-6.4 1.5-4.5 2-7.9 5.5-11.1 9.1-4.1 4.6-7.8 9.8-13.2 13.1-1.2.7-2.4 1.4-3.7 1.9-.4.2-.9.5-1.1.7-.6.5-1.2.8-1.8 1-1.3.4-1.6-.1-2.1 1.3-.1.3.2.7.6.8 9.1 2.6 19.3 3.7 27.6-1.6z" fill="#565e32"/><path d="m154.3 278.5c9.6 4.2 21.3 6.9 30.7.8 4.3-2.8 7.2-7.4 9.6-11.8 2.8-5.1 5-10.4 6.7-15.9.1-.2 0-.4-.1-.6 0-.1-.1-.1-.2-.2-1.3-1.1-1.7-1.5-3.4-1.5-2.3 0-4.7.5-6.8 1.4-4.8 2-8.6 5.7-11.9 9.7-4 4.6-7.6 9.8-12.8 13.1-2.5 1.6-5.2 2.7-8.1 3-2.1.2-2.8-.5-4 1.1-.3.2-.1.7.3.9z" fill="#2d3c15"/><path d="m60.9 209.7c7.1.7 14.1 1.9 21.1 3.2 3.5.7 7 1.4 10.5 2.1s7 1.4 10.5 2.2c13.9 3 27.8 6.3 41.6 9.9 3.4.9 6.9 1.9 10.3 2.9l5.1 1.5 5.1 1.6 5.1 1.6 2.6.8 2.5.8 10.2 3.4c13.5 4.7 26.8 10 39.8 16.3l-2.3 4.5c-12.6-6.4-25.7-11.8-39-16.7l-10-3.6-2.5-.9-2.5-.8-5.1-1.7-5.1-1.7c-1.7-.5-3.4-1-5.1-1.6-3.4-1-6.8-2.1-10.2-3.1-13.6-4-27.4-7.7-41.2-11-3.5-.8-6.9-1.7-10.4-2.5s-6.9-1.6-10.4-2.3c-6.8-1.6-13.7-3.1-20.6-4.9z" fill="#434026"/><path d="m398.1 66.1c-10.8 7.9-23.6 7.4-36 10.4-7.3 1.7-14.2 5.2-19.4 10.4 1-1.7 2-3.5 2.9-5.2 4.1-2.9 7.2-6.8 9.6-11.2 3.1-5.9 4.9-12.6 5.7-19.2 1-8.6 1-17.2 1.9-25.5.9-8.4 2.7-16.6 7.3-24.3.4-.7-.4-1.7-1.2-1.4-2.5.9-3.5 2-5.4 4-2.7 2.9-5.2 6-7.6 9.2-4.9 6.4-9.2 13.3-13 20.4-3.7 6.9-7 14.1-7.7 22-.7 8.4 1.1 16.7 2.9 24.8 0 .2.1.3.2.4.6 1 1.2 1.9 1.8 2.9.2.3.8.6 1.1.4 1.3-.6 2.4-1.3 3.6-2-4.6 6.1-8.8 12.4-12.9 18.8.3-1.6.4-3.3.5-5 .1-1.9.1-3.7 0-5.5-.3-4.7-1-9.2-1.7-13.6-.6-3.8-1.3-7.5-1.7-11.3-.4-3.4-.6-6.9-.5-10.4.1-3.8.8-7.6 2-11.5.4-1.1.8-2.1 1.2-3.1.3-.7-.5-1.7-1.3-1.5s-1.5.6-2.1 1c-.9.8-1.7 1.7-2.7 3-2.3 3-4.4 6.1-6.4 9.2-2.6 4.2-5 8.5-7.1 13-1.1 2.4-2.2 4.8-3.1 7.2-2.7 6.8-4.8 13.8-4.5 21.1.4 7.9 3.3 15.3 6.1 22.5.1.2.2.3.3.4.7.9 1.3 1.7 2 2.6.3.3.8.5 1.2.4 3.4-.9 6.3-2.5 8.9-4.3-.5.7-.9 1.5-1.4 2.2-2.7 4.3-5.4 8.7-8 13.1-1.9 3.1-3.7 6.2-5.5 9.3 0-1.6 0-3.2-.2-4.8-.2-1.9-.5-3.8-1-5.6-1.1-4.6-2.8-8.9-4.5-13.1-1.4-3.5-3-7-4.3-10.6-1.2-3.3-2.2-6.6-2.8-10.1-.6-3.8-.8-7.8-.1-11.8.2-1.3.5-2.3.8-3.3.2-.7-.5-1.6-1.4-1.6-.7 0-1.4.5-1.9 1-.8.9-1.4 1.8-2.2 3.1-1.9 3-3.6 6.1-5.2 9.2-2.1 4.2-3.9 8.4-5.4 12.8-.8 2.3-1.5 4.7-2.1 7.1-1.7 6.6-2.6 13.3-1.3 20 1.5 7.3 5.4 13.7 9.2 19.8.1.1.2.3.3.3.7.7 1.4 1.5 2.2 2.2.3.3.8.5 1.2.5 4.5-.4 8.3-1.8 11.8-3.4-4.7 8.1-9.3 16.2-13.8 24.3-.2-1-.4-1.9-.6-2.8-.5-1.9-1.2-3.7-2-5.5-2-4.4-4.6-8.4-7.3-12.2-2.3-3.2-4.7-6.3-6.8-9.6-2-3-3.7-6.1-5.1-9.5-1.5-3.7-2.4-7.7-2.3-11.9 0-1.4.3-2.5.3-3.5 0-.7-.6-1.5-1.5-1.7-.7-.1-1.3.4-1.7.9-.6.9-1.1 1.9-1.7 3.1-1.4 2.9-2.7 6-3.9 9.1-1.5 4.1-2.7 8.3-3.6 12.5-.5 2.3-.8 4.5-1 6.8-.6 6.3-.4 12.6 1.9 18.6 2.6 6.6 7.4 11.8 12.1 16.8.1.1.2.2.3.3.8.6 1.5 1.2 2.3 1.7.4.3.9.4 1.3.5 4.5.3 8.5-.1 12.4-.8-1.5 2.9-3.1 5.9-4.6 8.8-1.2 2.3-2.4 4.5-3.5 6.8l-3.4 6.9-2.3 4.6c-.3-.8-.6-1.7-1-2.4-.9-1.9-1.9-3.6-3-5.2-2.9-4.2-6.5-7.7-10.2-11-3.1-2.8-6.3-5.4-9.3-8.2-2.7-2.6-5.3-5.4-7.4-8.6-2.3-3.5-4.1-7.4-4.6-11.7-.2-1.6-.1-2.6-.2-3.6-.1-.7-.7-1.4-1.7-1.7-.6-.2-1.3.3-1.5.8-.4 1-.8 2-1.2 3.1-1 2.9-1.8 5.9-2.5 8.9-.9 4-1.5 8-1.8 12-.1 2.2-.1 4.3 0 6.4.4 5.9 1.8 11.6 5.1 16.8 3.6 5.7 9.2 9.8 14.7 13.4.1.1.2.1.4.2.8.4 1.6.9 2.4 1.3.4.2.9.4 1.3.5 5 1 9.8 1.4 14.5 1.6l-5 10.8c-2.6 6-5.2 12-7.7 18.1-.4-.7-.8-1.4-1.3-2.1-4.2-6.2-10.4-10.5-16.9-14.2-7.4-4.2-15.3-7.8-21.3-13.8-3.1-3.1-5.8-6.9-7-11.2-.8-2.9 0-4.1-2.7-5.4-.6-.3-1.2.2-1.4.8-1.6 7.3-2.6 15.3-1.8 22.9s3.5 14.8 9.1 20.6c5.3 5.5 12.7 8.3 19.9 10.5 6.1 1.9 12.3 3.3 18.5 4.3-3.4 9-6.7 18.1-9.5 27.3l6.9 2.1c3.4-11.6 7.4-23.1 11.7-34.5-.1.6-.1 1.2-.2 2v.4c.1.3.2.5.5.7 7.4 3.6 15.2 6.6 23.2 8.6 7.1 1.8 14.6 3.3 21.8 1.6 15.7-3.8 24.3-18.7 29.4-32.8.2-.6-.1-1.3-.8-1.4-2.9-.3-2.9 1.1-5.1 3.1-3.1 2.8-7.1 4.5-11.1 5.6-8.6 2.2-17.5.9-26.3.5-7.4-.3-15-.1-21.8 3-3.1 1.4-5.9 3.2-8.2 5.7-.3.4-.6.7-.8 1 2.7-6.9 5.4-13.8 8.3-20.7l4.6-10.6c4.7 3 9.8 5.6 15.1 7.7.9.4 1.9.7 2.8 1.1h.1c7.8 2.7 16.2 3.3 24 1.3 13.7-3.5 22.6-15.2 28.6-27.1.3-.6.2-1.3-.2-1.5-2-.9-1.7 0-3.4.9-.8.4-1.7.7-2.8.9-.5.1-1.2.2-1.8.5-1.8.9-3.7 1.6-5.7 2.1-8.7 2.3-17.8 1.2-26.7.8-6.9-.2-13.9-.1-20.4 2.7-2.4 1-4.6 2.4-6.6 4l.1-.2 1.6-3.5 3.2-6.9 3.2-6.9c1.1-2.3 2.2-4.6 3.4-6.9.8-1.5 1.5-3.1 2.3-4.6 3.3 2.5 6.8 4.7 10.6 6.6.7.3 1.4.7 2.1 1h.1c8.5 3.6 17.9 3.3 26.4.8 11.6-3.4 20.2-12.5 26.6-22.3.3-.5.5-1.2.3-1.5-.9-1.3-.4-1.1-1.4-.9-.4-.1-.9-.3-1.6-.7-.3-.2-1.2-.3-1.8.1-1.9 1-3.8 1.7-5.7 2.3-8.9 2.6-18.2 1.7-27.3 1.7-6.5 0-13 .4-19 3-2.1.9-4.2 2.1-6 3.6.4-.9.9-1.7 1.3-2.6 4.4-8.6 8.8-17.1 13.4-25.6 2 1.8 4.2 3.5 6.7 4.8.5.3 1 .5 1.4.8 9.3 4.3 19.8 3.3 29 .1 9.7-3.4 17.5-10.5 23.8-18.4.4-.5.7-1.1.7-1.5.1-1.4.9-1.9.8-2.5.1-.6 0-1.3-.3-2.2-.2-.4-1.1-.7-1.7-.3-1.9 1.1-3.8 1.9-5.8 2.6-9.1 3-18.7 2.4-28.1 3-6.1.4-12.2 1.2-17.7 3.9-1.9.9-3.7 2.1-5.4 3.5 4-7.4 8.1-14.8 12.3-22.1 1.1-1.8 2.1-3.7 3.2-5.5.8.9 1.8 1.8 3 2.6.3.2.5.3.8.5 10 5 21.9 3.5 31.7-.9 7.7-3.4 14.6-9 20.4-15.2.5-.5.9-1 1.2-1.4.9-1.5 2.3-2.6 3.1-3.9.6-1.1 1.1-2.2 1.1-3.5 0-.7-1-1-1.7-.6-1.9 1.2-3.9 2.2-5.9 3-9.2 3.6-19.2 3.3-29.1 4.7-5.8.8-11.5 2.3-16.5 5.2-1.6.9-3.1 2-4.5 3.2.3-.5.5-1 .8-1.4 2.6-4.4 5.2-8.8 7.8-13.2 2.5-4.2 5-8.4 7.5-12.6 10.8 5.6 24.3 3.8 34.5-2.3 5.9-3.6 11.6-7.8 16.7-12.5 3.4-3.1 8.3-6.8 9.5-11.3.1-1.6-1-2.1-1.7-1.6z" opacity=".1"/><path d="m365 11.5c-4.4 7.4-6.1 15.3-7 23.3-.8 8-.8 16.3-1.8 24.5-.7 6.3-2.4 12.8-5.4 18.4s-7.4 10.4-13.5 13.2c-.4.2-.9-.1-1.1-.4-.6-.9-1.1-1.9-1.7-2.8-.1-.1-.2-.2-.2-.4-1.8-7.8-3.5-15.8-2.8-23.8.7-7.5 3.8-14.5 7.4-21.1 3.6-6.8 7.8-13.4 12.5-19.6 2.3-3.1 4.8-6 7.3-8.8 1.8-2 2.8-3 5.2-3.8.7-.3 1.5.6 1.1 1.3z" fill="#f9e5a7"/><path d="m310 124.4c-.6-.8-1.3-1.6-1.9-2.5-.1-.1-.2-.2-.3-.4-2.7-6.9-5.5-14-5.8-21.6-.3-7.1 1.7-13.8 4.3-20.3.9-2.3 1.9-4.7 3-6.9 2-4.3 4.3-8.4 6.9-12.5 1.9-3 4-6 6.2-8.9.9-1.2 1.6-2.1 2.6-2.9.5-.4 1.2-.9 2-1s1.5.7 1.2 1.5c-.4.9-.8 1.9-1.1 3-1.2 3.7-1.8 7.4-1.9 11-.1 3.4.1 6.7.5 10 .4 3.6 1 7.2 1.6 10.8.7 4.3 1.4 8.6 1.6 13.1.1 1.7.1 3.5 0 5.3-.1 2.8-.6 5.7-1.3 8.5-.4 1.6-1 2.9-1.8 4.3-.1.1-.1.2-.2.3-.1.2-.3.3-.4.5-3.7 3.9-8.1 7.4-14.1 9.1-.3.2-.8 0-1.1-.4z" fill="#d0c38a"/><path d="m286.3 158.3c-.7-.7-1.4-1.4-2.1-2.1-.1-.1-.2-.2-.3-.3-3.6-5.9-7.4-12-8.8-19-1.3-6.5-.4-12.9 1.2-19.2.6-2.3 1.3-4.5 2-6.8 1.4-4.2 3.2-8.3 5.2-12.3 1.5-3 3.2-6 5-8.8.7-1.2 1.3-2.1 2.1-2.9.4-.5 1.1-.9 1.8-.9.8 0 1.5.8 1.3 1.5-.2.9-.5 1.9-.7 3.2-.6 3.9-.5 7.7.1 11.3.6 3.3 1.5 6.5 2.7 9.7 1.2 3.4 2.7 6.8 4.1 10.2 1.7 4 3.3 8.2 4.3 12.6.4 1.7.7 3.5.9 5.3.3 2.9.3 5.8-.2 8.8-.3 1.8-.8 2.9-1.7 4.5-.1.1-.1.2-.2.3-.1.2-.3.3-.5.4-4.4 2.3-9.1 4.6-15.1 5.2-.3-.2-.8-.4-1.1-.7z" fill="#a7a16d"/><path d="m265.8 191.4c-.8-.5-1.5-1.1-2.2-1.7-.1-.1-.2-.2-.3-.3-4.5-4.8-9.1-9.8-11.6-16.1-2.3-5.8-2.5-11.8-1.9-17.9.2-2.2.6-4.4 1-6.5.8-4 2-8.1 3.4-12 1.1-3 2.3-5.9 3.7-8.7.6-1.1 1-2.1 1.6-3 .3-.5 1-1 1.6-.9.9.1 1.5.9 1.5 1.6 0 .9-.3 2-.3 3.3 0 4 .8 7.9 2.2 11.4 1.3 3.3 3 6.2 4.9 9.1 2.1 3.1 4.4 6.1 6.5 9.2 2.6 3.7 5.1 7.5 7 11.8.8 1.7 1.4 3.4 1.9 5.2.8 2.9 1.2 5.9 1.1 8.9-.1 2-.6 3-1.6 4.6-.1.1-.1.2-.2.3-.2.2-.3.3-.6.3-5.1 1-10.5 2-16.7 1.6-.2.3-.7.1-1-.2z" fill="#7f804f"/><path d="m244.7 227.1c-.8-.4-1.6-.8-2.3-1.2-.1-.1-.2-.1-.4-.2-5.3-3.5-10.6-7.3-14.1-12.8-3.1-5-4.5-10.5-4.9-16.1-.1-2-.1-4.1 0-6.2.2-3.8.8-7.7 1.7-11.5.7-2.9 1.5-5.7 2.4-8.5.4-1.1.7-2 1.1-3 .2-.6.9-1 1.5-.8 1 .3 1.5 1 1.6 1.7.2.9 0 2 .2 3.4.6 4.1 2.2 7.9 4.5 11.3 2 3.1 4.5 5.7 7.1 8.2 2.9 2.7 6 5.3 8.9 7.9 3.5 3.2 7 6.6 9.7 10.6 1.1 1.6 2.1 3.2 2.9 5 1.3 2.8 2.1 5.8 2.4 9 .1 2.2-.3 3-1.4 4.8-.1.1-.1.2-.2.3-.2.2-.4.3-.7.3-6 0-12.3-.3-18.7-1.6-.4-.2-.9-.4-1.3-.6z" fill="#565e32"/><path d="m230.4 241.2c6.2 3.5 12.2 7.6 16.2 13.6 1.8 2.7 3.1 5.7 3.7 8.8.4 2.3-.1 3-1.2 5-.1.1-.1.2-.2.3-.2.2-.4.3-.8.3-7.7-.8-15.3-2.4-22.8-4.7-6.9-2.2-14-4.8-19.1-10.1-5.4-5.6-7.9-12.5-8.7-19.7s.1-14.9 1.7-21.9c.1-.6.7-1 1.3-.7 2.5 1.2 1.8 2.4 2.6 5.2 1.2 4.1 3.7 7.8 6.7 10.8 5.9 5.7 13.5 9.1 20.6 13.1z" fill="#2d3c15"/><path d="m393.5 74.4c-1.1 4.4-5.8 7.9-9.1 10.9-4.9 4.5-10.3 8.6-16 12-9.7 5.9-22.7 7.5-33.1 2.2-.1 0-.1-.1-.2-.1-.4-.3-.5-.9-.2-1.3 5.3-7.6 13.6-12.4 22.5-14.6 11.9-2.8 24.2-2.4 34.6-10 .6-.5 1.7 0 1.5.9z" fill="#f9e5a7"/><path d="m350.4 133.7c-9.4 4.2-20.8 5.7-30.4.9-.3-.1-.5-.3-.8-.4-1.5-.9-2.6-2.1-3.5-3.3 0-.1-.1-.1 0-.2v-.1c.6-1.4 1.4-2.3 2.5-3.4 1.8-1.8 3.9-3.4 6-4.7 4.8-2.8 10.3-4.2 15.8-5 9.5-1.3 19-1.1 27.9-4.5 1.9-.8 3.8-1.7 5.7-2.9.6-.4 1.6 0 1.6.6 0 1.2-.5 2.3-1.1 3.3-.7 1.2-2 2.3-2.9 3.7-.3.4-.7.9-1.1 1.4-5.6 5.9-12.2 11.3-19.7 14.6z" fill="#d0c38a"/><path d="m334 169.5c-8.8 3.1-19 4.1-27.8-.1-.5-.2-.9-.5-1.4-.7-2.6-1.4-4.9-3.2-6.9-5.1-.1-.1-.1-.2-.1-.3s0-.1 0-.2c.6-1.6 1.2-2.5 2.4-3.7 2-1.9 4.2-3.4 6.6-4.6 5.3-2.6 11.2-3.4 17-3.8 9.1-.6 18.3 0 27-2.9 1.9-.6 3.8-1.4 5.6-2.5.6-.3 1.5-.1 1.7.3.3.8.4 1.5.3 2.1.1.6-.7 1.1-.8 2.4 0 .4-.3.9-.7 1.4-6.1 7.6-13.7 14.5-22.9 17.7z" fill="#a7a16d"/><path d="m318.8 205.4c-8.2 2.4-17.2 2.7-25.4-.8-.7-.3-1.4-.6-2-.9-3.8-1.8-7.4-4.1-10.6-6.6-.2-.1-.2-.3-.2-.5 0-.1 0-.1 0-.2.5-1.8.9-2.7 2.3-4.1 2.1-2 4.5-3.5 7.1-4.7 5.8-2.5 12.1-2.9 18.3-2.9 8.8 0 17.7.8 26.2-1.6 1.9-.5 3.7-1.2 5.5-2.2.6-.3 1.4-.2 1.7-.1.7.4 1.2.6 1.6.7.9-.1.5-.3 1.3.9.2.3.1.9-.2 1.4-6.2 9.6-14.4 18.3-25.6 21.6z" fill="#7f804f"/><path d="m305.3 241.2c-7.5 1.9-15.5 1.4-23-1.2s0 0-.1 0c-.9-.3-1.8-.7-2.7-1-5.1-2-10-4.5-14.5-7.4-.2-.1-.3-.4-.4-.6 0-.1 0-.2 0-.3.4-2 .5-2.9 2.1-4.4 2.2-2.1 4.8-3.8 7.6-4.9 6.2-2.6 13-2.8 19.6-2.5 8.5.3 17.2 1.4 25.6-.8 1.8-.5 3.7-1.1 5.4-2 .6-.3 1.3-.4 1.7-.5 1.1-.1 2-.4 2.7-.8 1.6-.9 1.4-1.8 3.3-.9.4.2.5.9.2 1.4-5.8 11.3-14.4 22.6-27.5 25.9z" fill="#565e32"/><path d="m323.7 244.8c-4.9 13.5-13.1 27.9-28.2 31.5-6.9 1.7-14.2.2-21-1.5-7.7-2-15.2-4.8-22.3-8.3-.3-.2-.5-.4-.5-.7 0-.1-.1-.2 0-.4.1-2.3.1-3.1 1.7-4.8 2.2-2.4 4.9-4.2 7.9-5.5 6.6-2.9 13.9-3.2 20.9-2.8 8.4.4 16.9 1.6 25.2-.5 3.9-1 7.7-2.7 10.7-5.3 2.1-1.9 2.1-3.3 4.9-3 .6.1.9.8.7 1.3z" fill="#2d3c15"/><path d="m342.9 86.1c-6 7.8-11.5 16-16.7 24.3-2.7 4.1-5.2 8.3-7.8 12.5s-5.1 8.4-7.7 12.6c-10.1 16.8-20 33.8-29.3 51.1-2.3 4.3-4.6 8.7-6.9 13.1-1.1 2.2-2.3 4.3-3.4 6.5l-3.3 6.6-3.3 6.6-1.6 3.3-1.6 3.3-6.2 13.4c-8 18-15.3 36.4-21.2 55.3l6.7 2c5.5-18.6 12.4-36.9 20-54.9l5.9-13.4 1.5-3.4 1.6-3.3 3.1-6.6 3.1-6.6c1-2.2 2.2-4.4 3.2-6.6 2.2-4.4 4.3-8.8 6.5-13.1 8.8-17.5 18.2-34.7 27.8-51.7 2.4-4.3 4.8-8.5 7.3-12.7s4.9-8.5 7.5-12.7c5-8.6 10.1-17 14.8-25.6z" fill="#434026"/><path d="m283.7 161.4c-6.5-7.9-11.8-23.3-10.1-34.6s11.2-12.9 7.4-13.5c-11-1.7-17.7 7.1-21.6 16.1-7-19.2-19.4-30.1-22.3-30.5-2.5-.4-4.9 5.3-6 13-3.9-.3-5.3.9-5.6 2.9-.3 2.3 6.3 4 3.9 19.8-3.6 23.3-38.7 41.7-44.5 80 0 0-6.8 44.3 33 50.4 13.1 2 21.9.9 27.9-2.5l10.4 1.2c-1.2 1.6-.7 2.5 3.7 3.2 12.8 2 46.2 9.4 52.3-30.4s-22-67.2-28.5-75.1z" opacity=".1"/><path d="m267 264.4-37-4.2.2-68.5s34.6-4.3 35.9-3.4 23.3 30.8 23.2 31.6c-.1.7-22.3 44.5-22.3 44.5z" fill="#774d30"/><path d="m231.3 121.8c.7-9.5 3.4-17.2 6.2-16.7 2.9.4 15.9 12 22.4 32.2s-14.7 19.1-14.7 19.1z" fill="#774d30"/><path d="m254 151.8s4.8-36.1 25.7-32.9c3.6.6-5.5 2.1-7.1 12.9-1.7 10.8 3.5 25.6 9.7 33.2s33.2 33.8 27.3 72-37.9 31.1-50.2 29.2c-12.2-1.9 6.8-5.6 9.5-23.6 2.7-18.1-18-61-14.9-90.8z" fill="#96623c"/><path d="m187.4 216.1c5.6-36.7 39.3-54.4 42.7-76.8 2.3-15.1-4.1-16.8-3.7-19 .3-2.2 2-3.4 7-2.6s18.3 10.2 21.5 28.4c3.1 18.2 9.3 50.1 6 76.1s-3.7 48.1-41.9 42.3-31.6-48.4-31.6-48.4z" fill="#bc7d4a"/><path d="m238.8 216.7c-1.2-.5-2.6-.7-3.8-.2s-1.8 1.4-2.3 2.6-1 2.5-1.2 3.7c-.2 1.3-.1 2.7.6 3.8.6 1.2 1.7 2 3 2.5 1.8.7 3.7.6 5.5 0 1.1-.4 2.2-.9 3.1-1.8.8-.8 1.4-2 1.4-3.2s-.6-2.4-1.3-3.4c-1-1.4-2.9-3.1-5-4z" fill="#96623c"/><path d="m239.2 215.3c-9.4-3.3-13 13.3-3.6 15.5 3.9.9 9.3-.8 10.7-4.9 1.5-4.6-3.1-8.8-6.8-10.5-1.7-.8-3.3 1.8-1.5 2.6 1.9.9 4 2.3 5 4.3 1.9 3.6-2.1 5.7-5.2 5.8-3.5 0-5.4-2.5-4.7-5.8.6-2.9 1.9-5.2 5.2-4 1.9.5 2.7-2.4.9-3z" fill="#97623c"/><path d="m220.1 212.2c-.6 1.2-.8 2.8-.7 3.8.2 2.9 2.4 5.8 5.4 6.1.5.1 1 0 1.4-.3s.6-.8.8-1.3c.6-2 .9-4.2 1-6.3 0-.5 0-1-.2-1.4-.6-1.4-3-2-4.3-2.2-.5-.1-1-.1-1.5 0-1 .2-1.6.9-1.9 1.6z" fill="#96623c"/><path d="m218.6 211.8c-1.4 3.3-.9 7.1 1.7 9.7 2.3 2.3 6.5 3.3 7.9-.4 1.1-3 2.3-8.5-.7-10.6-2.8-1.9-6.9-2.3-8.8.9-.9 1.7 1.6 3.2 2.6 1.5.7-1.3 3.4-1.1 4.4 0 1.1 1.2.5 5.5-.2 6.8-1.2 2.1-3.5-.6-4.2-1.9-.8-1.7-.6-3.5.1-5.2.8-1.7-2.1-2.5-2.8-.8z" fill="#97623c"/><path d="m235.7 236.5c-1.2-.2-2.3-.2-3.1 0-4.2.6-12.3 4.4-10 9.9.3.6.9 1 1.6 1.2 2.4.8 5.1.2 7.4-.8 2.8-1.3 5.3-3.3 7.1-5.8 2.1-2.9-.4-4.1-3-4.5z" fill="#96623c"/><path d="m235.7 235c-4.4-.4-9.2 1.2-12.4 4.2-2.5 2.3-4.1 7.4-.3 9.4 5 2.6 11.7-1.2 15.1-4.7 1.4-1.4 3.4-3.5 2.8-5.7-.6-2.1-2.9-2.8-4.7-3.1-1.9-.3-2.7 2.6-.8 2.9 4.6.8-.8 5.3-2.6 6.5-1.8 1.1-9.8 4.1-8.8-.6.9-4.5 8.2-6.2 11.9-5.8 1.7.1 1.7-2.9-.2-3.1z" fill="#97623c"/><path d="m288.2 209.4c-.2 1-.2 2-.3 2.8 0 1.5.3 3.3 1.6 4.2.9.6 2.2.8 3.2.3.9-.5 1.4-1.7 1.8-2.6.3-.6.8-1.3 1-1.9 1-2.4-.8-4.5-2.9-5.5-.7-.3-1.5-.6-2.3-.4-1.1.2-1.8 1.6-2.1 3.1z" fill="#774d30"/><path d="m286.8 209c-.5 3.1-.7 7.5 2.7 9.1 3.8 1.8 5.9-1.9 7.3-4.8 1.5-3.3-.2-6.4-3.3-7.9-3.4-1.8-5.9.2-6.7 3.6-.4 1.9 2.5 2.7 2.9.8.2-.8.4-2 1.4-2.2.6-.1 1.5.6 1.9.9 1.8 1.3 1.5 2.7.5 4.5-.6 1.1-1.6 3.7-3.3 2-1.2-1.2-.8-3.7-.6-5.2.4-1.9-2.5-2.7-2.8-.8z" fill="#774e30"/><path d="m294.8 222.1c.3.5.7 1 1 1.6 1.5 2.9 2.7 6 3.6 9.1.2.8.5 1.7 1.1 2.3.2.2.5.4.8.3.9-.1 1-1.6 1.1-2.3.2-1.1.2-2.3 0-3.4-.3-2.2-1.2-4.4-2.4-6.3-1-1.7-2.7-3.3-4.8-3.6-.5-.1-1 .1-1.1.7-.1.3 0 .5.1.8.3.2.4.5.6.8z" fill="#774d30"/><path d="m293.5 222.8c1.6 2.6 2.8 5.4 3.8 8.3.6 1.8.9 4.4 2.7 5.4 3.5 2.1 4.3-3.5 4.2-5.7-.1-4-2.1-9-5.5-11.3-3.4-2.2-7.2-.7-5.2 3.3.8 1.7 3.4.2 2.6-1.5 0 .1 1.8 1.6 2.4 2.3.7.9 1.2 1.9 1.6 3 .6 1.4 1 2.8 1 4.3 0 .6-.5 2.7-.3 3-.1-.1-.5-3.1-.7-3.5-.3-1-.7-2.1-1.1-3.1-.8-2-1.8-4-2.9-5.9-1.1-1.7-3.7-.2-2.6 1.4z" fill="#774e30"/><path d="m289.5 232.6c0 .2.1.4.1.6.2 1.2.3 2.4.3 3.6 0 1.5-.2 3-.7 4.4s-1.3 2.7-1.6 4.2c-.3 1.7 1 3.5 2.8 2.3.6-.4 1-1 1.4-1.6.9-1.4 1.9-2.8 2.4-4.4 1.2-3.5.5-7.9-2.2-10.5-.9-.8-2-1.4-3.2-1.4.4 1.1.5 1.9.7 2.8z" fill="#774d30"/><path d="m288.1 233c.6 3.4.4 6.4-.9 9.6-.6 1.6-1.3 3.2-.7 4.9 1.3 3.4 4.7 2 6.4-.1 2.7-3.4 4.2-7.6 3.1-12-.9-3.6-3.3-6.5-7.1-7-1-.1-1.7 1.1-1.4 1.9.2 1 .4 1.8.6 2.7.4 1.9 3.3 1.1 2.9-.8-.1-.9-.3-1.8-.6-2.6-.5.6-1 1.3-1.4 1.9 3.3.4 4.5 4.4 4.5 7.2 0 1.8-.6 3.2-1.4 4.7-.3.5-2 3.7-2.5 1.4 0 0 1.2-2.7 1.3-3.1.3-.8.4-1.7.6-2.6.3-2.3.1-4.6-.3-6.9-.6-1.9-3.5-1.1-3.1.8z" fill="#774e30"/></svg>