<svg enable-background="new 0 0 518.1 420.2" viewBox="0 0 518.1 420.2" xmlns="http://www.w3.org/2000/svg"><path d="m403.6 199.5c-15.4-30.1-24.5-63.1-26.7-96.8.2-.4.4-.8.6-1.2.6-1.8.5-3.6.4-5.5-.1-3.4.2-6.8.6-10.2 1.2-9.7 3.6-19.2 3.5-28.9 0-.5 0-1 0-1.5-.1-1.4-.2-2.9-.5-4.4-1-4.9-3.4-9.5-7.9-11.1-.3-1.4.3-2.8.5-4.2s-.4-3.2-1.8-3.4c-1-.1-1.9.6-2.6 1.2-3.4 2.6-7.9 3.8-12.2 3.4-.3 2.5 1.3 5.1 3.7 5.9l1.5 2.9c-.4 1.2-.7 2.4-1.1 3.6-.5 1.8-1 3.6-1.4 5.4-.7 3-1.1 5.9-1.1 9 0 2.7.3 5.4.9 8 .4 1.7.8 3.5 1.3 5.2.5 1.9 1.2 3.9 1.8 5.8.8 2.5 1.5 4.9 2.3 7.4 1 3 1.9 6 2.8 9 .4 1.2.9 2.6 1.7 3.7v.1c.1.2.3.4.4.5 2.4 34.9 11.9 69 27.9 100.1 1.7 3.7 7.3-.1 5.4-4z" opacity=".1"/><path d="m372.6 105.8c1.9 35.4 11.4 70 27.6 101.6 2 3.8 7.5.1 5.6-3.7-15.6-30.5-24.6-64.1-26.4-98.3-.3-4.3-7-3.9-6.8.4z" fill="#f9e5a7"/><path d="m384.4 62.2v1.5c.2 9.5-2.2 18.9-3.4 28.4-.4 3.3-.7 6.7-.6 10 0 1.8.1 3.7-.4 5.4-.6 1.7-2 3.3-3.8 3.4-1.6.1-2.8-.9-3.8-2.3 0 0 0 0 0-.1-.7-1.1-1.3-2.4-1.6-3.6-.9-3-1.9-5.9-2.8-8.8-.8-2.4-1.5-4.8-2.3-7.2-.6-1.9-1.2-3.8-1.7-5.7-.5-1.7-.9-3.4-1.3-5.1-.5-2.6-.9-5.2-.9-7.9 0-3 .4-5.9 1.1-8.8.4-1.8.9-3.5 1.4-5.3.3-1.2.7-2.3 1-3.5l-1.5-2.8c-2.3-.8-3.9-3.4-3.6-5.8 4.2.5 8.6-.7 12-3.3.8-.6 1.6-1.3 2.6-1.2 1.4.2 2 1.9 1.8 3.3s-.8 2.8-.5 4.2c4.4 1.6 6.8 6.1 7.8 10.9.3 1.5.5 2.9.5 4.3z" fill="#795583"/><path d="m381.1 92.1c-.4 3.3-.7 6.7-.6 10 0 1.8.1 3.7-.4 5.4-.6 1.7-2 3.3-3.8 3.4-1.6.1-2.8-.9-3.8-2.3.1 0 .2 0 .3-.1-.1 0-.2 0-.3 0-.7-1.1-1.3-2.4-1.6-3.6-.9-3-1.9-5.9-2.8-8.8 2.5-.7 5-1.4 7.4-2.1 1.7-.6 3.7-1.2 5.6-1.9z" fill="#e87a64"/><path d="m371.9 60.3c-3 .6-6 1-9 1.2.4-1.8.9-3.5 1.4-5.3 2.4-.2 4.9-.6 7.3-1 3.3-.7 3.5 4.4.3 5.1z" fill="#e87a64"/><path d="m384.4 62.2v1.5c-2.9 1.9-6 3.4-9.2 4.6-3.1 1.2-4.8-3.7-1.7-4.9 2.9-1.1 5.6-2.5 8.1-4.1.7-.4 1.4-.9 2.1-1.4.5 1.5.7 2.9.7 4.3z" fill="#e87a64"/><path d="m381.7 77.8c-5.6 3-11.5 4.8-17.7 5.4-.5-1.7-.9-3.4-1.3-5.1 5.7-.4 11.1-1.9 16.1-4.6 3-1.5 5.8 2.8 2.9 4.3z" fill="#e87a64"/><path d="m415.6 359.6c-11.7-4.1-23.5-7.9-35.4-11.3 3.9-7.2 7.2-14.6 9.9-22.3 3.2-9.1 6.1-18.8 4.5-28.5-1.6-10.2-7-18.5-14.1-25.2s-16.1-11.8-24.8-15.8c-.7-.3-1.7 0-1.8.8-.7 3.7 1.2 3.8 3.5 6.9 3.5 4.6 5.3 10.2 6.1 15.9 1.6 10.9-.9 21.8-2.3 32.6-1.2 9.4-1.6 19.1 1.5 28.3.3 1 .7 1.9 1.1 2.9-8.1-2.1-16.3-4.2-24.5-6l-15-3.2c3.5-5 6.8-10.2 9.6-16.1.2-.5.5-1.1.6-1.7.2-1.2.4-2.3.6-3.5 0-.2.1-.4.1-.5.6-8.5.7-17.3-2.4-25.4-2.8-7.4-7.6-13.2-13.4-18.2-2.1-1.8-4.3-3.4-6.6-5-4.3-2.9-8.9-5.3-13.7-7.5-3.6-1.6-7.3-3-11.1-4.3-1.4-.5-2.7-.9-4.1-1.2-.8-.2-1.8.1-2 .9-.4 1.3-.2 2.4.5 3.1.8.9 2.1 1.6 3.5 3 3.9 3.9 6.7 8.8 8.5 13.8 1.7 4.6 2.5 9.4 3.1 14.2.6 5.3.8 10.6 1.3 15.9.5 6.3 1.4 12.8 3.5 18.9.8 2.4 1.8 4.8 3.1 7.1.5 1 1.1 2 1.7 2.9l-6.4-1.2-9.7-1.8c-3.2-.6-6.5-1.1-9.7-1.6-4.2-.7-8.4-1.4-12.6-2.1 3.6-3.5 7.3-7.3 10.4-12.1.3-.4.5-1.1.5-1.7 0-1.2 0-2.5 0-3.7 0-.2 0-.4 0-.6-1.5-8.6-3.1-17.6-7.9-25.3-4.4-7.1-10.7-12.2-17.6-16.3-2.5-1.5-5.1-2.9-7.8-4.2-5-2.4-10.2-4.3-15.6-6-4.1-1.2-8.2-2.3-12.3-3.1-1.6-.3-3-.6-4.5-.7-.8-.1-1.9.3-2.3 1-.6 1.1-.2 2.3.6 2.9 1 .7 2.3 1.3 3.8 2.4 4.3 3.2 7.8 7.2 10.4 11.6 2.4 4 4.2 8.2 5.8 12.5 1.7 4.7 3 9.6 4.6 14.4 1.8 5.7 3.9 11.5 6.9 17 1.2 2.1 2.5 4.2 4.1 6.2.7 1 1.6 1.9 2.4 2.8-11.8-1.7-23.7-3.2-35.5-4.6 4.3-2.3 8.7-5.2 12.6-9.4.3-.4.5-1.1.5-1.6-.2-1.3-.4-2.6-.6-3.9 0-.2 0-.4-.1-.6-3.4-8.6-6.9-17.5-13.3-24.7-5.9-6.6-13.5-10.8-21.5-14.1-2.9-1.2-5.9-2.3-8.9-3.3-5.6-1.8-11.4-3.3-17.3-4.3-4.5-.8-8.9-1.4-13.4-1.8-1.9-.2-3.3-.3-4.8-.1-.9.1-1.9.4-2.5 1.2-.7.9-.3 2.3.6 2.7 1.2.5 2.5 1 4 1.8 4.7 2.5 8.6 5.6 12 9.2 3.1 3.3 5.8 6.9 8.2 10.6 2.6 4.1 5 8.3 7.6 12.5 3 5 6.1 10.1 10 14.7 1.5 1.8 3.1 3.6 4.9 5.3 1.5 1.4 3.1 2.7 4.8 3.9-4.6-.5-9.2-1-13.8-1.5-6.5-.7-13.1-1.3-19.6-1.9-1.1-.1-2.2-.2-3.3-.3 3.9-1.2 7.7-3 11.3-5.8.4-.3.6-1 .4-1.5-.3-1.3-.7-2.7-1.1-4 0-.2-.1-.4-.2-.6-5.2-8.4-10.5-17.1-18.4-23.6-7.3-6-16.2-9.2-25.2-11.7-3.2-.9-6.5-1.7-9.8-2.3-6.2-1.3-12.5-2.2-18.8-2.7-4.8-.4-9.6-.6-14.4-.5-2 0-3.6.1-5.1.4-.9.2-1.9.6-2.7 1.3s-.4 2.2.6 2.5c1.3.3 2.7.7 4.1 1.2 4.9 1.7 9.3 4 13.3 6.8 3.7 2.6 7.1 5.5 10.3 8.5 3.5 3.3 6.8 6.9 10.2 10.4 4 4.2 8.1 8.4 12.7 12.3 1.8 1.5 3.7 3 5.7 4.3 1.7 1.2 3.6 2.3 5.5 3.3-9.6-.7-19.3-1.2-29-1.2 1.5-.6 3.1-1.3 4.6-2.1.5-.3.6-1 .5-1.5-.5-1.4-1.1-2.7-1.6-4.1 0-.2-.1-.4-.3-.6-6.9-8.1-14-16.4-23.2-22.1-8.6-5.3-18.6-7.6-28.5-9.1-10.2-1.6-20.6-2.4-31-2.4-5.1 0-10.2.3-15.3.7-3.5.3-5.4.6-8.3 2.5-.9.6-.6 2.2.5 2.3 11.5 1.2 21.3 5.7 30.5 11.3 9.3 5.6 18.1 12.2 27.7 17.8 7.3 4.3 15.6 7.7 24.1 9 6.3 1 12.7.7 18.9-1.2 2.5.3 5.1.7 7.6 1-9.5 1.4-18.3 5.8-25.7 11.9-12.6 10.5-22 24-38.4 28.9-1 .3-1.3 1.9-.3 2.3 5.6 2.3 13.2.1 19-1 8.8-1.6 17.5-4.1 25.7-7.5 14.1-5.7 26.3-18.2 28.9-33.6 6.2.7 12.5 1.4 18.7 2 6.5.7 13 1.4 19.5 2.2.7.1 1.4.2 2.1.2-2.3.5-4.6 1.2-6.8 2.2-6.9 2.9-12.8 7.6-18.1 12.9-9 9-16.5 19.5-27.3 26.2-2.4 1.5-4.9 2.7-7.6 3.8-.9.3-1.3 1.7-.6 2.2 1.3.9 2.9 1.3 4.4 1.5 1.8.2 4.1-.3 6.3-.2.7.1 1.5 0 2.4-.1 10.8-1.2 21.9-3.9 31.4-9.2 12.1-6.7 22.8-17.7 25.4-31.8.1-.4.1-.8.1-1.2.2-1.8 0-3.5-.3-5 2.7.3 5.4.7 8.1 1 10.8 1.4 21.5 2.9 32.2 4.5-2.7.7-5.3 1.6-7.8 2.9-7.1 3.6-12.6 9.2-17.7 15.2-7.9 9.3-14.7 19.6-24.8 26.6-2.2 1.5-4.6 2.9-7.1 4-.9.4-1.4 1.5-1 2 .6 1 1.3 1.6 2 2 .5.6 1.7.1 3.1 1.1.4.3 1.3.4 2.1.4 12.9-.3 26.4-2.9 37.3-10.2 10.4-7 19.6-17 22.3-29.8.1-.7.2-1.4.3-2.1.5-3.6.5-7.2.2-10.6 12.2 1.9 24.5 3.9 36.6 6 1.2.2 2.4.4 3.7.7-2.9.8-5.7 1.9-8.3 3.4-7.4 4.1-12.8 10.6-17.8 17.2-7.1 9.3-13.3 19.6-22.8 26.7-2.1 1.6-4.3 3-6.8 4.1-.8.4-1.4 1.3-1.5 1.8-.1 1.1-.3 1.8-.5 2.3-.9.9-.7.2-.2 2.1.1.5.9.8 1.7.9 15 1 31-.8 43.5-10.1 9.1-6.8 16.6-16.2 19.6-27.7s0 0 0-.1c.2-1 .4-1.9.6-2.9 1.1-5.3 1.5-10.7 1.5-16 2.2.4 4.3.8 6.5 1.2 3.2.6 6.4 1.2 9.6 1.8l9.6 2 9.6 2 4.8 1h.2c-3.3.8-6.4 2-9.2 3.7-7.8 4.5-13.4 11.6-18.5 18.9-6.5 9.3-12.4 19.5-21.4 26.7-2 1.6-4.2 3-6.5 4.2-.8.4-1.5 1.1-1.9 1.5-1 1-2 1.8-3.1 2.3-2.3 1-3 .1-3.6 2.8-.1.6.6 1.2 1.3 1.4 16.9 3 35.7 2.8 49.9-8.5 8.1-6.5 14-15.5 17.2-25.6v-.1c.4-1.2.7-2.5 1.1-3.7 1.9-7 3.2-14.2 3.8-21.4l14.5 3.4c9.2 2.3 18.5 4.8 27.6 7.4-.5 0-1 0-1.7 0-4.3.4-8.4 1.9-12.2 4-8.4 4.7-14.6 12.3-19.9 20.1-6.3 9.3-11.9 19.4-20.8 26.6-4.2 3.4-9 6-14.3 7.1-3.8.8-5.3-.4-7.2 2.9-.4.7.1 1.6.8 1.8 18.4 5.7 40.4 8.3 56.4-4.8 7.4-6.1 11.6-15 15.2-23.6 4.1-9.8 7.1-20.1 9.1-30.5.1-.5-.1-.8-.3-1.1-.1-.1-.2-.2-.3-.3-.9-.6-1.5-1-2.2-1.4 15 4.3 29.9 9.1 44.5 14.6z" opacity=".1"/><path d="m17.1 274.9c11.3 1.2 20.9 5.6 30 11.1s17.8 12 27.1 17.5c7.2 4.2 15.3 7.6 23.6 8.8s16.7.5 24.4-3.7c.5-.3.6-1 .4-1.4-.5-1.3-1.1-2.7-1.6-4 0-.2-.1-.4-.3-.6-6.8-8-13.7-16.1-22.7-21.7-8.4-5.2-18.2-7.4-28-8.9-10-1.6-20.2-2.4-30.4-2.3-5 0-10 .3-15 .7-3.5.3-5.3.6-8.1 2.4-.8.4-.5 1.9.6 2.1z" fill="#f9e5a7"/><path d="m179 306.3c-.3-1.3-.7-2.6-1.1-3.9 0-.2-.1-.4-.2-.6-5.1-8.3-10.3-16.8-18-23.1-7.2-5.9-15.9-9.1-24.7-11.5-3.2-.9-6.4-1.6-9.7-2.3-6.1-1.2-12.3-2.1-18.5-2.6-4.7-.4-9.4-.6-14.2-.5-2 0-3.5.1-5 .4-.9.2-1.8.6-2.6 1.3s-.4 2.2.6 2.4c1.3.3 2.6.7 4 1.1 4.8 1.7 9.1 4 13.1 6.7 3.6 2.5 6.9 5.3 10.1 8.3 3.4 3.3 6.7 6.8 10 10.2 3.9 4.1 8 8.2 12.4 12 1.7 1.5 3.6 2.9 5.6 4.2 3.1 2.1 6.4 3.9 9.9 5.3 2.1.8 3.8 1.2 6 1.5h.4.8c7-.9 14.2-2.6 20.6-7.6.4-.1.6-.8.5-1.3z" fill="#d0c38a"/><path d="m233.2 308.1c-.2-1.3-.4-2.5-.5-3.8 0-.2 0-.4-.1-.6-3.3-8.5-6.8-17.2-13-24.2-5.8-6.5-13.3-10.6-21.1-13.9-2.8-1.2-5.7-2.3-8.7-3.2-5.5-1.8-11.2-3.2-17-4.3-4.4-.8-8.8-1.4-13.2-1.8-1.8-.1-3.3-.2-4.7-.1-.9.1-1.9.4-2.4 1.2-.7.8-.3 2.2.6 2.6 1.1.5 2.4 1 3.9 1.7 4.6 2.4 8.5 5.5 11.8 9 3.1 3.2 5.6 6.8 8 10.4 2.6 4 5 8.2 7.4 12.3 2.9 4.9 6 9.9 9.8 14.5 1.5 1.8 3.1 3.5 4.8 5.2 2.8 2.6 5.9 4.9 9.3 6.7 2.2 1.2 3.7 1.5 6.1 1.7h.4c.3 0 .6-.1.8-.2 5.8-2.8 12.1-5.9 17.4-11.8.2-.2.4-.8.4-1.4z" fill="#a7a16d"/><path d="m284.1 312.7c0-1.2 0-2.4 0-3.7 0-.2 0-.4 0-.5-1.4-8.5-3.1-17.3-7.8-24.9-4.3-6.9-10.5-11.9-17.3-16-2.5-1.5-5-2.9-7.6-4.1-4.9-2.3-10-4.3-15.3-5.8-4-1.2-8-2.2-12.1-3-1.6-.3-3-.6-4.4-.7-.8-.1-1.8.3-2.2 1-.6 1.1-.2 2.3.5 2.8 1 .7 2.3 1.3 3.7 2.3 4.3 3.1 7.6 7.1 10.2 11.4 2.4 3.9 4.2 8.1 5.7 12.3 1.6 4.6 3 9.4 4.5 14.1 1.8 5.6 3.8 11.3 6.8 16.7 1.2 2.1 2.5 4.2 4 6.1 2.4 3.1 5.2 5.9 8.5 8.2 2.2 1.5 3.6 1.7 6.1 2h.4c.3 0 .6-.1.8-.3 5-4.6 10.4-9.4 14.8-16.2.5-.5.7-1.1.7-1.7z" fill="#7f804f"/><path d="m338.1 318.7c.2-1.1.4-2.3.6-3.4 0-.2.1-.3.1-.5.5-8.3.7-16.9-2.3-24.9-2.8-7.2-7.5-13-13.1-17.8-2-1.8-4.2-3.4-6.5-4.9-4.2-2.8-8.7-5.2-13.4-7.3-3.6-1.6-7.2-3-10.8-4.2-1.4-.5-2.7-.9-4-1.2-.8-.2-1.8.1-2 .9-.4 1.3-.2 2.4.5 3 .8.9 2 1.6 3.4 2.9 3.9 3.8 6.5 8.6 8.3 13.6 1.6 4.6 2.5 9.2 3 14 .6 5.2.8 10.4 1.2 15.6.5 6.2 1.4 12.5 3.4 18.5.8 2.4 1.8 4.7 3 7 1.9 3.6 4.4 6.9 7.5 9.5 2.2 1.9 3.4 2 6.2 2.3h.5c.3 0 .6-.2.8-.5 4.7-6.4 9.4-13.1 13.1-20.9.2-.5.4-1.1.5-1.7z" fill="#565e32"/><path d="m364.3 314.8c-1.2 9.2-1.6 18.8 1.5 27.7 1.4 4 3.5 7.8 6.3 10.9 2.1 2.3 3.2 2.3 6.2 2.7h.5c.3 0 .7-.2.9-.6 5.2-8.8 9.6-18 13-27.6 3.1-8.9 6-18.4 4.5-28-1.6-10-6.8-18.1-13.9-24.7-7-6.6-15.8-11.6-24.4-15.5-.7-.3-1.6 0-1.8.8-.7 3.6 1.1 3.8 3.4 6.8 3.4 4.5 5.2 10 6 15.6 1.5 10.6-.9 21.3-2.2 31.9z" fill="#2d3c15"/><path d="m60.6 354.4c5.5 2.3 12.9.1 18.6-1 8.6-1.6 17.1-4 25.2-7.3 13.8-5.6 25.8-17.9 28.4-33 0-.1 0-.2 0-.3 0-.7-.5-1.2-1.2-1.2-12.2-.5-23.7 4.4-33 12.1-12.4 10.3-21.6 23.5-37.7 28.4-1 .3-1.4 1.8-.3 2.3z" fill="#f9e5a7"/><path d="m156.8 355.9c11.9-6.6 22.4-17.4 24.9-31.2.1-.4.1-.8.1-1.2.2-2.3-.1-4.4-.7-6.3 0-.1-.1-.2-.2-.2h-.1c-1.9-.4-3.6-.4-5.5-.1-3.4.5-6.6 1.4-9.6 2.7-6.8 2.8-12.6 7.5-17.7 12.7-8.9 8.9-16.2 19.1-26.8 25.7-2.3 1.4-4.8 2.7-7.5 3.7-.9.3-1.3 1.7-.6 2.2 1.3.9 2.8 1.3 4.4 1.5 1.8.2 4-.3 6.2-.2.7 0 1.5 0 2.3-.1 10.6-1.3 21.4-4 30.8-9.2z" fill="#d0c38a"/><path d="m207.4 367c10.2-6.8 19.2-16.7 21.9-29.3.1-.7.2-1.3.3-2 .5-3.9.5-7.7.1-11.3 0-.2-.1-.3-.3-.4-.1 0-.1-.1-.2-.1-2.1-.6-3.6-.8-5.8-.4-3.5.6-6.9 1.8-10 3.3-6.9 3.5-12.4 9-17.4 14.9-7.8 9.1-14.4 19.2-24.3 26.1-2.2 1.5-4.5 2.8-7 3.9-.8.4-1.3 1.5-1 2 .6 1 1.3 1.6 2 1.9.5.6 1.7.1 3.1 1.1.4.3 1.2.4 2 .4 12.7-.4 25.8-3 36.6-10.1z" fill="#a7a16d"/><path d="m257 379.3c8.9-6.7 16.3-15.9 19.2-27.2s0 0 0-.1c.2-.9.4-1.9.6-2.8 1.1-5.4 1.5-10.9 1.5-16.3 0-.3-.1-.5-.3-.6-.1-.1-.1-.1-.2-.2-2.3-.9-3.6-1.2-6.1-.8-3.7.7-7.3 2-10.5 3.8-7.2 4.1-12.5 10.4-17.4 16.9-6.9 9.2-13.1 19.2-22.4 26.2-2 1.5-4.2 2.9-6.6 4.1-.8.4-1.4 1.3-1.4 1.8-.1 1.1-.3 1.8-.5 2.2-.9.9-.7.2-.2 2.1.1.4.9.8 1.7.9 14.6.9 30.3-.9 42.6-10z" fill="#7f804f"/><path d="m305.2 393.4c7.9-6.3 13.7-15.2 16.9-25.1v-.1c.4-1.2.7-2.4 1.1-3.6 1.9-6.9 3.1-14 3.7-21.1 0-.4-.1-.6-.3-.8-.1-.1-.2-.2-.3-.2-2.4-1.2-3.5-1.8-6.3-1.3-4 .6-7.7 2.1-11.1 4-7.6 4.4-13.1 11.4-18.1 18.5-6.4 9.2-12.1 19.2-21 26.2-2 1.6-4.1 3-6.3 4.1-.8.4-1.4 1-1.9 1.5-1 1-2 1.7-3 2.2-2.2 1-3 .1-3.5 2.7-.1.6.5 1.2 1.3 1.4 16.4 2.9 34.9 2.7 48.8-8.4z" fill="#565e32"/><path d="m294.4 415.6c18 5.6 39.6 8.2 55.3-4.7 7.2-6 11.4-14.7 14.9-23.2 4-9.7 6.9-19.7 8.9-29.9.1-.4 0-.8-.3-1.1-.1-.1-.2-.2-.3-.3-2.5-1.6-3.3-2.4-6.4-2.1-4.2.4-8.3 1.9-12 3.9-8.3 4.6-14.3 12-19.5 19.7-6.2 9.1-11.7 19.1-20.4 26.1-4.1 3.3-8.8 5.9-14 7-3.7.7-5.2-.4-7 2.8-.4.7.1 1.5.8 1.8z" fill="#2d3c15"/><path d="m112.8 310.5c12.9-.2 25.8.5 38.6 1.6 6.4.5 12.8 1 19.3 1.6 6.4.5 12.8 1.2 19.2 1.8 25.6 2.6 51.3 5.7 76.8 9.6 6.4 1 12.7 2.1 19.1 3.1 3.2.5 6.4 1 9.5 1.6l9.5 1.8 9.5 1.8 4.8.9 4.7 1 19 4c25.2 5.8 50.2 12.7 74.7 21.4l-3.2 8.5c-23.9-8.9-48.5-16-73.4-22.3l-18.7-4.4-4.7-1.1-4.7-1-9.4-2-9.4-2c-3.1-.6-6.3-1.2-9.5-1.8-6.3-1.2-12.6-2.4-18.9-3.5-25.3-4.5-50.7-8.3-76.2-11.6-6.4-.8-12.8-1.6-19.1-2.4-6.4-.7-12.8-1.5-19.2-2.1-12.8-1.3-25.6-2.6-38.3-4.5z" fill="#434026"/><path d="m289.6 287.9c-60.2-6.5-118.7-25.5-171.4-55.2-.4-.7-.8-1.4-1.3-2.1-2.1-2.6-5-4.3-7.8-6-5.2-3.3-10-7-14.7-11-13.3-11.3-25.2-24.4-40-33.7-.8-.5-1.6-1-2.3-1.4-2.2-1.3-4.6-2.5-7.1-3.5-8.3-3.3-17.5-4.2-24.4.9-2.4-.9-3.9-3.3-5.9-4.9s-5.2-2.5-6.9-.6c-1.2 1.3-1 3.4-.8 5.1.5 7.7-2 15.7-7 21.6 3.4 2.9 8.9 3.1 12.5.3l5.8.5c1.4 1.7 2.9 3.4 4.3 5.1 2.2 2.5 4.4 5 6.7 7.4 3.8 3.9 7.8 7.5 12.4 10.5 4 2.7 8.4 4.8 12.9 6.6 3 1.2 6 2.2 9 3.2 3.4 1.1 6.9 2.1 10.4 3.1 4.4 1.3 8.9 2.5 13.3 3.8 5.4 1.5 10.9 3.1 16.3 4.6 2.3.6 4.8 1.1 7.2 1.1h.1c.4 0 .8 0 1.1-.1 54.7 30.9 115.1 50.1 177.6 56.9 7.9.8 7.8-11.4 0-12.2z" opacity=".1"/><path d="m114.6 243.6c55 32 116.2 51.9 179.4 58.8 7.6.8 7.5-11.2-.1-12-61.1-6.6-120.3-26.3-173.4-57.2-6.6-3.9-12.5 6.5-5.9 10.4z" fill="#f9e5a7"/><path d="m61 183c.8.5 1.5.9 2.3 1.4 14.4 9.1 26.2 22 39.2 33 4.6 3.9 9.3 7.6 14.4 10.8 2.7 1.7 5.6 3.4 7.7 5.9 2 2.5 3 6.3 1.3 9.1-1.5 2.5-4.2 3.4-7.1 3.4h-.1c-2.4 0-4.9-.5-7.1-1.1-5.3-1.5-10.7-3-16-4.5-4.4-1.2-8.7-2.5-13.1-3.7-3.4-1-6.8-1.9-10.2-3-3-.9-6-2-8.9-3.1-4.4-1.8-8.7-3.8-12.6-6.5-4.4-2.9-8.4-6.5-12.1-10.3-2.3-2.3-4.5-4.8-6.6-7.3-1.4-1.7-2.8-3.3-4.2-5l-5.7-.5c-3.5 2.7-8.9 2.6-12.3-.3 4.9-5.8 7.4-13.6 6.9-21.2-.1-1.7-.3-3.7.8-5 1.6-1.9 4.8-1.1 6.8.6 1.9 1.6 3.4 3.9 5.7 4.8 6.8-5.1 15.8-4.1 23.9-.9 2.4.9 4.8 2.1 7 3.4z" fill="#795583"/><path d="m102.5 217.4c4.6 3.9 9.3 7.6 14.4 10.8 2.7 1.7 5.6 3.4 7.7 5.9 2 2.5 3 6.3 1.3 9.1-1.5 2.5-4.2 3.4-7.1 3.4.1-.2.1-.3.2-.5-.1.2-.2.3-.3.5-2.4 0-4.9-.5-7.1-1.1-5.3-1.5-10.7-3-16-4.5 1.5-4.4 2.9-8.8 4.1-13.2.9-3.4 2-6.8 2.8-10.4z" fill="#e87a64"/><path d="m45.7 199.8c-2.1 5-4.4 9.9-7 14.6-2.3-2.3-4.5-4.8-6.6-7.3 2.1-3.9 3.9-7.9 5.6-12 2.2-5.4 10.2-.8 8 4.7z" fill="#e87a64"/><path d="m61 183c.8.5 1.5.9 2.3 1.4 0 6.2-.7 12.3-2 18.3-1.3 5.9-10.2 3.5-9-2.3 1.2-5.4 1.8-10.8 1.8-16.2 0-1.4 0-3 0-4.6 2.3.9 4.7 2.1 6.9 3.4z" fill="#e87a64"/><path d="m81.7 202.4c-1 11.3-4.1 22-9.4 31.8-3-.9-6-2-8.9-3.1 5-8.9 8.1-18.4 9-28.7.6-5.8 9.8-5.9 9.3 0z" fill="#e87a64"/><path d="m371.6 267.8c-33-61.2-69.3-120.6-108.6-177.9 1.2-2.5 1.8-5.2 1.9-7.8.2-7.8-3.5-15.1-7.4-22-.1-.2-.3-.4-.4-.6-1.9-3.4-3.9-6.7-6-10-1.4-2.3-2.9-4.5-4.5-6.7-4.8-6.8-10.1-13.2-16.2-18.6-2-1.7-4-3.3-6.1-4.8-3-2.2-6.2-4.1-9.5-5.7-2.6-1.3-5.7-2.8-6.2-5.6s1.3-6.8-1.4-7.8c-.5-.3-1.1-.3-1.7-.3-7.5.7-14.7 4.8-19 11 3.8 2.7 7.6 5.3 11.4 8l.3 1.5c-2.9 4.8-.4 10.9 2.4 15.8 3.1 5.5 6.4 10.9 9.9 16.2 1.4 2.1 2.9 4.2 4.4 6.3 5.5 7.8 11.5 15.2 17.9 22.2 1.9 2.1 3.8 4.2 5.8 6.2.5.5 1 1 1.5 1.5 3.5 3.6 7.2 7 10.9 10.4 1.9-.1 3.6-.6 5.2-1.5 38.7 56.6 74.4 115.2 107 175.5 3 5.6 11.5.4 8.4-5.3z" opacity=".1"/><path d="m258.5 99.9c39 56.7 74.9 115.4 107.5 176 3 5.6 11.3.4 8.4-5.2-32.7-60.5-68.6-119.3-107.5-176-3.6-5.2-12 0-8.4 5.2z" fill="#f9e5a7"/><path d="m262.1 66.3c.1.2.2.4.4.6 3.8 6.7 7.4 13.9 7.2 21.5-.2 7.9-5.8 16.3-13.7 16.6-3.7-3.3-7.2-6.7-10.7-10.2-.5-.5-1-1-1.5-1.5-1.9-2-3.8-4-5.7-6-6.3-6.9-12.2-14.2-17.6-21.8-1.5-2-2.9-4.1-4.3-6.2-3.4-5.2-6.7-10.4-9.7-15.9-2.7-4.8-5.2-10.8-2.3-15.5l-.3-1.4c-3.7-2.6-7.4-5.2-11.2-7.9 4.3-5.9 11.4-9.9 18.8-10.6.6 0 1.1-.1 1.7.1 2.6 1 .9 4.9 1.4 7.7s3.5 4.3 6 5.5c3.3 1.6 6.4 3.5 9.4 5.6 2.1 1.5 4.1 3.1 6 4.8 6 5.3 11.2 11.6 15.9 18.2 1.5 2.2 3 4.3 4.4 6.6 2 3.2 4 6.5 5.8 9.8z" fill="#795583"/><path d="m262.5 67c3.8 6.7 7.4 13.9 7.2 21.5-.2 7.9-5.8 16.3-13.7 16.6-3.7-3.3-7.2-6.7-10.7-10.2-.3-.8-.2-1.8.4-2.6-.6.4-1.3.7-1.9 1.1-1.9-2-3.8-4-5.7-6 8.6-6.3 17-12.8 24.4-20.4z" fill="#e87a64"/><path d="m256.2 56.5c-2.5 2.8-5.4 5.2-8.7 7.2-4.2 2.5-8.2-3.9-4-6.5 3.3-2 6.1-4.4 8.3-7.3 1.5 2.2 3 4.4 4.4 6.6z" fill="#e87a64"/><path d="m232.5 56.2c-3.5 3.8-7.5 6.9-11.9 9.4-1.5-2-2.9-4.1-4.3-6.2 4-2.2 7.5-5 10.6-8.4 3.4-3.5 8.9 1.7 5.6 5.2z" fill="#e87a64"/><path d="m503.6 219.8c-.9-1.3-1.9-2.6-3.2-3.4-7.5-4.4-18.5 9.6-24.3 3 .6-11.3 1.1-22.6 1.7-33.9.1-2.7.2-5.7-1.2-8-1.3-2.2-3.7-3.5-6-4.7-17.6-9.3-35.3-18.6-52.9-27.9-2.3-1.2-4.6-2.4-7.2-3-7.5-1.6-15.8 4.3-16.8 12-.6 5 1.4 9.8 3 14.6 1.6 4.7 2.6 10.2.2 14.6s-9.6 6-12.3 1.8c-1-1.6-1.1-3.5-1.3-5.3-.9-11.9-2.8-23.7-5.9-35.3-1-3.7-2.1-7.4-4.4-10.5-4-5.3-10.8-7.5-17.2-9.1-30.8-7.6-63.4-7.4-94.1.6 7.1 8.2 12 18.4 13.9 29.2.4 2 .6 4.2 0 6.2-1.6 5.5-9.1 7.4-14.4 5.1s-8.7-7.5-11.6-12.4c-7.9-13.3-15.8-28.3-30.2-33.9-13.6-5.3-28.9-.3-42.6 4.6-18 6.5-36.1 13-54.1 19.4l2.5 1c9.3 18.8 14.3 39.4 22.8 58.6s21.4 37.8 40.7 46c18.2 7.7 38.9 5.1 58.4 2.4-11.2 5-22.4 10.1-33.6 15.1-1.9.9-4 1.9-5 3.8-1.1 2.2-.3 4.7.6 7 7.8 19.3 24.8 34.7 44.8 40.6s42.6 2.2 59.7-9.8c5.4 1.5 1.4 9.7-3.1 13-13.8 9.8-27.6 19.7-41.3 29.5 11 3.3 17.8 14 26.2 21.8 20.7 19.2 56.1 19.9 77.5 1.5 2.1-1.8 4.3-3.9 7.1-4.2 5.3-.6 9.2 5.8 8.1 11-1 5.2-5.1 9.2-9 12.8 23 13.3 53.7 12.3 75.7-2.7 18.1-12.3 33.6-33.9 55.3-31.7l1.1-5.3c.5-22.8 5.2-45.3 6.4-68.1 1.5-23.1-1.2-47.1-14-66z" opacity=".1"/><path d="m511.6 354.8c.5-22.4 5.1-44.5 6.3-66.8s-1.5-45.9-14-64.5c-.9-1.3-1.8-2.6-3.2-3.4-7.4-4.4-18.1 9.4-23.8 2.9.5-11.1 1.1-22.2 1.6-33.2.1-2.7.2-5.6-1.2-7.9-1.3-2.2-3.6-3.4-5.8-4.6-17.3-9.1-34.6-18.3-51.9-27.4-2.3-1.2-4.5-2.4-7-2.9-7.4-1.6-15.5 4.2-16.5 11.7-.6 4.9 1.4 9.6 2.9 14.3s2.5 10 .2 14.3c-2.4 4.3-9.5 5.9-12.1 1.7-1-1.5-1.1-3.4-1.2-5.2-.9-11.7-2.8-23.3-5.8-34.6-1-3.6-2.1-7.3-4.3-10.3-3.9-5.2-10.6-7.3-16.9-8.9-30.2-7.5-62.2-7.3-92.3.6 7 8.1 11.8 18.1 13.6 28.6.4 2 .6 4.1 0 6.1-1.6 5.4-8.9 7.3-14.1 5s-8.5-7.3-11.4-12.2c-7.8-13-15.5-27.8-29.7-33.2-13.4-5.2-28.3-.3-41.8 4.6-17.7 6.4-35.4 12.7-53.1 19.1l2.5 1c9.1 18.4 14 38.7 22.3 57.5s21 37 39.9 45.1c17.8 7.6 38.1 5 57.3 2.4-11 5-22 9.9-32.9 14.9-1.9.9-3.9 1.9-4.9 3.7-1 2.1-.3 4.7.6 6.8 7.7 19 24.4 34 44 39.8s41.8 2.1 58.6-9.6c5.3 1.5 1.4 9.5-3.1 12.7-13.5 9.6-27 19.3-40.6 28.9 10.8 3.2 17.4 13.7 25.7 21.4 20.3 18.9 55 19.5 76 1.5 2.1-1.8 4.2-3.8 7-4.2 5.2-.6 9 5.7 8 10.8s-5 9-8.8 12.6c22.6 13.1 52.7 12 74.3-2.6 17.7-12 32.9-33.2 54.3-31.1z" fill="#ada958"/><path d="m134.8 150.5c22.2 7.8 36.2 29.1 49.3 48.6s29.4 39.9 52.5 44.1c7 1.3 14.3 1 20.9 3.7 6.5 2.7 12 10.2 9.3 16.7-2.2 5.4-8.6 7.5-13.8 10-5.3 2.5-10.6 8-8.5 13.4.9 2.3 3.1 3.9 5.1 5.3 17.5 11.6 39 17 59.9 15 6.1-.6 12.9-1.6 17.8 2.2 7.3 5.6 4.5 17.8-2 24.4s-15.5 10.3-21.7 17.1c18.5 12.8 42.2 17.8 64.3 13.8 10.8-2 25.5-4 29.3 6.3 1.1 3 .8 6.5 2.2 9.4 2.5 5.1 9.2 6.5 14.9 6.1 33.2-2.4 59.6-41.4 91.8-33-7.1-15.1-.3-32.7 2.5-49.2 3.8-23.2-1.1-47.8-13.6-67.8-10.4 5.4-23.2-3-28.8-13.3-5.7-10.3-7.4-22.4-13.5-32.5-7.7-12.8-22.7-20.8-37.6-20.3-1.3 0-2.7.2-3.9.8-1.8 1-2.6 3.1-3.3 5.1-2.4 6.6-5.7 13.7-12.2 16.2-8.2 3.2-17.3-2.8-22.3-10-5-7.3-7.6-16-13-22.9-12.8-16.1-36.4-17.2-57-16.9-2.4 0-5 .2-6.7 1.8-2.4 2.2-1.9 5.9-2.1 9.2-.4 12-12 22.3-24 21.4-10.6-.8-19-8.9-28.3-13.9-11.8-6.4-25.6-7.9-39-9.1-20.7-1.7-41.4-2.7-62.1-2.8z" fill="#70774e"/><path d="m468.2 266.3c-.1 6.8.4 13.6 1.3 20.4s2.4 13.5 4.3 20.1c.5 1.6 1 3.3 1.6 4.9s1.1 3.3 1.7 4.8c.1.3.2.6.3.9-2.8-2.2-5.6-4.3-8.5-6.3-6.9-5-14-9.5-21.1-14s-14.2-8.8-21.4-13.2c-7.8-4.7-15.7-9.3-23.6-13.8-2.3-4.2-4.1-8.8-5.4-13.6-1.4-4.9-2.3-10-2.9-15.2-1.2-10.4-1.2-20.9-1.1-31.5-1.2 10.5-2.4 21-2.3 31.7.1 5.3.4 10.7 1.4 16.1.4 2.5 1 5.1 1.7 7.6-3.8-2.1-7.6-4.2-11.4-6.3-14.7-8-29.6-15.8-44.6-23.2-7.4-3.7-14.8-7.3-22.2-10.8-1-.6-1.9-1.2-2.8-1.8-2-1.3-3.9-2.6-5.7-4-3.7-2.9-7.2-6.1-10.4-9.6-6.5-6.9-12.3-14.7-18-22.5 4.8 8.4 9.6 16.8 15.4 24.6 1.2 1.6 2.5 3.2 3.8 4.8-1.8-.8-3.6-1.7-5.3-2.5-15.2-7-30.5-13.9-45.8-20.5l-11.5-5-11.5-4.9c-7.7-3.3-15.4-6.6-23.1-9.8l-11.6-4.8-11.6-4.8c-7.7-3.2-15.5-6.3-23.3-9.4 7.4 3.9 14.9 7.7 22.3 11.5l11.2 5.6 11.2 5.6c7.5 3.7 15 7.4 22.5 11l11.3 5.5 11.3 5.4c15 7.3 30.2 14.4 45.2 21.7 12.5 6 25 12.2 37.4 18.4-16-.1-32 .9-47.8 2.9 20.6-.4 41.1.9 61.3 3.9 5.4 2.8 10.8 5.5 16.1 8.4 5.4 2.8 10.7 5.7 16 8.6-2.3.7-4.5 1.6-6.6 2.6-4.8 2.3-9 5.3-13 8.4-8 6.2-15.4 13.2-22.1 20.7 7.5-6.7 15.6-12.7 24.1-17.9 4.2-2.6 8.6-4.9 13.1-6.5s9.1-2.4 13.6-2h.4.2c13.4 7.4 26.8 15 39.9 22.8 7.2 4.2 14.3 8.5 21.4 12.9 6.6 4.1 13.2 8.2 19.5 12.5-3.4.6-6.6 1.5-9.8 2.7-6.5 2.3-12.5 5.5-18.1 9.2s-10.8 7.9-15.7 12.4c-4.9 4.4-9.6 9.1-14.3 13.8 5.1-4.2 10.1-8.5 15.3-12.5s10.6-7.7 16.3-10.8 11.7-5.6 17.8-7.2c5.3-1.4 10.8-2.1 16.2-1.9 4.5 3.3 8.8 6.8 12.9 10.4.8.7 1.5 1.4 2.3 2.1l2.2 2.1 2.1 2.2 1.1 1.1 1 1.1 2.1 2.2 2 2.3 1 1.2.9 1.2 1.9 2.4.1.1c1.1 1.4 3.1 1.7 4.6.7 1.5-1.1 1.9-3.2.8-4.7-5-7-10.7-13.6-17-19.4l-2.4-2.2-.9-.8c-.1-1.7-.5-3.3-1-4.8-.6-1.8-1.3-3.5-2-5-.7-1.6-1.4-3-2.1-4.6-.7-1.5-1.3-3.1-1.9-4.6-2.4-6.2-4.3-12.6-5.8-19.1s-2.5-13.1-2.9-19.8c-.5-6.7-.5-13.4.1-20.2-1 6.5-1.6 13.2-1.7 20z" fill="#5b5a40"/><path d="m456.6 315.3c-14.4-35.2-29.1-71.3-31.8-109.6.6-.1 1.2-.4 1.6-.8.4-.3.6-.7.8-1.1 0-.1.1-.1.1-.2.3-.7.5-1.4.6-2.2.1-.6.2-1.1.3-1.7 0-.2 0-.3.1-.5.2-2.1.3-4.2.3-6.3 0-2.5.1-5.1.4-7.6.4-3 1.2-5.8 1.9-8.7.3-1.2.6-2.4.9-3.7 0-.1 0-.1 0-.2 1.4-6.2 1.8-12.6 1.1-18.9-.4-4-1.9-8.7-5.8-9.6l-1.1-.2c.7-1.4 1.4-2.8 2.1-4.3.2-.3.3-.8.1-1.1s-.7-.3-1.1-.3c-3 .3-6 .6-9 1-.5.1-1.2.2-1.5.6-.2.3-.2.7-.2 1 .1 1.8.4 3.5 1 5.2l.8.4c-1.2 2.2-2.1 4.4-2.8 6.8-.4 1.1-.7 2.3-.9 3.4-.5 2.2-.9 4.4-1.1 6.6-.1 1.2-.2 2.3-.3 3.5-.1 1.7-.1 3.4 0 5.1.2 7 1.5 13.8 3 20.6.4 1.7.8 3.5 1.2 5.2.5 2.2 1.1 4.5 2.7 6.2 2.3 39.5 17.4 76.7 32.3 112.9 1.2 2.9 5.4 1.2 4.3-1.5z" opacity=".1"/><path d="m421.9 205.6c1.8 39.7 16.9 77.1 31.8 113.4 1.1 2.6 5.2.9 4.1-1.7-14.8-36-29.7-72.9-31.5-112.3-.2-2.8-4.6-2.2-4.4.6z" fill="#f9e5a7"/><path d="m434.6 159c.6 6.2.2 12.5-1.1 18.5v.2c-.3 1.2-.6 2.4-.9 3.6-.7 2.8-1.5 5.6-1.9 8.5-.3 2.4-.3 4.9-.4 7.4 0 2.1-.1 4.1-.3 6.2v.5c-.1.6-.1 1.1-.2 1.7-.1.7-.3 1.5-.6 2.1 0 .1-.1.1-.1.2-.2.4-.5.8-.8 1.1-1.7 1.5-4.5.9-6.1-.7s-2.1-3.9-2.7-6.1c-.4-1.7-.8-3.4-1.2-5.1-1.5-6.7-2.7-13.4-3-20.2-.1-1.7-.1-3.3 0-5 0-1.1.1-2.3.2-3.4.2-2.2.6-4.3 1.1-6.4.3-1.1.6-2.3.9-3.4.7-2.3 1.7-4.5 2.8-6.7l-.8-.4c-.5-1.6-.9-3.3-1-5.1 0-.3 0-.7.2-1 .3-.5.9-.6 1.4-.6 2.9-.3 5.9-.6 8.8-.9.4 0 .8 0 1.1.3.2.3.1.7-.1 1.1-.7 1.4-1.3 2.8-2.1 4.2l1 .2c3.9.6 5.4 5.3 5.8 9.2z" fill="#795583"/><path d="m424.6 162.6c-2.7-.3-5.4-.6-8-.7.3-1.1.6-2.3.9-3.4 2.5.2 5.1.4 7.6.7 2.2.3 1.7 3.7-.5 3.4z" fill="#e87a64"/><path d="m433.4 177.7c-.3 1.2-.6 2.4-.9 3.6-3.6.6-7.3.5-10.9-1-2-.9-.7-4 1.3-3.2 3.5 1.5 7 1.3 10.5.6z" fill="#e87a64"/><path d="m429.9 203.4c-.5.1-1 .3-1.5.4.5 0 .9.1 1.4.1-.1.6-.1 1.1-.2 1.7-.1.7-.3 1.5-.6 2.1l-.4.1c.1 0 .2.1.3.1-.2.4-.5.8-.8 1.1-1.7 1.5-4.5.9-6.1-.7s-2.1-3.9-2.7-6.1c-.4-1.7-.8-3.4-1.2-5.1 2.1-.2 4.2-1 6-2.3s3.9 1.4 2.1 2.7c-.5.3-1 .6-1.4.9l.4-.1c1.7-.2 3.3-.6 5-1 0 2 0 4.1-.3 6.1z" fill="#e87a64"/><path d="m416.7 172.1c-.5-.1-1-.2-1.4-.3 0-1.1.1-2.3.2-3.4.5.1 1.1.2 1.7.3 2.1.4 1.6 3.8-.5 3.4z" fill="#e87a64"/><path d="m485.3 281.6c-27-35.4-70.4-34-81.7-35-11.3-.9-27.6-8.5-35.3-18.5-7.6-10-1.7-18.8-5-16.3-9.8 7.5-8 19.5-3.8 29.6-20.7-9.1-38.9-7.7-41.4-5.7-2.3 1.7.4 7.9 5.7 14.8-3.3 2.9-3.4 5-2 6.7 1.5 2 8.1-1.9 18.8 12.1 15.8 20.7 3.6 62.8 29.6 96.9 0 0 30.1 39.4 65.5 12.4 11.6-8.9 17.5-16.8 19.5-24.2l8.9-7.3c.3 2.2 1.5 2.5 5.3-.5 11.4-8.7 43-29.6 15.9-65z" opacity=".1"/><path d="m474.9 340.4-32.4 26.8-55.7-54s23.6-31.5 25.5-31.9 43.4 5.2 43.9 5.9c.4.7 18.7 53.2 18.7 53.2z" fill="#ad8147"/><path d="m330.7 257.5c-7.2-8-11.4-16.2-8.7-18.2 2.6-2 22.2-3.5 43.8 7.1s4 27 4 27z" fill="#ad8147"/><path d="m373 262.6s-25.7-32.3-6.7-46.8c3.3-2.5-2.6 6.1 4.9 16s23.6 17.3 34.6 18.2c11.1.9 53.6-.5 80.1 34.3s-4.5 55.3-15.6 63.8.7-9.9-11.8-26.3c-12.4-16.5-63.7-33.3-85.5-59.2z" fill="#ce9b51"/><path d="m373 367.3c-25.5-33.4-13.5-74.8-29-95.1-10.5-13.8-16.9-9.9-18.4-11.9s-1.2-4.3 3.4-7.8 22.7-7 39.9 4.8 48.1 31.8 66.8 54.8 36.3 40.8 1.6 67.3-64.3-12.1-64.3-12.1z" fill="#e8b156"/><path d="m413.9 325.9c-1.3.6-2.6 1.5-3.2 2.9-.6 1.3-.2 2.6.3 3.8.6 1.4 1.2 2.7 2.1 3.9s2.1 2.1 3.6 2.5c1.4.4 3 .2 4.4-.5 1.9-.9 3.4-2.6 4.3-4.5.6-1.2 1-2.5 1-3.9 0-1.3-.5-2.7-1.5-3.7s-2.4-1.4-3.8-1.6c-1.9-.1-4.9.1-7.2 1.1z" fill="#ce9b51"/><path d="m413.1 324.6c-5.4 2.7-4.7 7.8-1.6 12.2 2.8 4.1 7.8 5.1 11.8 2.1 3.5-2.6 6-8.3 3.5-12.4-2.7-4.3-9.4-3.7-13.4-2.1-1.8.7-1 3.6.8 2.9 2.2-.9 4.9-1.4 7.3-.8 4.5 1.1 3.6 6 1.3 8.8-2.1 2.5-5.6 3.4-8.1.8s-4.1-7-.2-9c1.9-.7.4-3.3-1.4-2.5z" fill="#cd9a50"/><path d="m395.6 337.7c.5 1.4 1.7 2.9 2.5 3.6 2.5 2.1 6.6 2.5 9.2.4.4-.3.8-.8.8-1.4.1-.6-.2-1.1-.5-1.6-1.1-2.1-2.7-4-4.4-5.7-.4-.4-.8-.8-1.3-1-1.7-.6-4 .8-5.2 1.8-.5.3-.9.7-1.2 1.2-.4.8-.3 1.8.1 2.7z" fill="#ce9b51"/><path d="m394.3 338.5c1.6 3.7 5 6.2 9.1 6.1 3.4-.1 7.5-2.4 5.8-6.3-1-2.3-2.8-4.3-4.5-6.1-1.3-1.4-2.6-2.1-4.5-1.7-3.7.7-7.2 3.7-6 7.6.6 1.8 3.5 1.1 2.9-.8-.5-1.8 1.7-3.8 3.6-3.9 2-.1 5 3.9 5.6 5.6.9 2.8-3.1 2.8-4.9 2.3-2.2-.7-3.5-2.3-4.4-4.4-.9-1.7-3.5-.2-2.7 1.6z" fill="#cd9a50"/><path d="m427.6 344c-1.1.8-2 1.8-2.4 2.5-2.8 3.9-6.1 13.5.2 15.9.7.3 1.5 0 2.2-.3 2.5-1.4 4.2-4 5.2-6.7 1.2-3.3 1.5-6.9.9-10.3-.8-4-3.8-2.9-6.1-1.1z" fill="#ce9b51"/><path d="m426.6 343c-3.7 3.2-6.2 8.2-6.3 13.2-.1 4 2.9 9.4 7.6 7.3 5.7-2.5 7.6-10.3 7.4-15.9-.3-5.7-3.4-8.6-8.5-4.9-1.5 1.1 0 3.7 1.5 2.6 1.4-1 2.9-2.2 3.7.1.8 2.2.2 5.5-.3 7.7-.6 2.5-5 11.3-7.9 6.2-2.6-4.4 1.5-11.4 4.8-14.2 1.6-1.3-.6-3.4-2-2.1z" fill="#cd9a50"/><g fill="#ad8147"><path d="m446.8 279.9c.7 1 1.5 1.8 2.1 2.4 1.2 1.2 2.9 2.3 4.7 2 1.2-.2 2.4-1.1 2.7-2.4.3-1.2-.3-2.5-.7-3.6-.3-.8-.4-1.6-.8-2.4-1.2-2.7-4.3-2.9-6.8-2-.8.3-1.7.7-2.1 1.5-.8 1.5-.1 3.1.9 4.5z"/><path d="m445.5 280.7c2.1 2.9 5.7 6.5 9.6 4.7 4.1-1.9 2.5-6.5 1.2-9.7-1.3-3.1-4.6-4.1-7.7-3.3-1.6.4-3.2 1.2-4 2.7-1.1 1.8-.2 3.9.9 5.6 1 1.6 3.6.1 2.6-1.5-.7-1-1.5-2.5-.3-3.4.6-.4 1.6-.6 2.4-.7 2-.2 3 .7 3.6 2.5.5 1.5 1.9 4.1 0 5.1-2.1 1.1-4.6-2-5.7-3.5-1.2-1.6-3.8-.1-2.6 1.5z"/><path d="m462.2 284.6c.7.2 1.4.3 2 .5 3.6 1 7 2.5 10.3 4.2.9.5 1.8 1 2.7.9.4 0 .7-.2.9-.4.6-.8-.5-2.1-1-2.7-.8-1-1.7-2-2.8-2.7-2.1-1.5-4.5-2.5-7-3-2.2-.5-4.8-.4-6.6 1.1-.4.4-.7.9-.3 1.4.2.2.4.4.7.5.4 0 .8.1 1.1.2z"/><path d="m461.8 286c3.4.7 6.6 1.9 9.8 3.4 1.8.8 4 2.6 6.1 2.1 5-1 0-6.6-1.8-8.1-3.4-2.7-8.8-4.9-13.3-3.7-3.9 1.1-5.1 4.9-.8 6.3 1.8.6 2.6-2.3.8-2.9-.8-.2 3.1-.6 3.7-.6 1.3.2 2.5.5 3.7 1 .4.1 7.1 4.2 6.3 4.7-.6.4-5.3-2.4-5.9-2.6-2.6-1.1-5.1-2-7.9-2.5-1.8-.4-2.6 2.5-.7 2.9z"/><path d="m466.7 297.1c.2.1.4.3.6.4 1.1.8 2.2 1.6 3.2 2.6 1.2 1.2 2.3 2.5 3.1 4s1.2 3.2 2.2 4.6c1.2 1.6 3.6 1.9 4-.5.1-.8 0-1.6-.2-2.3-.4-1.8-.8-3.7-1.6-5.4-1.9-3.7-6-6.6-10.3-6.4-1.3.1-2.7.5-3.6 1.5.9.4 1.7 1 2.6 1.5z"/><path d="m465.9 298.4c2.5 1.7 4.9 3.7 6.4 6.5 1 2 1.5 4.4 3.4 5.8 3 2.1 5.8-.3 5.6-3.6-.3-4.5-2.4-9.3-6.1-12s-8.6-3.5-12.2-.6c-.7.6-.5 1.9.3 2.4.9.5 1.8 1 2.6 1.5 1.6 1.1 3.1-1.5 1.5-2.6-.9-.6-1.7-1.1-2.6-1.6.1.8.2 1.6.3 2.4 3-2.4 7.4-.3 9.7 2 1.2 1.2 2 2.7 2.6 4.4.3 1 1.5 6.4-.4 4.7-1-.9-1.3-2.6-1.9-3.8-.6-1.1-1.2-2.2-2-3.1-1.6-2-3.5-3.5-5.6-4.9-1.7-1.1-3.2 1.5-1.6 2.5z"/></g></svg>