<?xml version="1.0" encoding="UTF-8"?><svg id="Layer_2" xmlns="http://www.w3.org/2000/svg" xmlns:xlink="http://www.w3.org/1999/xlink" viewBox="0 0 969.24 476.02"><defs><style>.cls-1{filter:url(#drop-shadow-1);stroke:#1b1d1f;stroke-miterlimit:10;stroke-width:10px;}.cls-1,.cls-2{fill:#cdf564;}.cls-3{fill:#1b1d1f;}</style><filter id="drop-shadow-1" x="76.8" y="258.22" width="780.06" height="217.81" filterUnits="userSpaceOnUse"><feOffset dx="0" dy="25"/><feGaussianBlur result="blur" stdDeviation="0"/><feFlood flood-color="#1b1d1f" flood-opacity="1"/><feComposite in2="blur" operator="in"/><feComposite in="SourceGraphic"/></filter></defs><g id="Layer_1-2"><polygon class="cls-3" points="603.1 0 581.19 21.92 581.19 0 409.23 0 372.98 36.26 336.72 0 129.23 0 0 129.23 22.57 129.23 1.03 150.77 86.15 150.77 7.18 229.75 29.75 229.75 8.21 251.28 337.75 251.28 374.01 215.03 410.26 251.28 582.21 251.28 582.21 229.39 604.11 251.28 832.96 251.28 969.24 114.87 957.96 103.59 968.21 93.34 874.96 0 603.1 0"/><polygon class="cls-2" points="870.5 10.77 607.56 10.77 570.42 47.92 570.42 10.77 413.7 10.77 372.98 51.5 332.26 10.77 133.69 10.77 26 118.46 133.69 118.46 33.18 218.98 332.26 218.98 372.98 178.26 413.7 218.98 570.42 218.98 570.42 181.85 607.54 218.98 827.47 218.98 952.99 93.33 870.5 10.77"/><polygon class="cls-3" points="613.51 25.13 556.05 82.59 556.05 25.13 419.64 25.13 372.98 71.8 326.31 25.13 240.16 25.13 308.36 93.34 286.82 50.26 335.29 109.49 265.28 179.49 243.75 157.95 200.67 157.95 276.05 82.57 218.62 25.13 139.64 25.13 60.67 104.11 146.82 104.11 179.13 71.8 189.9 82.57 67.85 204.62 326.31 204.62 372.98 157.95 419.64 204.62 505.8 204.62 437.59 136.42 459.13 179.49 410.67 120.26 480.73 50.2 480.73 157.96 527.34 204.62 556.05 204.62 556.05 147.18 613.49 204.62 699.65 204.62 599.14 104.12 620.68 104.12 699.66 25.13 613.51 25.13"/><path class="cls-3" d="M721.1,25.13l-89.66,89.74,89.66,89.74h100.42l111.18-111.28-68.14-68.21h-143.45ZM717.51,114.88l43.04-43.08h64.55l21.52,21.54-64.55,64.62h-21.52l-43.04-43.08Z"/><path class="cls-3" d="M919.44,1.31h-4.04v10.64h-1.51V1.31h-4.04V0h9.59v1.31Z"/><path class="cls-3" d="M932.69,0v11.95h-1.46V1.64h-.07l-3.64,10.32h-1.22l-3.64-10.32h-.07v10.32h-1.4V0h2.4l3.32,9.6h.07l3.31-9.6h2.4Z"/><polygon class="cls-1" points="787.82 268.23 736.87 268.23 638.12 268.23 602.46 296.07 602.46 268.23 513.27 268.23 492.47 268.23 436.41 268.23 436.41 268.22 322.2 268.23 316.71 290.86 310.35 268.22 216.22 268.22 209.92 290.72 204.49 268.22 90.39 268.22 144.14 441.02 254.33 441.02 263.38 409.98 272.47 441.02 380.81 441.02 403.27 371.22 403.27 441.02 492.47 441.02 513.27 441.02 602.46 441.02 602.46 404.08 605.73 401.63 640.36 441.02 736.87 441.02 783.12 441.02 846.86 441.02 846.86 268.23 787.82 268.23"/><path class="cls-3" d="M416.02,282.82l-45.95,142.8h-86.17l-12.17-41.6c-3.79-12.99-7.28-27.92-7.28-27.92h-1.81s-3.49,14.93-7.28,28.11l-12.08,41.41h-87.89l-44.43-142.8h81.92l9.28,38.45c3.08,13.41,5.96,28.35,5.96,28.35h1.81s3.39-14.93,6.99-27.96l10.88-38.84h71.39l10.88,38.73c3.6,13.13,6.99,28.07,6.99,28.07h1.81s2.88-14.93,6.05-28.53l9.28-38.27h81.83Z"/><path class="cls-3" d="M418.47,425.62v-142.8h80v142.8h-80Z"/><path class="cls-3" d="M749.44,425.62h-102.09l-39.32-44.73-20.36,15.29v29.44h-80v-142.8h80v43.58l55.81-43.58h98.72l-73.5,53.89,80.74,88.9Z"/><path class="cls-3" d="M752.07,425.62v-142.8h80v142.8h-80Z"/></g></svg>